<svg width="741" height="254" viewBox="0 0 741 254" fill="none" xmlns="http://www.w3.org/2000/svg">
<path fill-rule="evenodd" clip-rule="evenodd" d="M250.222 185.719C250.268 186.178 250.36 186.88 250.91 187.064C251.292 187.186 251.644 187.186 251.781 187.186C251.842 187.186 251.888 187.217 251.888 187.278C251.888 187.354 251.766 187.401 251.613 187.401C251.307 187.401 249.81 187.369 249.321 187.323C248.999 187.293 248.94 187.247 248.94 187.186C248.94 187.141 248.969 187.095 249.03 187.078C249.107 187.064 249.121 186.865 249.092 186.621L248.45 180.051H248.419L245.179 186.682C244.905 187.247 244.828 187.369 244.705 187.369C244.583 187.369 244.507 187.247 244.248 186.774C243.896 186.132 243.009 184.467 242.674 183.763C242.276 182.938 241.192 180.753 240.962 180.218H240.901L240.382 186.086C240.365 186.285 240.365 186.53 240.365 186.743C240.365 186.941 240.488 187.064 240.686 187.11C240.916 187.171 241.115 187.186 241.206 187.186C241.253 187.186 241.314 187.232 241.314 187.278C241.314 187.369 241.221 187.401 241.069 187.401C240.564 187.401 239.923 187.354 239.816 187.354C239.693 187.354 239.052 187.401 238.685 187.401C238.548 187.401 238.456 187.369 238.456 187.278C238.456 187.232 238.517 187.186 238.593 187.186C238.7 187.186 238.793 187.171 238.991 187.141C239.434 187.064 239.448 186.59 239.51 186.1L240.488 177.62C240.504 177.483 240.564 177.391 240.641 177.391C240.732 177.391 240.84 177.437 240.916 177.589L244.981 185.658L248.893 177.605C248.954 177.483 249.015 177.391 249.107 177.391C249.199 177.391 249.275 177.498 249.306 177.742L250.222 185.719ZM228.488 181.333C228.488 179.317 228.488 178.95 228.458 178.537C228.428 178.124 228.351 177.88 227.908 177.819C227.801 177.804 227.572 177.787 227.45 177.787C227.404 177.787 227.343 177.728 227.343 177.681C227.343 177.605 227.404 177.574 227.556 177.574C228.168 177.574 228.977 177.605 229.099 177.605C229.221 177.605 230.062 177.574 230.461 177.574C230.613 177.574 230.689 177.605 230.689 177.681C230.689 177.728 230.629 177.787 230.567 177.787C230.475 177.787 230.399 177.787 230.231 177.819C229.879 177.88 229.803 178.109 229.773 178.537C229.742 178.95 229.742 179.317 229.742 181.333V183.152C229.742 185.032 230.155 185.811 230.735 186.33C231.392 186.927 231.974 187.034 232.737 187.034C233.563 187.034 234.356 186.667 234.815 186.117C235.442 185.367 235.579 184.298 235.579 182.968V181.333C235.579 179.317 235.564 178.95 235.549 178.537C235.534 178.124 235.456 177.88 235.013 177.819C234.908 177.804 234.678 177.787 234.556 177.787C234.495 177.787 234.448 177.728 234.448 177.681C234.448 177.605 234.509 177.574 234.663 177.574C235.258 177.574 236.038 177.605 236.114 177.605C236.206 177.605 236.847 177.574 237.245 177.574C237.398 177.574 237.459 177.605 237.459 177.681C237.459 177.728 237.412 177.787 237.353 177.787C237.26 177.787 237.184 177.787 237.016 177.819C236.649 177.895 236.573 178.109 236.542 178.537C236.512 178.95 236.527 179.317 236.527 181.333V182.723C236.527 184.13 236.343 185.704 235.275 186.621C234.297 187.462 233.256 187.568 232.463 187.568C232.018 187.568 230.613 187.538 229.666 186.652C229.009 186.041 228.488 185.139 228.488 183.244V181.333ZM224.452 183.626C224.452 184.878 224.452 185.902 224.513 186.437C224.56 186.819 224.605 187.064 225.003 187.125C225.201 187.156 225.491 187.186 225.614 187.186C225.69 187.186 225.72 187.247 225.72 187.293C225.72 187.354 225.66 187.401 225.507 187.401C224.758 187.401 223.886 187.354 223.826 187.354C223.749 187.354 222.908 187.401 222.496 187.401C222.359 187.401 222.282 187.369 222.282 187.293C222.282 187.247 222.313 187.186 222.389 187.186C222.511 187.186 222.68 187.156 222.802 187.125C223.062 187.064 223.108 186.819 223.153 186.437C223.215 185.902 223.23 184.878 223.23 183.626V181.333C223.23 179.317 223.23 178.95 223.198 178.537C223.169 178.095 223.062 177.895 222.771 177.834C222.619 177.804 222.45 177.787 222.359 177.787C222.297 177.787 222.252 177.728 222.252 177.681C222.252 177.605 222.313 177.574 222.465 177.574C222.908 177.574 223.749 177.605 223.826 177.605C223.886 177.605 224.758 177.574 225.171 177.574C225.323 177.574 225.384 177.605 225.384 177.681C225.384 177.728 225.323 177.787 225.277 177.787C225.186 177.787 225.093 177.787 224.942 177.819C224.575 177.895 224.497 178.078 224.468 178.537C224.452 178.95 224.452 179.317 224.452 181.333V183.626ZM214.119 182.433C214.119 182.511 214.149 182.555 214.211 182.601C214.41 182.709 215.097 182.8 215.693 182.8C216.014 182.8 216.381 182.785 216.702 182.572C217.159 182.266 217.511 181.577 217.511 180.584C217.511 178.965 216.626 178.032 215.189 178.032C214.792 178.032 214.364 178.078 214.225 178.109C214.166 178.139 214.119 178.185 214.119 178.262V182.433ZM212.958 181.333C212.958 179.317 212.958 178.95 212.927 178.537C212.897 178.095 212.821 177.88 212.377 177.819C212.269 177.804 212.041 177.787 211.919 177.787C211.873 177.787 211.812 177.728 211.812 177.681C211.812 177.605 211.873 177.574 212.025 177.574C212.636 177.574 213.538 177.605 213.614 177.605C213.753 177.605 214.883 177.574 215.296 177.574C216.152 177.574 217.1 177.65 217.802 178.139C218.137 178.384 218.734 179.01 218.734 179.912C218.734 180.875 218.337 181.807 217.083 182.877C218.184 184.252 219.115 185.43 219.895 186.239C220.614 186.972 221.056 187.095 221.393 187.141C221.653 187.186 221.79 187.186 221.867 187.186C221.944 187.186 221.99 187.247 221.99 187.293C221.99 187.369 221.912 187.401 221.668 187.401H220.827C220.064 187.401 219.727 187.323 219.391 187.141C218.811 186.834 218.322 186.208 217.557 185.23C216.992 184.528 216.396 183.687 216.105 183.335C216.044 183.274 216.014 183.259 215.922 183.259L214.211 183.229C214.149 183.229 214.119 183.259 214.119 183.335V183.64C214.119 184.894 214.119 185.902 214.18 186.437C214.225 186.819 214.303 187.064 214.715 187.125C214.899 187.156 215.189 187.186 215.311 187.186C215.403 187.186 215.418 187.247 215.418 187.293C215.418 187.354 215.357 187.401 215.203 187.401C214.47 187.401 213.614 187.354 213.554 187.354C213.538 187.354 212.636 187.401 212.224 187.401C212.088 187.401 212.01 187.369 212.01 187.293C212.01 187.247 212.041 187.186 212.117 187.186C212.239 187.186 212.408 187.156 212.53 187.125C212.79 187.064 212.821 186.819 212.881 186.437C212.958 185.902 212.958 184.878 212.958 183.626V181.333ZM208.706 175.527C208.782 175.664 208.706 175.709 208.645 175.709C208.599 175.709 208.447 175.679 208.186 175.709C207.438 175.786 206.369 176.138 205.863 176.352C205.758 176.398 205.665 176.428 205.635 176.428C205.604 176.428 205.559 176.398 205.559 176.337C205.559 176.29 205.589 176.261 205.665 176.215C206.215 175.831 207.637 174.975 207.743 174.916C208.004 174.763 208.095 174.716 208.171 174.716C208.218 174.716 208.249 174.747 208.325 174.853C208.431 175.007 208.538 175.22 208.706 175.527ZM204.535 181.333C204.535 179.317 204.535 178.95 204.504 178.537C204.474 178.095 204.396 177.88 203.953 177.819C203.847 177.804 203.618 177.787 203.496 177.787C203.449 177.787 203.388 177.728 203.388 177.681C203.388 177.605 203.449 177.574 203.603 177.574C204.215 177.574 205.085 177.605 205.161 177.605C205.252 177.605 208.064 177.62 208.371 177.605C208.631 177.589 208.875 177.543 208.982 177.528C209.042 177.513 209.104 177.467 209.164 177.467C209.21 177.467 209.227 177.528 209.227 177.589C209.227 177.681 209.149 177.834 209.119 178.2C209.104 178.323 209.073 178.904 209.042 179.056C209.027 179.117 208.982 179.195 208.92 179.195C208.843 179.195 208.814 179.132 208.814 179.026C208.814 178.934 208.798 178.721 208.738 178.567C208.645 178.354 208.508 178.262 207.775 178.17C207.545 178.139 205.986 178.124 205.834 178.124C205.772 178.124 205.758 178.17 205.758 178.262V181.792C205.758 181.884 205.758 181.929 205.834 181.929C206.002 181.929 207.775 181.929 208.08 181.899C208.401 181.868 208.599 181.853 208.738 181.716C208.829 181.623 208.89 181.547 208.936 181.547C208.982 181.547 209.012 181.577 209.012 181.655C209.012 181.731 208.936 181.944 208.905 182.373C208.875 182.633 208.843 183.122 208.843 183.213C208.843 183.32 208.814 183.457 208.721 183.457C208.66 183.457 208.631 183.411 208.631 183.335C208.631 183.213 208.631 183.076 208.569 182.907C208.523 182.723 208.401 182.572 207.882 182.511C207.515 182.464 206.078 182.449 205.848 182.449C205.772 182.449 205.758 182.495 205.758 182.54V183.626C205.758 184.069 205.741 185.582 205.758 185.841C205.787 186.712 206.032 186.88 207.362 186.88C207.714 186.88 208.355 186.88 208.706 186.743C209.058 186.59 209.241 186.361 209.318 185.841C209.349 185.689 209.379 185.643 209.455 185.643C209.531 185.643 209.547 185.75 209.547 185.841C209.547 185.933 209.44 186.819 209.364 187.095C209.272 187.43 209.134 187.43 208.615 187.43C207.606 187.43 206.826 187.401 206.277 187.386C205.711 187.354 205.36 187.354 205.161 187.354C205.13 187.354 204.87 187.354 204.581 187.369C204.321 187.386 204.015 187.401 203.801 187.401C203.663 187.401 203.587 187.369 203.587 187.293C203.587 187.247 203.618 187.186 203.694 187.186C203.817 187.186 203.985 187.141 204.107 187.125C204.366 187.078 204.396 186.819 204.459 186.437C204.535 185.902 204.535 184.878 204.535 183.626V181.333ZM198.145 183.626C198.145 184.878 198.145 185.902 198.206 186.437C198.251 186.819 198.314 187.064 198.725 187.125C198.908 187.156 199.214 187.186 199.337 187.186C199.429 187.186 199.444 187.247 199.444 187.293C199.444 187.354 199.383 187.401 199.229 187.401C198.496 187.401 197.64 187.354 197.564 187.354C197.503 187.354 196.571 187.401 196.173 187.401C196.021 187.401 195.96 187.369 195.96 187.293C195.96 187.247 195.991 187.201 196.067 187.201C196.189 187.201 196.342 187.171 196.464 187.141C196.739 187.078 196.816 186.819 196.862 186.437C196.923 185.902 196.923 184.878 196.923 183.626V178.17L194.982 178.2C194.141 178.217 193.82 178.307 193.622 178.613C193.468 178.843 193.453 178.934 193.407 179.026C193.378 179.132 193.331 179.148 193.27 179.148C193.239 179.148 193.179 179.117 193.179 179.041C193.179 178.904 193.453 177.742 193.468 177.635C193.5 177.559 193.561 177.391 193.606 177.391C193.698 177.391 193.835 177.498 194.202 177.543C194.584 177.589 195.104 177.605 195.258 177.605H200.329C200.774 177.605 201.079 177.574 201.293 177.543C201.492 177.513 201.614 177.483 201.674 177.483C201.737 177.483 201.737 177.559 201.737 177.635C201.737 178.032 201.691 178.965 201.691 179.117C201.691 179.224 201.63 179.285 201.568 179.285C201.507 179.285 201.476 179.24 201.461 179.056L201.446 178.919C201.4 178.521 201.109 178.232 199.825 178.2L198.145 178.17V183.626ZM189.737 186.789C191.158 186.789 191.525 186.56 191.83 186.193C191.968 186.024 192.06 185.674 192.105 185.489C192.136 185.367 192.182 185.291 192.258 185.291C192.334 185.291 192.364 185.337 192.364 185.582C192.364 185.994 192.182 186.758 192.09 187.078C192.014 187.401 191.997 187.415 191.693 187.415C189.447 187.415 187.169 187.354 184.816 187.354C184.663 187.354 184.572 187.339 184.572 187.247C184.572 187.186 184.586 187.095 184.755 186.85C186.772 183.931 188.759 181.043 190.608 178.154H187.765C187.077 178.154 186.283 178.139 185.855 178.369C185.381 178.613 185.136 179.087 185.091 179.393C185.06 179.591 184.984 179.621 184.907 179.621C184.846 179.621 184.831 179.561 184.831 179.454C184.831 179.301 185.03 178.124 185.107 177.728C185.121 177.543 185.152 177.483 185.229 177.483C185.351 177.483 185.442 177.559 185.794 177.574C187.077 177.62 187.719 177.605 188.147 177.605H191.906C192.105 177.605 192.182 177.635 192.182 177.711C192.182 177.772 192.166 177.865 192.105 177.941C190.149 180.936 188.193 183.84 186.16 186.789H189.737ZM176.76 187.217C176.576 187.125 176.561 187.078 176.561 186.728C176.561 186.086 176.622 185.567 176.637 185.352C176.637 185.215 176.668 185.139 176.744 185.139C176.821 185.139 176.867 185.185 176.867 185.291C176.867 185.398 176.867 185.582 176.913 185.765C177.126 186.712 178.135 187.049 179.037 187.049C180.366 187.049 181.054 186.3 181.054 185.322C181.054 184.389 180.549 183.946 179.358 183.06L178.747 182.601C177.295 181.517 176.821 180.721 176.821 179.821C176.821 178.293 178.028 177.376 179.801 177.376C180.336 177.376 180.87 177.452 181.192 177.528C181.451 177.589 181.558 177.589 181.665 177.589C181.772 177.589 181.803 177.605 181.803 177.681C181.803 177.742 181.742 178.17 181.742 179.056C181.742 179.254 181.726 179.347 181.634 179.347C181.543 179.347 181.527 179.285 181.512 179.179C181.497 179.026 181.39 178.675 181.314 178.537C181.221 178.384 180.779 177.895 179.571 177.895C178.593 177.895 177.783 178.384 177.783 179.301C177.783 180.126 178.197 180.599 179.526 181.501L179.908 181.762C181.543 182.877 182.109 183.778 182.109 184.894C182.109 185.658 181.818 186.484 180.855 187.11C180.29 187.476 179.449 187.568 178.716 187.568C178.089 187.568 177.309 187.476 176.76 187.217ZM173.167 183.626C173.167 184.878 173.167 185.902 173.228 186.437C173.274 186.819 173.32 187.064 173.717 187.125C173.916 187.156 174.206 187.186 174.328 187.186C174.405 187.186 174.435 187.247 174.435 187.293C174.435 187.354 174.374 187.401 174.221 187.401C173.472 187.401 172.601 187.354 172.54 187.354C172.464 187.354 171.623 187.401 171.211 187.401C171.073 187.401 170.997 187.369 170.997 187.293C170.997 187.247 171.027 187.186 171.104 187.186C171.226 187.186 171.394 187.156 171.516 187.125C171.776 187.064 171.822 186.819 171.868 186.437C171.929 185.902 171.944 184.878 171.944 183.626V181.333C171.944 179.317 171.944 178.95 171.914 178.537C171.883 178.095 171.776 177.895 171.486 177.834C171.333 177.804 171.165 177.787 171.073 177.787C171.012 177.787 170.966 177.728 170.966 177.681C170.966 177.605 171.027 177.574 171.181 177.574C171.623 177.574 172.464 177.605 172.54 177.605C172.601 177.605 173.472 177.574 173.885 177.574C174.038 177.574 174.099 177.605 174.099 177.681C174.099 177.728 174.038 177.787 173.992 177.787C173.9 177.787 173.809 177.787 173.655 177.819C173.289 177.895 173.213 178.078 173.182 178.537C173.167 178.95 173.167 179.317 173.167 181.333V183.626ZM160.067 185.628C160.097 186.697 160.219 187.019 160.586 187.11C160.831 187.171 161.136 187.186 161.259 187.186C161.32 187.186 161.365 187.232 161.365 187.293C161.365 187.369 161.274 187.401 161.121 187.401C160.357 187.401 159.822 187.354 159.7 187.354C159.577 187.354 159.012 187.401 158.401 187.401C158.263 187.401 158.187 187.386 158.187 187.293C158.187 187.232 158.233 187.186 158.294 187.186C158.401 187.186 158.646 187.171 158.844 187.11C159.18 187.019 159.226 186.667 159.226 185.489V178.048C159.226 177.528 159.302 177.391 159.409 177.391C159.563 177.391 159.792 177.65 159.929 177.787C160.143 178.002 162.099 180.08 164.177 182.22C165.507 183.596 166.943 185.139 167.356 185.567L167.218 179.056C167.203 178.217 167.127 177.926 166.715 177.85C166.47 177.804 166.164 177.787 166.057 177.787C165.965 177.787 165.949 177.711 165.949 177.665C165.949 177.589 166.057 177.574 166.21 177.574C166.821 177.574 167.463 177.605 167.615 177.605C167.768 177.605 168.211 177.574 168.761 177.574C168.899 177.574 169.006 177.589 169.006 177.665C169.006 177.711 168.945 177.787 168.854 177.787C168.793 177.787 168.685 177.787 168.532 177.819C168.089 177.909 168.059 178.17 168.059 178.95L168.028 186.56C168.028 187.415 168.013 187.492 167.921 187.492C167.783 187.492 167.646 187.386 166.898 186.697C166.76 186.575 164.82 184.665 163.398 183.183C161.839 181.547 160.326 179.958 159.914 179.499L160.067 185.628ZM155.068 183.626C155.068 184.878 155.068 185.902 155.129 186.437C155.175 186.819 155.221 187.064 155.618 187.125C155.817 187.156 156.107 187.186 156.229 187.186C156.306 187.186 156.337 187.247 156.337 187.293C156.337 187.354 156.276 187.401 156.123 187.401C155.373 187.401 154.503 187.354 154.442 187.354C154.365 187.354 153.525 187.401 153.112 187.401C152.975 187.401 152.899 187.369 152.899 187.293C152.899 187.247 152.928 187.186 153.005 187.186C153.128 187.186 153.295 187.156 153.418 187.125C153.677 187.064 153.723 186.819 153.769 186.437C153.83 185.902 153.845 184.878 153.845 183.626V181.333C153.845 179.317 153.845 178.95 153.816 178.537C153.784 178.095 153.677 177.895 153.387 177.834C153.234 177.804 153.066 177.787 152.975 177.787C152.913 177.787 152.867 177.728 152.867 177.681C152.867 177.605 152.928 177.574 153.082 177.574C153.525 177.574 154.365 177.605 154.442 177.605C154.503 177.605 155.373 177.574 155.786 177.574C155.939 177.574 156 177.605 156 177.681C156 177.728 155.939 177.787 155.894 177.787C155.801 177.787 155.71 177.787 155.557 177.819C155.19 177.895 155.114 178.078 155.084 178.537C155.068 178.95 155.068 179.317 155.068 181.333V183.626ZM149.516 185.43C149.577 185.978 149.683 186.834 150.341 187.049C150.783 187.186 151.182 187.186 151.334 187.186C151.41 187.186 151.456 187.201 151.456 187.263C151.456 187.354 151.319 187.401 151.135 187.401C150.799 187.401 149.149 187.354 148.583 187.308C148.232 187.278 148.155 187.232 148.155 187.156C148.155 187.095 148.186 187.064 148.262 187.049C148.339 187.034 148.354 186.774 148.323 186.498L147.59 178.613H147.544L143.8 186.56C143.48 187.232 143.434 187.369 143.297 187.369C143.189 187.369 143.113 187.217 142.822 186.667C142.425 185.918 141.111 183.274 141.035 183.122C140.897 182.846 139.185 179.179 139.018 178.765H138.956L138.345 185.856C138.33 186.1 138.33 186.376 138.33 186.636C138.33 186.865 138.497 187.064 138.727 187.11C138.987 187.171 139.216 187.186 139.308 187.186C139.369 187.186 139.43 187.217 139.43 187.263C139.43 187.369 139.338 187.401 139.155 187.401C138.59 187.401 137.856 187.354 137.734 187.354C137.596 187.354 136.862 187.401 136.45 187.401C136.297 187.401 136.19 187.369 136.19 187.263C136.19 187.217 136.267 187.186 136.343 187.186C136.465 187.186 136.572 187.186 136.801 187.141C137.306 187.049 137.352 186.452 137.413 185.872L138.513 175.909C138.529 175.741 138.59 175.633 138.681 175.633C138.773 175.633 138.834 175.694 138.91 175.863L143.587 185.474L148.079 175.878C148.14 175.741 148.201 175.633 148.309 175.633C148.415 175.633 148.461 175.755 148.492 176.046L149.516 185.43ZM311.632 165.281C311.632 166.535 311.632 167.557 311.693 168.093C311.739 168.474 311.783 168.719 312.181 168.78C312.38 168.811 312.671 168.841 312.793 168.841C312.869 168.841 312.899 168.903 312.899 168.949C312.899 169.01 312.839 169.056 312.686 169.056C311.937 169.056 311.065 169.01 311.005 169.01C310.928 169.01 310.087 169.056 309.676 169.056C309.538 169.056 309.461 169.025 309.461 168.949C309.461 168.903 309.492 168.841 309.568 168.841C309.69 168.841 309.859 168.811 309.981 168.78C310.24 168.719 310.287 168.474 310.331 168.093C310.394 167.557 310.409 166.535 310.409 165.281V162.99C310.409 160.971 310.409 160.604 310.378 160.193C310.348 159.748 310.24 159.55 309.95 159.489C309.798 159.459 309.629 159.444 309.538 159.444C309.476 159.444 309.431 159.382 309.431 159.337C309.431 159.26 309.492 159.23 309.644 159.23C310.087 159.23 310.928 159.26 311.005 159.26C311.065 159.26 311.937 159.23 312.35 159.23C312.502 159.23 312.563 159.26 312.563 159.337C312.563 159.382 312.502 159.444 312.456 159.444C312.365 159.444 312.273 159.444 312.12 159.474C311.754 159.55 311.677 159.734 311.646 160.193C311.632 160.604 311.632 160.971 311.632 162.99V165.281ZM304.415 164.899C304.476 164.899 304.476 164.868 304.461 164.807L303.131 161.247C303.053 161.049 302.977 161.049 302.901 161.247L301.649 164.807C301.633 164.868 301.649 164.899 301.694 164.899H304.415ZM302.916 159.489C303.085 159.061 303.146 158.985 303.238 158.985C303.375 158.985 303.42 159.168 303.559 159.459C303.803 160.009 305.958 165.372 306.783 167.345C307.273 168.506 307.639 168.673 307.928 168.765C308.128 168.826 308.326 168.841 308.464 168.841C308.54 168.841 308.632 168.872 308.632 168.949C308.632 169.025 308.479 169.056 308.326 169.056C308.128 169.056 307.134 169.056 306.202 169.025C305.943 169.01 305.728 169.01 305.728 168.934C305.728 168.872 305.76 168.872 305.821 168.841C305.897 168.811 306.034 168.704 305.943 168.491L304.735 165.511C304.705 165.45 304.689 165.434 304.613 165.434H301.51C301.449 165.434 301.405 165.465 301.373 165.54L300.609 167.619C300.486 167.939 300.41 168.262 300.41 168.491C300.41 168.75 300.64 168.841 300.869 168.841H300.991C301.097 168.841 301.129 168.888 301.129 168.949C301.129 169.025 301.052 169.056 300.93 169.056C300.609 169.056 299.875 169.01 299.723 169.01C299.586 169.01 298.913 169.056 298.363 169.056C298.195 169.056 298.104 169.025 298.104 168.949C298.104 168.888 298.163 168.841 298.226 168.841C298.317 168.841 298.515 168.826 298.622 168.811C299.234 168.735 299.493 168.276 299.753 167.619L302.916 159.489ZM296.146 165.281C296.146 166.535 296.146 167.557 296.207 168.093C296.254 168.474 296.299 168.719 296.697 168.78C296.895 168.811 297.185 168.841 297.308 168.841C297.384 168.841 297.414 168.903 297.414 168.949C297.414 169.01 297.354 169.056 297.2 169.056C296.452 169.056 295.58 169.01 295.52 169.01C295.443 169.01 294.602 169.056 294.19 169.056C294.053 169.056 293.976 169.025 293.976 168.949C293.976 168.903 294.007 168.841 294.083 168.841C294.205 168.841 294.374 168.811 294.496 168.78C294.755 168.719 294.801 168.474 294.846 168.093C294.909 167.557 294.924 166.535 294.924 165.281V162.99C294.924 160.971 294.924 160.604 294.892 160.193C294.863 159.748 294.755 159.55 294.465 159.489C294.312 159.459 294.144 159.444 294.053 159.444C293.99 159.444 293.946 159.382 293.946 159.337C293.946 159.26 294.007 159.23 294.159 159.23C294.602 159.23 295.443 159.26 295.52 159.26C295.58 159.26 296.452 159.23 296.865 159.23C297.017 159.23 297.078 159.26 297.078 159.337C297.078 159.382 297.017 159.444 296.971 159.444C296.88 159.444 296.787 159.444 296.635 159.474C296.268 159.55 296.191 159.734 296.161 160.193C296.146 160.604 296.146 160.971 296.146 162.99V165.281ZM289.647 165.739C289.647 164.685 289.616 164.533 289.067 164.425C288.959 164.41 288.73 164.394 288.607 164.394C288.563 164.394 288.5 164.334 288.5 164.288C288.5 164.196 288.563 164.181 288.715 164.181C289.326 164.181 290.228 164.212 290.304 164.212C290.365 164.212 291.206 164.181 291.619 164.181C291.771 164.181 291.832 164.196 291.832 164.288C291.832 164.334 291.771 164.394 291.725 164.394C291.634 164.394 291.541 164.394 291.389 164.425C291.023 164.487 290.915 164.685 290.885 165.144C290.869 165.557 290.869 165.938 290.869 166.489V167.939C290.869 168.535 290.854 168.551 290.686 168.643C289.83 169.086 288.607 169.224 287.829 169.224C286.805 169.224 284.895 169.102 283.397 167.833C282.572 167.146 281.793 165.755 281.793 164.135C281.793 162.056 282.846 160.589 284.039 159.871C285.245 159.137 286.59 159.046 287.614 159.046C288.47 159.046 289.418 159.2 289.678 159.26C289.952 159.322 290.426 159.398 290.763 159.398C290.9 159.398 290.93 159.459 290.93 159.52C290.93 159.704 290.854 160.055 290.854 161.354C290.854 161.567 290.793 161.628 290.7 161.628C290.625 161.628 290.61 161.553 290.61 161.43C290.594 161.262 290.519 160.88 290.304 160.575C289.967 160.085 288.944 159.567 287.201 159.567C286.392 159.567 285.414 159.626 284.39 160.406C283.61 161.002 283.061 162.164 283.061 163.677C283.061 165.511 284.008 166.824 284.482 167.268C285.551 168.262 286.683 168.628 287.92 168.628C288.394 168.628 289.02 168.582 289.372 168.384C289.541 168.291 289.647 168.23 289.647 167.986V165.739ZM277.112 157.181C277.188 157.32 277.112 157.366 277.051 157.366C277.006 157.366 276.852 157.335 276.593 157.366C275.843 157.442 274.774 157.792 274.27 158.007C274.163 158.054 274.072 158.083 274.04 158.083C274.009 158.083 273.965 158.054 273.965 157.992C273.965 157.946 273.994 157.915 274.072 157.87C274.62 157.488 276.043 156.633 276.15 156.57C276.409 156.418 276.5 156.372 276.576 156.372C276.623 156.372 276.654 156.403 276.73 156.51C276.837 156.662 276.943 156.877 277.112 157.181ZM275.08 168.689C276.287 168.689 278.717 168.047 278.717 164.288C278.717 161.171 276.821 159.535 274.698 159.535C272.451 159.535 270.831 160.941 270.831 163.768C270.831 166.794 272.65 168.689 275.08 168.689ZM274.774 159.046C277.799 159.046 280.092 160.895 280.092 163.921C280.092 166.824 277.938 169.224 274.698 169.224C271.015 169.224 269.441 166.457 269.441 164.119C269.441 162.027 271.06 159.046 274.774 159.046ZM264.335 165.312C264.335 167.222 264.365 168.002 264.61 168.23C264.824 168.445 265.343 168.535 266.397 168.535C267.101 168.535 267.697 168.521 268.017 168.139C268.186 167.939 268.293 167.665 268.338 167.406C268.353 167.313 268.399 167.237 268.475 167.237C268.538 167.237 268.568 167.298 268.568 167.435C268.568 167.573 268.475 168.352 268.369 168.735C268.277 169.04 268.231 169.086 267.513 169.086C266.551 169.086 265.802 169.071 265.175 169.04C264.563 169.025 264.106 169.01 263.707 169.01C263.648 169.01 263.418 169.01 263.159 169.025C262.883 169.04 262.592 169.056 262.379 169.056C262.24 169.056 262.164 169.025 262.164 168.949C262.164 168.903 262.196 168.841 262.272 168.841C262.394 168.841 262.562 168.811 262.685 168.78C262.944 168.719 262.974 168.474 263.036 168.093C263.113 167.557 263.113 166.535 263.113 165.281V162.99C263.113 160.971 263.113 160.604 263.081 160.193C263.051 159.748 262.974 159.535 262.531 159.474C262.425 159.459 262.196 159.444 262.073 159.444C262.027 159.444 261.966 159.382 261.966 159.337C261.966 159.26 262.027 159.23 262.181 159.23C262.792 159.23 263.632 159.26 263.707 159.26C263.77 159.26 264.778 159.23 265.191 159.23C265.328 159.23 265.404 159.26 265.404 159.337C265.404 159.382 265.343 159.428 265.297 159.428C265.206 159.428 265.008 159.444 264.854 159.459C264.457 159.535 264.381 159.734 264.35 160.193C264.335 160.604 264.335 160.971 264.335 162.99V165.312ZM255.284 168.689C256.492 168.689 258.921 168.047 258.921 164.288C258.921 161.171 257.027 159.535 254.903 159.535C252.656 159.535 251.037 160.941 251.037 163.768C251.037 166.794 252.854 168.689 255.284 168.689ZM254.979 159.046C258.005 159.046 260.297 160.895 260.297 163.921C260.297 166.824 258.142 169.224 254.903 169.224C251.219 169.224 249.646 166.457 249.646 164.119C249.646 162.027 251.265 159.046 254.979 159.046ZM239.204 167.284C239.236 168.352 239.358 168.673 239.724 168.765C239.969 168.826 240.273 168.841 240.395 168.841C240.458 168.841 240.503 168.888 240.503 168.949C240.503 169.025 240.412 169.056 240.258 169.056C239.495 169.056 238.96 169.01 238.838 169.01C238.715 169.01 238.15 169.056 237.539 169.056C237.402 169.056 237.324 169.04 237.324 168.949C237.324 168.888 237.37 168.841 237.431 168.841C237.539 168.841 237.783 168.826 237.982 168.765C238.317 168.673 238.363 168.323 238.363 167.146V159.704C238.363 159.183 238.439 159.046 238.547 159.046C238.7 159.046 238.928 159.305 239.067 159.444C239.28 159.658 241.236 161.736 243.315 163.875C244.644 165.25 246.081 166.794 246.493 167.222L246.356 160.712C246.341 159.871 246.263 159.581 245.852 159.504C245.608 159.459 245.302 159.444 245.195 159.444C245.103 159.444 245.087 159.367 245.087 159.322C245.087 159.244 245.195 159.23 245.348 159.23C245.959 159.23 246.6 159.26 246.753 159.26C246.906 159.26 247.349 159.23 247.899 159.23C248.037 159.23 248.143 159.244 248.143 159.322C248.143 159.367 248.082 159.444 247.991 159.444C247.93 159.444 247.823 159.444 247.671 159.474C247.227 159.567 247.197 159.826 247.197 160.604L247.165 168.215C247.165 169.071 247.151 169.147 247.059 169.147C246.921 169.147 246.784 169.04 246.035 168.352C245.897 168.23 243.957 166.32 242.536 164.838C240.977 163.203 239.464 161.614 239.051 161.156L239.204 167.284ZM234.188 165.281C234.188 166.535 234.203 167.557 234.264 168.093C234.31 168.474 234.34 168.719 234.753 168.78C234.936 168.811 235.242 168.841 235.349 168.841C235.44 168.841 235.471 168.903 235.471 168.949C235.471 169.01 235.395 169.056 235.242 169.056C234.509 169.056 233.653 169.01 233.576 169.01C233.515 169.01 232.645 169.056 232.247 169.056C232.094 169.056 232.033 169.025 232.033 168.949C232.033 168.903 232.063 168.841 232.139 168.841C232.261 168.841 232.415 168.811 232.537 168.78C232.813 168.719 232.858 168.46 232.904 168.078C232.965 167.543 232.965 166.565 232.965 165.312V164.013C232.965 163.951 232.935 163.936 232.889 163.936H227.28C227.235 163.936 227.204 163.951 227.204 164.013V165.312C227.204 166.565 227.204 167.557 227.266 168.093C227.312 168.474 227.357 168.719 227.755 168.78C227.953 168.811 228.243 168.841 228.366 168.841C228.442 168.841 228.472 168.903 228.472 168.949C228.472 169.01 228.412 169.056 228.259 169.056C227.51 169.056 226.655 169.01 226.593 169.01C226.516 169.01 225.66 169.056 225.248 169.056C225.111 169.056 225.034 169.025 225.034 168.949C225.034 168.903 225.065 168.841 225.141 168.841C225.263 168.841 225.432 168.811 225.554 168.78C225.814 168.719 225.845 168.474 225.905 168.093C225.982 167.557 225.982 166.535 225.982 165.281V162.99C225.982 160.971 225.982 160.604 225.951 160.193C225.921 159.748 225.845 159.535 225.401 159.474C225.293 159.459 225.065 159.444 224.943 159.444C224.897 159.444 224.836 159.382 224.836 159.337C224.836 159.26 224.897 159.23 225.049 159.23C225.66 159.23 226.516 159.26 226.593 159.26C226.655 159.26 227.51 159.23 227.923 159.23C228.075 159.23 228.136 159.26 228.136 159.337C228.136 159.382 228.075 159.444 228.029 159.444C227.938 159.444 227.845 159.444 227.694 159.474C227.327 159.55 227.249 159.734 227.219 160.193C227.204 160.604 227.204 161.002 227.204 163.019V163.294C227.204 163.371 227.235 163.371 227.28 163.371H232.889C232.935 163.371 232.965 163.371 232.965 163.294V163.019C232.965 161.002 232.95 160.604 232.935 160.193C232.904 159.748 232.843 159.535 232.4 159.474C232.293 159.459 232.063 159.444 231.941 159.444C231.88 159.444 231.835 159.382 231.835 159.337C231.835 159.26 231.895 159.23 232.049 159.23C232.645 159.23 233.515 159.26 233.576 159.26C233.653 159.26 234.509 159.23 234.906 159.23C235.058 159.23 235.136 159.26 235.136 159.337C235.136 159.382 235.073 159.444 235.013 159.444C234.921 159.444 234.845 159.444 234.677 159.474C234.325 159.55 234.249 159.734 234.218 160.193C234.188 160.604 234.188 160.971 234.188 162.99V165.281ZM215.266 167.833C213.951 166.702 213.631 165.22 213.631 163.983C213.631 163.112 213.951 161.598 215.144 160.437C215.953 159.658 217.176 159.046 219.238 159.046C219.773 159.046 220.538 159.093 221.194 159.2C221.699 159.291 222.127 159.382 222.57 159.398C222.707 159.398 222.738 159.459 222.738 159.535C222.738 159.642 222.707 159.795 222.677 160.269C222.661 160.697 222.661 161.415 222.646 161.598C222.631 161.797 222.57 161.873 222.494 161.873C222.402 161.873 222.386 161.782 222.386 161.598C222.386 161.093 222.172 160.575 221.822 160.3C221.347 159.902 220.369 159.581 219.178 159.581C217.45 159.581 216.626 160.039 216.152 160.482C215.158 161.4 214.944 162.56 214.944 163.875C214.944 166.367 216.915 168.582 219.789 168.582C220.797 168.582 221.469 168.506 222.005 167.971C222.294 167.68 222.479 167.13 222.524 166.885C222.555 166.748 222.57 166.702 222.661 166.702C222.723 166.702 222.783 166.794 222.783 166.885C222.783 166.978 222.601 168.108 222.463 168.551C222.386 168.795 222.357 168.841 222.127 168.934C221.577 169.147 220.568 169.224 219.697 169.224C217.68 169.224 216.32 168.75 215.266 167.833ZM206.737 162.99C206.737 160.971 206.737 160.604 206.706 160.193C206.676 159.748 206.6 159.535 206.155 159.474C206.048 159.459 205.82 159.444 205.697 159.444C205.652 159.444 205.591 159.382 205.591 159.337C205.591 159.26 205.652 159.23 205.803 159.23C206.415 159.23 207.287 159.26 207.363 159.26C207.455 159.26 210.267 159.276 210.572 159.26C210.832 159.244 211.077 159.2 211.183 159.183C211.245 159.168 211.305 159.122 211.367 159.122C211.412 159.122 211.427 159.183 211.427 159.244C211.427 159.337 211.351 159.489 211.322 159.856C211.305 159.978 211.275 160.559 211.245 160.712C211.229 160.773 211.183 160.849 211.123 160.849C211.046 160.849 211.016 160.789 211.016 160.681C211.016 160.589 211.001 160.376 210.938 160.222C210.847 160.009 210.71 159.917 209.976 159.826C209.747 159.795 208.189 159.78 208.035 159.78C207.974 159.78 207.959 159.826 207.959 159.917V163.447C207.959 163.538 207.959 163.584 208.035 163.584C208.204 163.584 209.976 163.584 210.282 163.554C210.603 163.523 210.801 163.509 210.938 163.371C211.03 163.279 211.092 163.203 211.138 163.203C211.183 163.203 211.214 163.234 211.214 163.31C211.214 163.386 211.138 163.601 211.107 164.027C211.077 164.288 211.046 164.777 211.046 164.868C211.046 164.975 211.016 165.113 210.923 165.113C210.862 165.113 210.832 165.068 210.832 164.991C210.832 164.868 210.832 164.731 210.771 164.562C210.725 164.379 210.603 164.227 210.082 164.166C209.716 164.119 208.28 164.105 208.051 164.105C207.974 164.105 207.959 164.15 207.959 164.196V165.281C207.959 165.724 207.945 167.237 207.959 167.496C207.989 168.368 208.234 168.535 209.564 168.535C209.915 168.535 210.556 168.535 210.908 168.398C211.26 168.246 211.444 168.017 211.52 167.496C211.55 167.345 211.581 167.298 211.657 167.298C211.734 167.298 211.749 167.406 211.749 167.496C211.749 167.589 211.642 168.474 211.566 168.75C211.473 169.086 211.336 169.086 210.816 169.086C209.808 169.086 209.029 169.056 208.478 169.04C207.913 169.01 207.561 169.01 207.363 169.01C207.333 169.01 207.072 169.01 206.781 169.025C206.522 169.04 206.217 169.056 206.003 169.056C205.866 169.056 205.789 169.025 205.789 168.949C205.789 168.903 205.82 168.841 205.896 168.841C206.018 168.841 206.187 168.795 206.309 168.78C206.569 168.735 206.6 168.474 206.659 168.093C206.737 167.557 206.737 166.535 206.737 165.281V162.99ZM200.085 164.624C200.085 166.091 200.085 167.298 200.161 167.939C200.207 168.384 200.298 168.719 200.758 168.78C200.97 168.811 201.307 168.841 201.445 168.841C201.536 168.841 201.567 168.888 201.567 168.934C201.567 169.01 201.491 169.056 201.322 169.056C200.482 169.056 199.52 169.01 199.443 169.01C199.366 169.01 198.404 169.056 197.946 169.056C197.777 169.056 197.701 169.025 197.701 168.934C197.701 168.888 197.731 168.841 197.823 168.841C197.961 168.841 198.144 168.811 198.281 168.78C198.587 168.719 198.664 168.384 198.724 167.939C198.801 167.298 198.801 166.091 198.801 164.624V158.159L196.54 158.19C195.592 158.205 195.225 158.313 194.98 158.679C194.812 158.939 194.767 159.046 194.721 159.154C194.675 159.276 194.63 159.305 194.568 159.305C194.523 159.305 194.491 159.26 194.491 159.168C194.491 159.015 194.797 157.701 194.828 157.579C194.858 157.488 194.919 157.288 194.98 157.288C195.088 157.288 195.241 157.442 195.653 157.472C196.097 157.518 196.677 157.548 196.86 157.548H202.591C203.08 157.548 203.432 157.518 203.676 157.472C203.905 157.442 204.043 157.396 204.103 157.396C204.18 157.396 204.18 157.488 204.18 157.579C204.18 158.037 204.134 159.093 204.134 159.26C204.134 159.398 204.088 159.459 204.027 159.459C203.951 159.459 203.921 159.413 203.905 159.2L203.89 159.031C203.843 158.572 203.477 158.221 202.01 158.19L200.085 158.159V164.624ZM182.369 168.872C182.186 168.78 182.171 168.735 182.171 168.384C182.171 167.741 182.232 167.222 182.247 167.008C182.247 166.87 182.279 166.794 182.354 166.794C182.43 166.794 182.477 166.839 182.477 166.947C182.477 167.054 182.477 167.237 182.523 167.421C182.736 168.368 183.745 168.704 184.647 168.704C185.976 168.704 186.664 167.956 186.664 166.978C186.664 166.046 186.159 165.602 184.968 164.716L184.357 164.257C182.905 163.172 182.43 162.378 182.43 161.476C182.43 159.948 183.638 159.031 185.411 159.031C185.946 159.031 186.48 159.107 186.801 159.183C187.061 159.244 187.169 159.244 187.275 159.244C187.382 159.244 187.413 159.26 187.413 159.337C187.413 159.398 187.352 159.826 187.352 160.712C187.352 160.911 187.336 161.002 187.244 161.002C187.153 161.002 187.137 160.941 187.122 160.834C187.107 160.681 187 160.33 186.924 160.193C186.832 160.039 186.389 159.55 185.181 159.55C184.203 159.55 183.394 160.039 183.394 160.956C183.394 161.782 183.806 162.256 185.135 163.157L185.518 163.416C187.153 164.533 187.718 165.434 187.718 166.55C187.718 167.313 187.428 168.139 186.465 168.765C185.9 169.132 185.059 169.224 184.325 169.224C183.699 169.224 182.92 169.132 182.369 168.872ZM179.25 157.181C179.327 157.32 179.25 157.366 179.189 157.366C179.143 157.366 178.99 157.335 178.73 157.366C177.982 157.442 176.911 157.792 176.407 158.007C176.3 158.054 176.209 158.083 176.178 158.083C176.148 158.083 176.102 158.054 176.102 157.992C176.102 157.946 176.133 157.915 176.209 157.87C176.76 157.488 178.18 156.633 178.287 156.57C178.547 156.418 178.639 156.372 178.716 156.372C178.761 156.372 178.792 156.403 178.867 156.51C178.975 156.662 179.082 156.877 179.25 157.181ZM175.078 162.99C175.078 160.971 175.078 160.604 175.048 160.193C175.017 159.748 174.941 159.535 174.498 159.474C174.39 159.459 174.161 159.444 174.039 159.444C173.993 159.444 173.932 159.382 173.932 159.337C173.932 159.26 173.993 159.23 174.146 159.23C174.757 159.23 175.628 159.26 175.705 159.26C175.796 159.26 178.608 159.276 178.914 159.26C179.173 159.244 179.418 159.2 179.525 159.183C179.586 159.168 179.647 159.122 179.708 159.122C179.755 159.122 179.769 159.183 179.769 159.244C179.769 159.337 179.694 159.489 179.662 159.856C179.647 159.978 179.617 160.559 179.586 160.712C179.571 160.773 179.525 160.849 179.464 160.849C179.388 160.849 179.357 160.789 179.357 160.681C179.357 160.589 179.342 160.376 179.28 160.222C179.189 160.009 179.051 159.917 178.318 159.826C178.089 159.795 176.53 159.78 176.377 159.78C176.316 159.78 176.3 159.826 176.3 159.917V163.447C176.3 163.538 176.3 163.584 176.377 163.584C176.545 163.584 178.318 163.584 178.623 163.554C178.944 163.523 179.143 163.509 179.28 163.371C179.372 163.279 179.433 163.203 179.479 163.203C179.525 163.203 179.555 163.234 179.555 163.31C179.555 163.386 179.479 163.601 179.449 164.027C179.418 164.288 179.388 164.777 179.388 164.868C179.388 164.975 179.357 165.113 179.265 165.113C179.204 165.113 179.173 165.068 179.173 164.991C179.173 164.868 179.173 164.731 179.112 164.562C179.067 164.379 178.944 164.227 178.425 164.166C178.058 164.119 176.621 164.105 176.393 164.105C176.316 164.105 176.3 164.15 176.3 164.196V165.281C176.3 165.724 176.285 167.237 176.3 167.496C176.331 168.368 176.576 168.535 177.905 168.535C178.256 168.535 178.899 168.535 179.25 168.398C179.601 168.246 179.784 168.017 179.861 167.496C179.892 167.345 179.922 167.298 179.999 167.298C180.075 167.298 180.09 167.406 180.09 167.496C180.09 167.589 179.984 168.474 179.906 168.75C179.816 169.086 179.678 169.086 179.158 169.086C178.15 169.086 177.371 169.056 176.821 169.04C176.255 169.01 175.904 169.01 175.705 169.01C175.674 169.01 175.415 169.01 175.124 169.025C174.864 169.04 174.559 169.056 174.344 169.056C174.207 169.056 174.131 169.025 174.131 168.949C174.131 168.903 174.161 168.841 174.238 168.841C174.36 168.841 174.528 168.795 174.65 168.78C174.91 168.735 174.941 168.474 175.002 168.093C175.078 167.557 175.078 166.535 175.078 165.281V162.99ZM160.968 168.872C160.785 168.78 160.77 168.735 160.77 168.384C160.77 167.741 160.831 167.222 160.846 167.008C160.846 166.87 160.878 166.794 160.954 166.794C161.03 166.794 161.076 166.839 161.076 166.947C161.076 167.054 161.076 167.237 161.122 167.421C161.335 168.368 162.344 168.704 163.246 168.704C164.575 168.704 165.263 167.956 165.263 166.978C165.263 166.046 164.759 165.602 163.567 164.716L162.956 164.257C161.504 163.172 161.03 162.378 161.03 161.476C161.03 159.948 162.237 159.031 164.01 159.031C164.545 159.031 165.08 159.107 165.401 159.183C165.66 159.244 165.768 159.244 165.874 159.244C165.981 159.244 166.012 159.26 166.012 159.337C166.012 159.398 165.951 159.826 165.951 160.712C165.951 160.911 165.935 161.002 165.843 161.002C165.752 161.002 165.737 160.941 165.721 160.834C165.706 160.681 165.599 160.33 165.523 160.193C165.431 160.039 164.988 159.55 163.78 159.55C162.802 159.55 161.993 160.039 161.993 160.956C161.993 161.782 162.405 162.256 163.735 163.157L164.117 163.416C165.752 164.533 166.318 165.434 166.318 166.55C166.318 167.313 166.027 168.139 165.064 168.765C164.499 169.132 163.658 169.224 162.925 169.224C162.299 169.224 161.519 169.132 160.968 168.872ZM155.891 157.181C155.968 157.32 155.891 157.366 155.83 157.366C155.784 157.366 155.632 157.335 155.372 157.366C154.623 157.442 153.553 157.792 153.05 158.007C152.942 158.054 152.85 158.083 152.82 158.083C152.789 158.083 152.744 158.054 152.744 157.992C152.744 157.946 152.774 157.915 152.85 157.87C153.401 157.488 154.822 156.633 154.928 156.57C155.189 156.418 155.28 156.372 155.357 156.372C155.402 156.372 155.433 156.403 155.51 156.51C155.616 156.662 155.723 156.877 155.891 157.181ZM153.859 168.689C155.067 168.689 157.496 168.047 157.496 164.288C157.496 161.171 155.601 159.535 153.477 159.535C151.231 159.535 149.611 160.941 149.611 163.768C149.611 166.794 151.429 168.689 153.859 168.689ZM153.553 159.046C156.579 159.046 158.871 160.895 158.871 163.921C158.871 166.824 156.717 169.224 153.477 169.224C149.794 169.224 148.22 166.457 148.22 164.119C148.22 162.027 149.84 159.046 153.553 159.046ZM145.222 165.281C145.222 166.535 145.222 167.557 145.284 168.093C145.33 168.474 145.376 168.719 145.773 168.78C145.972 168.811 146.261 168.841 146.384 168.841C146.461 168.841 146.491 168.903 146.491 168.949C146.491 169.01 146.43 169.056 146.277 169.056C145.528 169.056 144.657 169.01 144.596 169.01C144.52 169.01 143.679 169.056 143.266 169.056C143.129 169.056 143.053 169.025 143.053 168.949C143.053 168.903 143.083 168.841 143.16 168.841C143.282 168.841 143.45 168.811 143.572 168.78C143.832 168.719 143.878 168.474 143.924 168.093C143.985 167.557 144 166.535 144 165.281V162.99C144 160.971 144 160.604 143.97 160.193C143.939 159.748 143.832 159.55 143.542 159.489C143.389 159.459 143.221 159.444 143.129 159.444C143.068 159.444 143.022 159.382 143.022 159.337C143.022 159.26 143.083 159.23 143.237 159.23C143.679 159.23 144.52 159.26 144.596 159.26C144.657 159.26 145.528 159.23 145.941 159.23C146.094 159.23 146.155 159.26 146.155 159.337C146.155 159.382 146.094 159.444 146.049 159.444C145.956 159.444 145.865 159.444 145.712 159.474C145.345 159.55 145.269 159.734 145.238 160.193C145.222 160.604 145.222 160.971 145.222 162.99V165.281ZM133.285 167.833C131.97 166.702 131.65 165.22 131.65 163.983C131.65 163.112 131.97 161.598 133.162 160.437C133.973 159.658 135.195 159.046 137.258 159.046C137.792 159.046 138.557 159.093 139.214 159.2C139.718 159.291 140.146 159.382 140.589 159.398C140.726 159.398 140.758 159.459 140.758 159.535C140.758 159.642 140.726 159.795 140.696 160.269C140.681 160.697 140.681 161.415 140.665 161.598C140.65 161.797 140.589 161.873 140.513 161.873C140.421 161.873 140.406 161.782 140.406 161.598C140.406 161.093 140.192 160.575 139.841 160.3C139.367 159.902 138.389 159.581 137.197 159.581C135.47 159.581 134.645 160.039 134.171 160.482C133.178 161.4 132.964 162.56 132.964 163.875C132.964 166.367 134.935 168.582 137.808 168.582C138.817 168.582 139.489 168.506 140.024 167.971C140.314 167.68 140.497 167.13 140.543 166.885C140.574 166.748 140.589 166.702 140.681 166.702C140.742 166.702 140.803 166.794 140.803 166.885C140.803 166.978 140.62 168.108 140.482 168.551C140.406 168.795 140.375 168.841 140.146 168.934C139.596 169.147 138.587 169.224 137.716 169.224C135.699 169.224 134.34 168.75 133.285 167.833ZM128.376 157.181C128.453 157.32 128.376 157.366 128.315 157.366C128.27 157.366 128.117 157.335 127.857 157.366C127.108 157.442 126.039 157.792 125.534 158.007C125.428 158.054 125.336 158.083 125.305 158.083C125.275 158.083 125.229 158.054 125.229 157.992C125.229 157.946 125.259 157.915 125.336 157.87C125.886 157.488 127.307 156.633 127.414 156.57C127.674 156.418 127.765 156.372 127.841 156.372C127.887 156.372 127.919 156.403 127.994 156.51C128.102 156.662 128.209 156.877 128.376 157.181ZM127.185 164.899C127.246 164.899 127.246 164.868 127.231 164.807L125.902 161.247C125.824 161.049 125.748 161.049 125.672 161.247L124.419 164.807C124.403 164.868 124.419 164.899 124.464 164.899H127.185ZM125.687 159.489C125.855 159.061 125.916 158.985 126.008 158.985C126.146 158.985 126.191 159.168 126.329 159.459C126.574 160.009 128.728 165.372 129.553 167.345C130.042 168.506 130.409 168.673 130.699 168.765C130.898 168.826 131.097 168.841 131.234 168.841C131.31 168.841 131.403 168.872 131.403 168.949C131.403 169.025 131.249 169.056 131.097 169.056C130.898 169.056 129.905 169.056 128.972 169.025C128.713 169.01 128.499 169.01 128.499 168.934C128.499 168.872 128.53 168.872 128.591 168.841C128.667 168.811 128.804 168.704 128.713 168.491L127.506 165.511C127.475 165.45 127.459 165.434 127.383 165.434H124.281C124.22 165.434 124.174 165.465 124.144 165.54L123.38 167.619C123.258 167.939 123.18 168.262 123.18 168.491C123.18 168.75 123.41 168.841 123.64 168.841H123.762C123.868 168.841 123.899 168.888 123.899 168.949C123.899 169.025 123.823 169.056 123.701 169.056C123.38 169.056 122.646 169.01 122.493 169.01C122.356 169.01 121.684 169.056 121.133 169.056C120.965 169.056 120.873 169.025 120.873 168.949C120.873 168.888 120.934 168.841 120.996 168.841C121.087 168.841 121.286 168.826 121.393 168.811C122.004 168.735 122.264 168.276 122.524 167.619L125.687 159.489ZM117.646 167.359C118.425 165.617 120.183 161.186 120.473 160.254C120.534 160.055 120.595 159.871 120.595 159.765C120.595 159.658 120.549 159.535 120.412 159.489C120.259 159.444 120.107 159.444 119.953 159.444C119.877 159.444 119.801 159.398 119.801 159.337C119.801 159.26 119.892 159.23 120.107 159.23C120.641 159.23 121.252 159.26 121.42 159.26C121.497 159.26 122.077 159.23 122.475 159.23C122.613 159.23 122.689 159.26 122.689 159.322C122.689 159.382 122.643 159.444 122.536 159.444C122.445 159.444 122.139 159.444 121.894 159.596C121.711 159.719 121.497 159.902 121.146 160.789C120.992 161.156 120.336 162.714 119.648 164.303C118.823 166.198 118.227 167.604 117.921 168.246C117.554 169.025 117.478 169.224 117.341 169.224C117.188 169.224 117.096 169.056 116.836 168.429L113.535 160.467C113.229 159.734 113.046 159.596 112.603 159.489C112.389 159.444 112.16 159.444 112.084 159.444C112.007 159.444 111.977 159.367 111.977 159.322C111.977 159.244 112.114 159.23 112.328 159.23C112.97 159.23 113.734 159.26 113.902 159.26C114.04 159.26 114.635 159.23 115.155 159.23C115.4 159.23 115.522 159.26 115.522 159.322C115.522 159.382 115.476 159.444 115.385 159.444C115.232 159.444 115.018 159.459 114.895 159.504C114.758 159.567 114.742 159.642 114.742 159.734C114.742 159.902 114.911 160.3 115.109 160.819L117.646 167.359ZM106.593 168.689C107.8 168.689 110.23 168.047 110.23 164.288C110.23 161.171 108.335 159.535 106.211 159.535C103.965 159.535 102.345 160.941 102.345 163.768C102.345 166.794 104.164 168.689 106.593 168.689ZM106.287 159.046C109.313 159.046 111.605 160.895 111.605 163.921C111.605 166.824 109.45 169.224 106.211 169.224C102.528 169.224 100.954 166.457 100.954 164.119C100.954 162.027 102.574 159.046 106.287 159.046ZM90.513 167.284C90.544 168.352 90.666 168.673 91.032 168.765C91.277 168.826 91.583 168.841 91.705 168.841C91.766 168.841 91.812 168.888 91.812 168.949C91.812 169.025 91.72 169.056 91.568 169.056C90.803 169.056 90.268 169.01 90.146 169.01C90.024 169.01 89.458 169.056 88.847 169.056C88.71 169.056 88.634 169.04 88.634 168.949C88.634 168.888 88.679 168.841 88.74 168.841C88.847 168.841 89.092 168.826 89.29 168.765C89.627 168.673 89.673 168.323 89.673 167.146V159.704C89.673 159.183 89.749 159.046 89.856 159.046C90.009 159.046 90.238 159.305 90.375 159.444C90.59 159.658 92.546 161.736 94.624 163.875C95.953 165.25 97.389 166.794 97.802 167.222L97.665 160.712C97.649 159.871 97.573 159.581 97.16 159.504C96.915 159.459 96.61 159.444 96.503 159.444C96.411 159.444 96.397 159.367 96.397 159.322C96.397 159.244 96.503 159.23 96.656 159.23C97.267 159.23 97.909 159.26 98.062 159.26C98.215 159.26 98.658 159.23 99.208 159.23C99.345 159.23 99.453 159.244 99.453 159.322C99.453 159.367 99.392 159.444 99.299 159.444C99.239 159.444 99.132 159.444 98.979 159.474C98.536 159.567 98.505 159.826 98.505 160.604L98.475 168.215C98.475 169.071 98.459 169.147 98.367 169.147C98.23 169.147 98.092 169.04 97.343 168.352C97.206 168.23 95.265 166.32 93.844 164.838C92.285 163.203 90.773 161.614 90.36 161.156L90.513 167.284ZM78.085 167.284C78.116 168.352 78.238 168.673 78.605 168.765C78.849 168.826 79.155 168.841 79.277 168.841C79.339 168.841 79.385 168.888 79.385 168.949C79.385 169.025 79.292 169.056 79.14 169.056C78.375 169.056 77.841 169.01 77.718 169.01C77.596 169.01 77.031 169.056 76.419 169.056C76.282 169.056 76.206 169.04 76.206 168.949C76.206 168.888 76.252 168.841 76.313 168.841C76.419 168.841 76.664 168.826 76.863 168.765C77.199 168.673 77.245 168.323 77.245 167.146V159.704C77.245 159.183 77.322 159.046 77.428 159.046C77.581 159.046 77.81 159.305 77.947 159.444C78.162 159.658 80.118 161.736 82.197 163.875C83.526 165.25 84.962 166.794 85.375 167.222L85.237 160.712C85.221 159.871 85.145 159.581 84.733 159.504C84.488 159.459 84.182 159.444 84.076 159.444C83.984 159.444 83.969 159.367 83.969 159.322C83.969 159.244 84.076 159.23 84.229 159.23C84.84 159.23 85.482 159.26 85.635 159.26C85.787 159.26 86.231 159.23 86.781 159.23C86.918 159.23 87.025 159.244 87.025 159.322C87.025 159.367 86.964 159.444 86.872 159.444C86.811 159.444 86.704 159.444 86.552 159.474C86.109 159.567 86.077 159.826 86.077 160.604L86.047 168.215C86.047 169.071 86.032 169.147 85.94 169.147C85.803 169.147 85.665 169.04 84.916 168.352C84.778 168.23 82.838 166.32 81.417 164.838C79.858 163.203 78.345 161.614 77.932 161.156L78.085 167.284ZM72.429 164.624C72.429 166.091 72.429 167.298 72.506 167.939C72.552 168.384 72.643 168.719 73.102 168.78C73.316 168.811 73.652 168.841 73.79 168.841C73.881 168.841 73.912 168.888 73.912 168.934C73.912 169.01 73.835 169.056 73.667 169.056C72.826 169.056 71.864 169.01 71.787 169.01C71.711 169.01 70.748 169.056 70.29 169.056C70.122 169.056 70.045 169.025 70.045 168.934C70.045 168.888 70.076 168.841 70.168 168.841C70.305 168.841 70.489 168.811 70.626 168.78C70.931 168.719 71.007 168.384 71.069 167.939C71.146 167.298 71.146 166.091 71.146 164.624V161.934C71.146 159.55 71.146 159.122 71.115 158.633C71.084 158.115 70.931 157.855 70.595 157.778C70.427 157.733 70.229 157.717 70.122 157.717C70.061 157.717 70 157.686 70 157.625C70 157.533 70.076 157.503 70.244 157.503C70.748 157.503 71.711 157.548 71.787 157.548C71.864 157.548 72.826 157.503 73.285 157.503C73.453 157.503 73.529 157.533 73.529 157.625C73.529 157.686 73.468 157.717 73.407 157.717C73.3 157.717 73.208 157.733 73.025 157.763C72.613 157.839 72.49 158.099 72.46 158.633C72.429 159.122 72.429 159.55 72.429 161.934V164.624Z" fill="white"/>
<path fill-rule="evenodd" clip-rule="evenodd" d="M181.749 80.0539C181.983 80.0539 182.169 80.2439 182.169 80.4729C182.169 80.7079 181.983 80.8979 181.749 80.8979C181.515 80.8979 181.323 80.7079 181.323 80.4729C181.323 80.2439 181.515 80.0539 181.749 80.0539ZM181.749 81.4389C182.283 81.4389 182.716 81.0099 182.716 80.4729C182.716 79.9429 182.283 79.5079 181.749 79.5079C181.219 79.5079 180.785 79.9429 180.785 80.4729C180.785 81.0099 181.219 81.4389 181.749 81.4389ZM185.951 79.3689L186.41 79.1789C186.766 79.1789 187.06 79.4699 187.06 79.8289C187.06 80.1889 186.766 80.4809 186.41 80.4809L185.951 80.2889L185.759 79.8289L185.951 79.3689ZM186.41 81.0219C187.07 81.0219 187.602 80.4879 187.602 79.8289C187.602 79.1719 187.07 78.6359 186.41 78.6359C186.092 78.6359 185.792 78.7619 185.567 78.9869C185.341 79.2109 185.217 79.5129 185.217 79.8289C185.217 80.1469 185.343 80.4559 185.567 80.6749C185.792 80.8999 186.092 81.0219 186.41 81.0219ZM204.922 80.0539C205.153 80.0539 205.344 80.2439 205.344 80.4729C205.344 80.7079 205.153 80.8979 204.922 80.8979C204.684 80.8979 204.497 80.7079 204.497 80.4729C204.497 80.2439 204.684 80.0539 204.922 80.0539ZM204.922 81.4389C205.455 81.4389 205.885 81.0099 205.885 80.4729C205.885 79.9429 205.455 79.5079 204.922 79.5079C204.389 79.5079 203.955 79.9429 203.955 80.4729C203.955 81.0099 204.389 81.4389 204.922 81.4389ZM200.264 79.1789C200.618 79.1789 200.909 79.4699 200.909 79.8289C200.909 80.1889 200.618 80.4809 200.264 80.4809C199.904 80.4809 199.613 80.1889 199.613 79.8289C199.613 79.4699 199.904 79.1789 200.264 79.1789ZM200.264 81.0219C200.921 81.0219 201.453 80.4879 201.453 79.8289C201.453 79.1719 200.921 78.6359 200.264 78.6359C199.606 78.6359 199.066 79.1719 199.066 79.8289C199.066 80.4879 199.606 81.0219 200.264 81.0219ZM192.369 77.2999C192.369 77.0909 192.468 76.8949 192.643 76.7419C192.826 76.5809 193.072 76.4939 193.336 76.4939C193.603 76.4939 193.849 76.5809 194.031 76.7419C194.203 76.8949 194.301 77.0909 194.301 77.2999C194.301 77.5059 194.203 77.7049 194.031 77.8589C193.846 78.0179 193.601 78.1049 193.336 78.1049C193.073 78.1049 192.826 78.0179 192.641 77.8589C192.468 77.7049 192.369 77.5049 192.369 77.2999ZM194.386 78.2629C194.678 78.0079 194.841 77.6659 194.841 77.2999C194.841 76.9319 194.678 76.5889 194.386 76.3349C194.103 76.0829 193.731 75.9499 193.336 75.9499C192.939 75.9499 192.565 76.0829 192.284 76.3349C191.99 76.5909 191.831 76.9339 191.831 77.2999C191.831 77.6629 191.993 78.0079 192.284 78.2629C192.566 78.5119 192.939 78.6459 193.336 78.6459C193.729 78.6459 194.103 78.5119 194.386 78.2629ZM182.235 92.3019L182.135 92.5429L181.899 92.6409H180.823L180.588 92.5429L180.491 92.3019V90.3289L180.588 90.0899L180.823 89.9899H181.899L182.135 90.0899L182.235 90.3289V92.3019ZM181.899 89.4449H180.823C180.592 89.4449 180.364 89.5389 180.204 89.7019C180.039 89.8689 179.947 90.0909 179.947 90.3289V92.3019C179.947 92.5379 180.039 92.7579 180.204 92.9259C180.369 93.0889 180.593 93.1819 180.823 93.1819H181.899C182.129 93.1819 182.355 93.0889 182.52 92.9259L182.57 92.8819V92.8509C182.698 92.6979 182.78 92.5089 182.78 92.3019V90.3289C182.78 90.0959 182.686 89.8709 182.52 89.7039C182.357 89.5389 182.132 89.4449 181.899 89.4449ZM184.251 92.6409H187.243V89.9909H184.251V92.6409ZM183.983 89.4449L183.709 89.7169V92.9089L183.983 93.1819H187.521L187.791 92.9089V89.7169L187.521 89.4449H183.983ZM193.336 89.7309C194.218 89.7309 195.716 90.9609 195.716 91.8989C195.716 92.0789 195.501 92.2749 195.122 92.4359C194.657 92.6229 194.02 92.7329 193.336 92.7329C192.651 92.7329 192.015 92.6229 191.548 92.4319C191.174 92.2759 190.957 92.0789 190.957 91.8989C190.957 90.9609 192.454 89.7309 193.336 89.7309ZM191.343 92.9339C191.871 93.1529 192.583 93.2689 193.336 93.2689C194.092 93.2689 194.796 93.1529 195.329 92.9339C195.927 92.6849 196.258 92.3149 196.258 91.8989C196.258 90.6429 194.488 89.1859 193.336 89.1859C192.182 89.1859 190.415 90.6429 190.415 91.8989C190.415 92.3149 190.743 92.6849 191.343 92.9339ZM199.425 92.6409H202.417V89.9909H199.425V92.6409ZM199.151 89.4449L198.88 89.7169V92.9089L199.151 93.1819H202.688L202.961 92.9089V89.7169L202.688 89.4449H199.151ZM206.185 92.3019L206.084 92.5429L205.848 92.6409H204.776L204.534 92.5429L204.434 92.3019V90.3289L204.534 90.0909L204.776 89.9899H205.848L206.084 90.0899L206.185 90.3289V92.3019ZM205.848 89.4449H204.776C204.538 89.4449 204.317 89.5359 204.153 89.7019C203.985 89.8689 203.89 90.0909 203.89 90.3289V92.3019C203.89 92.5379 203.985 92.7579 204.153 92.9259C204.32 93.0919 204.541 93.1819 204.776 93.1819H205.848C206.077 93.1819 206.299 93.0919 206.466 92.9259L206.516 92.8819V92.8509C206.647 92.6919 206.723 92.5069 206.723 92.3019V90.3289C206.723 90.0959 206.636 89.8709 206.469 89.7039C206.302 89.5359 206.082 89.4449 205.848 89.4449ZM212.581 126.991C212.581 127.986 212.49 128.975 212.33 129.943C211.983 129.665 211.622 129.48 211.255 129.384V95.6699H212.581V126.991ZM211.933 131.806L210.073 129.952C210.241 129.897 210.408 129.857 210.568 129.854C211.272 129.813 211.849 130.206 212.229 130.567C212.148 130.973 212.045 131.383 211.933 131.806ZM211.227 133.878L206.319 128.971H207.373C207.723 129.464 207.989 130.07 208.166 130.777L208.351 130.973L208.614 130.911C208.838 130.695 209.172 130.409 209.547 130.191L211.76 132.411C211.61 132.908 211.422 133.398 211.227 133.878ZM210.334 135.755L203.548 128.971H205.551L211.004 134.421C210.802 134.869 210.579 135.317 210.334 135.755ZM209.759 136.744C209.597 136.997 209.429 137.231 209.269 137.459L200.779 128.971H202.781L210.058 136.248C209.959 136.417 209.859 136.584 209.759 136.744ZM208.044 138.998L198.575 129.535C198.679 129.331 198.791 129.141 198.91 128.971H200.01L208.949 137.904C208.658 138.284 208.355 138.645 208.044 138.998ZM206.666 140.398L196.227 129.956C196.798 130.148 197.308 130.552 197.668 130.908L197.933 130.973L198.12 130.777C198.183 130.526 198.266 130.302 198.346 130.078L207.68 139.405C207.364 139.739 207.025 140.073 206.666 140.398ZM205.128 141.634L194.063 130.564C194.488 130.166 194.926 129.93 195.372 129.871L206.251 140.758C205.881 141.073 205.502 141.366 205.128 141.634ZM203.42 142.697L193.607 132.883V131.056L193.689 130.96L204.669 141.942C204.26 142.212 203.843 142.468 203.42 142.697ZM202.162 143.319C201.952 143.404 201.741 143.491 201.532 143.576L193.607 135.655V133.649L202.918 142.957C202.663 143.084 202.409 143.209 202.162 143.319ZM199.502 144.312L193.607 138.423V136.424L200.977 143.789C200.544 143.96 200.072 144.123 199.502 144.312ZM197.392 144.974L193.607 141.193V139.196L198.919 144.502C198.389 144.671 197.876 144.828 197.392 144.974ZM196.753 145.166C196.265 145.312 195.761 145.464 195.266 145.626L193.607 143.967V141.958L196.798 145.154L196.753 145.166ZM193.607 146.245V144.735L194.692 145.82C194.26 145.97 193.908 146.109 193.607 146.245ZM195.024 95.6699V129.388C194.534 129.512 194.06 129.799 193.607 130.246V95.6699H195.024ZM176.684 95.1279H209.985V94.3949H176.684V95.1279ZM191.708 101.486H193.062V95.6719H191.708V101.486ZM189.753 101.485H191.161V95.6699H189.753V101.485ZM187.791 101.485H189.206V95.6699H187.791V101.485ZM185.833 101.485H187.252V95.6699H185.833V101.485ZM183.879 101.485H185.293V95.6699H183.879V101.485ZM181.922 101.485H183.335V95.6699H181.922V101.485ZM179.962 101.485H181.378V95.6699H179.962V101.485ZM178.005 101.485H179.421V95.6699H178.005V101.485ZM174.092 107.846H193.062V102.034H174.092V107.846ZM191.708 114.202H193.062V108.389H191.708V114.202ZM189.753 114.202H191.161V108.389H189.753V114.202ZM187.791 114.202H189.206V108.389H187.791V114.202ZM185.833 114.202H187.252V108.389H185.833V114.202ZM183.879 114.202H185.293V108.389H183.879V114.202ZM181.922 114.202H183.335V108.389H181.922V114.202ZM179.962 114.202H181.378V108.389H179.962V114.202ZM178.005 114.202H179.421V108.389H178.005V114.202ZM176.049 114.202H177.462V108.389H176.049V114.202ZM174.092 120.567H193.062V114.75H174.092V120.567ZM191.708 126.926H193.062V121.105H191.708V126.926ZM189.753 126.928H191.161V121.107H189.753V126.928ZM187.791 126.928H189.206V121.107H187.791V126.928ZM185.833 126.928H187.252V121.107H185.833V126.928ZM183.879 126.928H185.293V121.107H183.879V126.928ZM181.922 126.928H183.335V121.107H181.922V126.928ZM179.962 126.928H181.378V121.107H179.962V126.928ZM178.005 126.928H179.421V121.107H178.005V126.928ZM176.049 126.928H177.462V121.107H176.049V126.928ZM193.062 133.285H175.204C174.86 132.352 174.59 131.379 174.406 130.397C174.228 129.44 174.136 128.452 174.11 127.465H193.062V133.285ZM191.708 139.644H193.062V133.831H191.708V139.644ZM189.753 139.644H191.161V133.831H189.753V139.644ZM187.791 139.644H189.206V133.831H187.791V139.644ZM185.833 139.644H187.252V133.831H185.833V139.644ZM183.879 139.644H185.293V133.831H183.879V139.644ZM181.922 139.644H183.335V133.831H181.922V139.644ZM179.962 139.644H181.378V133.831H179.962V139.644ZM193.062 146.255C192.241 145.871 191.139 145.539 189.868 145.155L189.765 145.123H189.763C188.164 144.644 186.35 144.1 184.513 143.313C183.575 142.914 182.656 142.406 181.777 141.801C181.08 141.317 180.418 140.77 179.795 140.188H193.062V146.255ZM179.421 139.644H179.223C178.789 139.202 178.383 138.737 178.005 138.267V133.831H179.421V139.644ZM177.461 137.528C177.288 137.285 177.109 137.043 176.953 136.802C176.638 136.314 176.331 135.783 176.049 135.227V133.831H177.461V137.528ZM174.093 126.928H175.507V121.107H174.093V126.928ZM174.093 114.202H175.507V108.389H174.093V114.202ZM174.093 101.485H175.507V95.6699H174.093V101.485ZM176.049 101.485H177.462V95.6699H176.049V101.485ZM176.12 82.2309L176.41 81.9419L176.614 82.0239L176.62 82.0309L176.707 82.2309L176.62 82.4379L176.615 82.4439L176.41 82.5259L176.12 82.2309ZM176.684 93.1819H178.759L179.026 92.9089V89.7169L178.759 89.4449H176.684V88.7199H188.976V93.8519H176.684V93.1819ZM176.684 92.6399H178.48V89.9899H176.684V92.6399ZM189.519 93.8529H197.148V88.7229H189.519V93.8529ZM176.684 88.1769H209.985V87.2829H176.684V88.1769ZM178.167 83.6149L179.126 86.7389H177.206L178.167 83.6149ZM177.778 81.4919C177.778 81.2769 177.95 81.1009 178.167 81.1009C178.382 81.1009 178.558 81.2809 178.558 81.4919C178.558 81.7089 178.383 81.8829 178.167 81.8829C177.95 81.8829 177.778 81.7089 177.778 81.4919ZM183.417 83.7809V86.7389H180.084V83.7809C180.084 83.3339 180.258 82.9169 180.573 82.6049C180.886 82.2909 181.308 82.1149 181.749 82.1149C182.667 82.1149 183.417 82.8639 183.417 83.7809ZM188.356 86.7389H184.466L186.41 82.1069L188.356 86.7389ZM179.084 81.4339C180.039 79.5269 181.473 77.8539 183.241 76.5859C184.93 75.3729 186.911 74.5489 188.976 74.1799L188.972 86.7389H188.943L186.659 81.3029L186.41 81.1389L186.164 81.3029L183.959 86.5439V83.7809C183.959 82.5629 182.968 81.5719 181.749 81.5719C181.165 81.5719 180.61 81.8039 180.188 82.2189C179.771 82.6359 179.539 83.1889 179.539 83.7809V86.2329L178.431 82.5959L178.184 82.4259C178.454 82.4169 178.701 82.3019 178.878 82.0989C179.034 81.9119 179.101 81.6749 179.084 81.4339ZM179.547 78.2499L187.448 72.8639H188.976V73.6259C186.793 73.9989 184.705 74.8659 182.92 76.1469C181.291 77.3219 179.941 78.8459 178.954 80.5629L179.547 78.2499ZM189.52 82.8639C189.561 81.9219 189.957 81.0219 190.64 80.3439C191.362 79.6229 192.322 79.2209 193.336 79.2209C194.349 79.2209 195.306 79.6229 196.032 80.3439C196.714 81.0219 197.109 81.9239 197.148 82.8749V86.7389H189.52V82.8639ZM189.52 72.8639H190.701V79.5799L190.253 79.9619C189.957 80.2589 189.723 80.6079 189.52 80.9729V72.8639ZM191.242 72.8639H195.429V79.2309C194.782 78.8739 194.067 78.6809 193.336 78.6809C192.601 78.6809 191.886 78.8739 191.242 79.2309V72.8639ZM191.274 68.6169L190.899 68.5429L189.519 69.4659L189.399 69.6869L189.221 70.0629L188.829 70.2249L188.412 70.0669L188.238 69.6579L188.396 69.2419L188.804 69.0599L188.908 69.0659L189.007 69.0939L189.245 69.0629L190.626 68.1349L190.702 67.7659L189.608 66.1349L189.401 66.0139L189.012 65.8399L188.85 65.4449L189.012 65.0309L189.419 64.8479L189.836 65.0099L190.014 65.4199L190.011 65.5269L189.985 65.6199L190.014 65.8579L191.103 67.4879L191.274 67.5989L191.48 67.5649L192.815 66.6659L192.939 66.4479L193.117 66.0709L193.511 65.9049L193.928 66.0709L194.108 66.4779L193.945 66.8929L193.539 67.0709L193.43 67.0639L193.333 67.0399L193.091 67.0709L191.754 67.9689L191.675 68.3449L192.935 70.2209L193.206 70.3349L193.259 70.3309L193.32 70.3249C193.573 70.3229 193.816 70.4129 193.995 70.5869C194.178 70.7599 194.281 70.9949 194.29 71.2509C194.295 71.4999 194.202 71.7389 194.027 71.9239C193.853 72.1049 193.615 72.2059 193.364 72.216C193.114 72.2189 192.875 72.1239 192.69 71.9489C192.511 71.7749 192.405 71.5409 192.401 71.2919L192.433 71.0269L192.536 70.7849L192.529 70.4919L191.274 68.6169ZM195.971 72.8639H197.148V80.9749C196.949 80.6079 196.717 80.2599 196.419 79.9619L195.971 79.5779V72.8639ZM202.208 86.7389H198.314L200.261 82.1069L202.208 86.7389ZM206.586 83.7809V86.7389H203.257V83.7809C203.257 82.8639 204.003 82.1149 204.922 82.1149C205.363 82.1149 205.782 82.2909 206.096 82.6049C206.415 82.9169 206.586 83.3349 206.586 83.7809ZM203.434 76.5859C205.189 77.8489 206.619 79.5129 207.573 81.4059L207.568 81.4919C207.568 82.0009 207.981 82.4159 208.487 82.4259L208.241 82.5939L207.133 86.2159V83.7809C207.133 83.1919 206.897 82.6399 206.48 82.2189C206.063 81.8039 205.512 81.5719 204.922 81.5719C203.704 81.5719 202.714 82.5629 202.714 83.7809V86.5439L200.508 81.3029L200.259 81.1389L200.011 81.3029L197.728 86.7389H197.698L197.692 74.1799C199.76 74.5489 201.747 75.3729 203.434 76.5859ZM197.692 72.8639H199.225L207.126 78.2509L207.732 80.5909C206.753 78.8639 205.394 77.3289 203.748 76.1469C201.969 74.8659 199.874 73.9989 197.692 73.6259V72.8639ZM208.5 81.1009C208.718 81.1009 208.895 81.2769 208.895 81.4919C208.895 81.7089 208.718 81.8829 208.5 81.8829C208.287 81.8829 208.113 81.7089 208.113 81.4919C208.113 81.2859 208.297 81.1009 208.5 81.1009ZM209.465 86.7389H207.544L208.5 83.6089L209.465 86.7389ZM208.194 92.6409H209.987V89.9909H208.194V92.6409ZM207.916 89.4449L207.641 89.7169V92.9089L207.916 93.1819H209.987V93.8519H197.692V88.7199H209.987V89.4449H207.916ZM209.293 117.098C209.71 117.116 210.241 117.212 210.714 117.507V129.315L210.537 129.308C210.133 129.33 209.713 129.466 209.293 129.705V117.098ZM205.246 113.011H206.789V108.318H205.246V113.011ZM208.75 108.727V113.012H207.336V108.324H207.349C207.916 108.324 208.318 108.442 208.75 108.727ZM207.336 104.243V95.6699H208.75V103.839C208.321 104.12 207.902 104.243 207.349 104.243H207.336ZM205.507 98.0669H205.37V95.6699H206.789V104.243H205.248V100.209C205.248 99.5409 205.42 98.9329 205.729 98.4899L205.75 98.2129L205.507 98.0669ZM203.414 98.0659H204.83V95.6699H203.414V98.0659ZM201.453 98.0659H202.869V95.6699H201.453V98.0659ZM200.596 98.4899C200.905 98.9299 201.079 99.5379 201.079 100.209V104.243H199.492V95.6699H200.905V98.0669H200.818L200.581 98.2129L200.596 98.4899ZM197.531 103.829V95.6699H198.949V104.233C198.41 104.208 197.912 104.066 197.531 103.829ZM199.492 113.011H201.08V108.318H199.492V113.011ZM197.531 113.012V108.74C198.005 108.445 198.533 108.351 198.949 108.332V113.012H197.531ZM195.572 112.594V95.6699H196.991V112.997C196.443 112.978 195.966 112.843 195.572 112.594ZM196.991 117.102V129.715C196.514 129.44 196.037 129.306 195.572 129.316V117.507C195.966 117.251 196.443 117.12 196.991 117.102ZM204.982 116.547L204.708 116.817V123.517L204.591 123.495L204.558 123.496V123.484C204.591 123.193 204.484 122.919 204.264 122.682C204.075 122.475 203.817 122.363 203.614 122.271L203.601 122.264L203.283 122.105L203.001 122.102L202.687 122.261L202.663 122.271C202.448 122.367 202.201 122.475 202.011 122.684C201.795 122.926 201.693 123.202 201.719 123.478L201.721 123.496L201.687 123.495L201.621 123.505V116.817L201.352 116.547H197.108C196.533 116.547 196.023 116.664 195.572 116.881V113.195C196.027 113.419 196.533 113.551 197.108 113.551H201.352L201.621 113.283V108.05L201.352 107.783H199.136C198.543 107.783 198.001 107.901 197.531 108.119V104.443C197.995 104.668 198.543 104.791 199.136 104.791H201.352L201.621 104.515V100.209C201.621 99.6189 201.502 99.0759 201.28 98.6109H205.05C204.83 99.0759 204.708 99.6189 204.708 100.209V104.515L204.982 104.791H207.349C207.898 104.791 208.337 104.684 208.757 104.463V108.103C208.337 107.883 207.898 107.783 207.349 107.783H204.982L204.708 108.05V113.283L204.982 113.551H209.108C209.699 113.551 210.241 113.43 210.707 113.209V116.887C210.241 116.668 209.699 116.547 209.108 116.547H204.982ZM208.579 123.406L208.297 123.453L208.062 123.406L207.952 123.374L207.436 123.506L207.336 123.658V117.085H208.75V123.506L208.579 123.406ZM207.87 127.758C208 126.53 208.237 124.259 208.75 123.927V130.073L208.557 130.234C208.367 129.61 208.112 129.057 207.778 128.604C207.807 128.386 207.838 128.116 207.87 127.758ZM206.215 126.893C206.334 126.893 206.452 126.872 206.561 126.827C206.772 126.747 206.964 126.584 207.12 126.344C207.22 126.196 207.31 126.008 207.392 125.779L207.259 125.463L206.917 125.527L206.672 125.742L206.495 125.696L206.385 125.236L206.335 124.964L206.6 124.542L206.764 124.277L206.789 124.263L206.914 124.246H206.928H206.923L206.941 124.252H206.963L207.014 124.277L206.954 124.259L207.049 124.352L207.078 124.409L207.356 124.545L207.585 124.332L207.636 124.149L207.767 123.936L207.85 123.91L207.882 123.915L208.072 123.951C207.726 124.633 207.541 125.843 207.422 126.893H206.215ZM207.362 127.438L207.341 127.62L207.336 127.701L207.33 127.735C207.3 128.009 207.277 128.235 207.252 128.433H199.03C199.005 128.245 198.979 128.02 198.943 127.701L198.925 127.517L198.919 127.438H207.362ZM201.079 123.752L200.957 123.879L200.767 124.277L200.556 124.716L200.509 125.052L200.726 125.459L201.019 125.947L201.079 126.007V126.234L200.923 126.152H200.612L200.307 126.307L199.918 126.324L199.84 126.255C199.929 126.227 200.022 126.195 200.105 126.129C200.339 125.958 200.385 125.634 200.429 125.319L200.493 124.968L200.39 124.68L200.189 124.348C200.122 124.172 200.044 123.979 199.82 123.831L199.752 123.787L199.746 123.785L199.737 123.781L199.492 123.734V117.085H201.079V123.752ZM201.29 126.893H200.107C200.229 126.89 200.353 126.871 200.488 126.822L200.76 126.687C200.944 126.793 201.119 126.871 201.29 126.893ZM205.513 126.688L205.792 126.822C205.927 126.871 206.056 126.89 206.177 126.893H204.996C205.161 126.871 205.335 126.793 205.513 126.688ZM205.72 124.712L205.513 124.292L205.317 123.879L205.248 123.802V117.085H206.789V123.74L206.541 123.781L206.459 123.831C206.237 123.979 206.159 124.172 206.096 124.346L205.881 124.691L205.786 124.968L205.851 125.311C205.887 125.615 205.939 125.958 206.177 126.129C206.26 126.196 206.348 126.228 206.441 126.256L206.362 126.324L205.975 126.309L205.662 126.15L205.363 126.146L205.248 126.203V125.958L205.249 125.954L205.551 125.467L205.762 125.052L205.72 124.712ZM202.201 124.232L202.519 124.182L202.502 123.822L202.256 123.43L202.41 123.047L202.879 122.769L202.896 122.762L203.146 122.641L203.396 122.764L203.869 123.049L204.025 123.43L203.775 123.824L203.763 124.182L204.121 124.236L204.025 124.265H204.086L204.129 124.235L204.573 124.034L204.903 124.223L204.993 124.435L204.999 124.456L205.22 124.916L205.067 125.217L205.058 125.231L205.048 125.26L204.858 125.578L204.563 125.732L204.067 125.494H203.741L203.642 125.808C203.857 126.334 204.11 126.663 204.434 126.815C204.52 126.857 204.611 126.879 204.697 126.893H201.581C201.667 126.879 201.758 126.857 201.841 126.815C202.165 126.663 202.42 126.334 202.634 125.808L202.537 125.494L202.211 125.491L201.715 125.732L201.42 125.578L201.219 125.234L201.062 124.916L201.277 124.467L201.296 124.418L201.375 124.225L201.699 124.034L202.15 124.235L202.152 124.236L202.192 124.265H202.252L202.201 124.232ZM198.207 123.951L198.403 123.915L198.421 123.91L198.514 123.936L198.645 124.152L198.695 124.332L198.919 124.545L199.201 124.409L199.221 124.369L199.236 124.348L199.323 124.259L199.262 124.277L199.329 124.25H199.343L199.364 124.246L199.489 124.263L199.518 124.277L199.682 124.542L199.937 124.958L199.902 125.186L199.895 125.236L199.78 125.696L199.609 125.742L199.363 125.527L199.019 125.463L198.891 125.785C198.965 126.001 199.056 126.192 199.158 126.348C199.313 126.58 199.503 126.747 199.721 126.83C199.833 126.872 199.946 126.893 200.062 126.893H198.862C198.738 125.843 198.557 124.633 198.207 123.951ZM197.531 123.505V117.085H198.949V123.659L198.845 123.508L198.335 123.374L198.218 123.406L197.979 123.453L197.7 123.406L197.531 123.505ZM198.408 127.758C198.436 128.061 198.471 128.366 198.5 128.604C198.175 129.06 197.916 129.61 197.723 130.234L197.531 130.071V123.925C198.044 124.253 198.278 126.53 198.408 127.758ZM210.714 95.6699V112.593C210.241 112.89 209.71 112.984 209.293 113.004V108.617L209.301 108.582V103.983L209.293 103.942V95.6699H210.714ZM209.962 82.2309L210.26 81.9419L210.55 82.2309L210.26 82.5259L209.962 82.2309ZM212.848 95.1279H210.525V83.1589C210.525 83.1019 210.515 83.0569 210.503 83.0239C210.839 82.9169 211.096 82.6109 211.096 82.2309C211.096 81.7689 210.722 81.3979 210.26 81.3979C209.793 81.3979 209.419 81.7689 209.419 82.2309C209.419 82.6079 209.671 82.9169 210.013 83.0209C209.995 83.0569 209.987 83.1019 209.987 83.1589V86.5859L208.764 82.5959L208.522 82.4259C209.026 82.4139 209.437 82.0009 209.437 81.4919C209.437 81.1749 209.277 80.8799 209.008 80.7079C208.786 80.5699 208.536 80.5339 208.294 80.5869L207.626 78.0189L207.528 77.8719L199.461 72.3719L199.31 72.3219H194.386L194.416 72.2979C194.695 72.0099 194.841 71.6359 194.832 71.2369C194.827 70.8429 194.658 70.4709 194.373 70.1939C194.085 69.9199 193.71 69.7719 193.312 69.7839H193.298L192.281 68.2679L193.29 67.5909L193.347 67.6039L193.544 67.6169C193.849 67.6109 194.126 67.4869 194.337 67.2709C194.546 67.0469 194.657 66.7619 194.65 66.4629C194.644 66.1649 194.521 65.8849 194.303 65.6759C194.085 65.4729 193.8 65.3589 193.503 65.3619C193.219 65.3689 192.949 65.4799 192.746 65.6769C192.576 65.8409 192.473 66.0499 192.433 66.2749L191.406 66.9639L190.535 65.6599L190.545 65.6049L190.561 65.4049C190.556 65.1069 190.427 64.8259 190.21 64.6169C189.988 64.4089 189.707 64.2969 189.409 64.3027C189.109 64.3099 188.826 64.4309 188.619 64.6519C188.412 64.8719 188.298 65.1539 188.307 65.4549C188.314 65.7409 188.423 66.0099 188.623 66.2139C188.784 66.3829 188.994 66.4829 189.217 66.5259L190.097 67.8359L189.047 68.5409L188.989 68.5299L188.793 68.5189C188.494 68.5229 188.211 68.6469 188.001 68.8629C187.791 69.0839 187.681 69.3699 187.69 69.6659C187.695 69.9659 187.819 70.2479 188.037 70.4559C188.257 70.6659 188.542 70.7789 188.842 70.7709C189.124 70.7629 189.394 70.6499 189.598 70.4549C189.763 70.2909 189.868 70.0789 189.91 69.8569L190.976 69.1429L191.993 70.6709L191.91 70.8839L191.854 71.3029C191.867 71.6919 192.025 72.0489 192.298 72.3219H187.364L187.21 72.3719L179.155 77.8649L179.046 78.0219L178.394 80.5909C178.152 80.5339 177.89 80.5689 177.669 80.7079C177.395 80.8799 177.231 81.1699 177.231 81.4919C177.231 82.0009 177.647 82.4159 178.152 82.4259L177.905 82.5939L176.684 86.5859V83.1589C176.684 83.1019 176.676 83.0569 176.658 83.0239C176.786 82.9809 176.907 82.9219 177.003 82.8249C177.164 82.6649 177.249 82.4579 177.249 82.2309C177.249 82.0089 177.164 81.8039 177.003 81.6409C176.846 81.4829 176.633 81.3979 176.41 81.3979C175.954 81.3979 175.577 81.7689 175.577 82.2309C175.577 82.6109 175.833 82.9169 176.173 83.0239C176.156 83.0569 176.145 83.1019 176.145 83.1589V95.1279H173.829L173.549 95.3979V127.196L173.562 127.266L173.551 127.22C173.563 128.32 173.672 129.419 173.872 130.497C174.07 131.558 174.367 132.608 174.745 133.624L174.758 133.655C175.222 134.877 175.792 136.005 176.495 137.097C177.206 138.196 177.993 139.183 178.914 140.107C179.703 140.908 180.567 141.626 181.469 142.248C182.381 142.874 183.332 143.402 184.299 143.815C186.172 144.621 188.081 145.184 189.608 145.643L189.689 145.665C191.156 146.103 192.418 146.483 193.205 146.923L193.469 146.921C194.257 146.483 195.517 146.103 196.98 145.665L197.061 145.643C198.671 145.164 200.498 144.621 202.371 143.815C205.495 142.476 208.277 140.068 210.215 137.036C212.115 134.059 213.12 130.585 213.12 126.991V95.3979L212.848 95.1279Z" fill="white"/>
<path fill-rule="evenodd" clip-rule="evenodd" d="M666.936 146.799C666.716 146.815 666.501 146.85 666.293 146.9L648.049 90.298C648.224 90.164 648.389 90.017 648.533 89.844C649.038 89.238 649.278 88.47 649.206 87.682C649.15 87.059 648.901 86.501 648.526 86.054L664.837 69.937C665.412 70.451 666.132 70.807 666.936 70.919V146.799ZM663.388 149.731H648.042V92.29L665.705 147.091C664.575 147.558 663.709 148.53 663.388 149.731ZM643.315 88.219C643.394 89.086 643.849 89.824 644.497 90.309L634.007 131.335C632.463 131.558 631.339 132.948 631.482 134.519C631.561 135.385 632.015 136.12 632.659 136.606L629.304 149.731H614.964C614.434 148.153 612.956 147.005 611.201 147.005C611.195 147.005 611.19 147.007 611.184 147.007L595.652 86.15L595.601 85.952L593.17 86.257V128.433C592.672 128.64 592.247 128.983 591.93 129.409L575.131 112.817C575.762 112.277 576.166 111.481 576.166 110.587C576.166 109.401 575.459 108.389 574.449 107.918L590.945 70.646C591.49 70.928 592.102 71.102 592.758 71.102C593.409 71.102 594.016 70.932 594.557 70.652L618.103 116.159C617.783 116.627 617.58 117.18 617.58 117.789C617.58 119.42 618.906 120.747 620.538 120.747C622.169 120.747 623.496 119.42 623.496 117.789C623.496 116.93 623.123 116.163 622.537 115.623L634.396 69.253C635.352 69.095 636.149 68.479 636.562 67.636H663.56C663.676 68.336 663.981 68.967 664.41 69.491L648.079 85.628C647.507 85.18 646.775 84.934 645.992 85.005C644.368 85.153 643.167 86.595 643.315 88.219ZM593.17 149.731H577.085C576.902 148.939 576.476 148.247 575.899 147.717L592.172 133.208C592.452 133.5 592.79 133.738 593.17 133.896V149.731ZM575.405 147.329C575.061 147.101 574.685 146.919 574.278 146.805V113.337C574.395 113.292 574.506 113.235 574.615 113.176L591.607 129.957C591.441 130.327 591.343 130.734 591.343 131.164C591.343 131.736 591.511 132.266 591.793 132.718L575.405 147.329ZM596.692 67.636H606.426L618.742 115.454C618.667 115.513 618.606 115.588 618.536 115.653L595.083 70.326C595.941 69.697 596.546 68.742 596.692 67.636ZM669.456 147.455V70.43C670.653 69.74 671.469 68.464 671.469 66.987C671.469 64.788 669.68 63 667.482 63C665.963 63 664.656 63.863 663.983 65.115H636.596C636.128 64.097 635.106 63.386 633.913 63.386C632.282 63.386 630.955 64.713 630.955 66.344C630.955 67.229 631.354 68.014 631.971 68.557L620.659 112.791L608.424 65.288L608.379 65.115H596.187C595.493 63.933 594.224 63.129 592.758 63.129C590.559 63.129 588.771 64.917 588.771 67.115C588.771 68.434 589.422 69.597 590.412 70.323L574.278 106.783V88.644C575.38 88.214 576.166 87.146 576.166 85.893C576.166 84.261 574.84 82.935 573.208 82.935C571.577 82.935 570.25 84.261 570.25 85.893C570.25 86.994 570.862 87.945 571.756 88.454V108.025C570.862 108.534 570.25 109.486 570.25 110.587C570.25 111.687 570.862 112.638 571.756 113.148V146.924C570.276 147.507 569.222 148.943 569.222 150.628C569.222 152.826 571.01 154.615 573.208 154.615C574.827 154.615 576.217 153.641 576.841 152.252H595.692V133.76C596.619 133.26 597.259 132.291 597.259 131.164C597.259 130.038 596.619 129.069 595.692 128.57V96.497L608.793 147.835C607.84 148.564 607.214 149.702 607.214 150.992C607.214 153.19 609.002 154.979 611.201 154.979C612.956 154.979 614.434 153.831 614.964 152.252H631.261L635.132 137.115C635.742 136.966 636.291 136.637 636.701 136.145C637.206 135.538 637.446 134.77 637.374 133.983C637.305 133.22 636.944 132.558 636.419 132.078L645.522 96.479V152.252H663.534C664.127 153.711 665.556 154.744 667.224 154.744C669.423 154.744 671.211 152.955 671.211 150.756C671.211 149.385 670.515 148.173 669.456 147.455ZM467.919 115.196C467.217 115.626 466.743 116.393 466.743 117.274C466.743 118.156 467.217 118.923 467.919 119.353V146.079L454.078 117.189L467.782 92.646C467.829 92.666 467.872 92.691 467.919 92.709V115.196ZM466.217 147.937L445.432 135.327C445.327 134.807 445.069 134.348 444.689 134.005L453.709 117.849L467.739 147.134C467.169 147.288 466.653 147.565 466.217 147.937ZM465.005 149.731H444.236V137.92C444.906 137.544 445.366 136.863 445.458 136.066L465.763 148.384C465.43 148.775 465.17 149.232 465.005 149.731ZM444.236 99.85C444.468 99.72 444.667 99.544 444.846 99.349L453.383 117.168L444.236 133.551V99.85ZM444.236 71.035C445.946 70.744 447.273 69.366 447.501 67.636H457.449C457.715 68.059 458.114 68.379 458.576 68.577L444.414 95.733C444.353 95.691 444.301 95.637 444.236 95.6V71.035ZM473.277 88.98C473.277 86.781 471.489 84.992 469.289 84.992C467.091 84.992 465.303 86.781 465.303 88.98C465.303 90.421 466.081 91.67 467.232 92.367L453.752 116.508L445.244 98.751C445.395 98.438 445.496 98.096 445.496 97.725C445.496 97.12 445.258 96.581 444.89 96.156L459.186 68.744C459.296 68.76 459.402 68.787 459.515 68.787C460.863 68.787 461.959 67.691 461.959 66.344C461.959 64.996 460.863 63.9 459.515 63.9C458.617 63.9 457.84 64.392 457.415 65.115H446.996C446.303 63.933 445.033 63.129 443.568 63.129C441.368 63.129 439.58 64.917 439.58 67.115C439.58 68.642 440.451 69.954 441.714 70.624V95.685C441.05 96.122 440.61 96.872 440.61 97.725C440.61 98.578 441.05 99.328 441.714 99.765V133.754C441.05 134.192 440.61 134.942 440.61 135.795C440.61 136.648 441.05 137.398 441.714 137.835V152.252H465.019C465.556 153.821 467.028 154.958 468.776 154.958C470.974 154.958 472.762 153.169 472.762 150.971C472.762 149.369 471.807 147.993 470.441 147.36V119.361C471.151 118.933 471.631 118.162 471.631 117.274C471.631 116.387 471.151 115.616 470.441 115.188V92.777C472.075 92.28 473.277 90.776 473.277 88.98ZM560.212 82.304C560.171 82.303 560.132 82.292 560.09 82.292C559.03 82.292 558.07 82.711 557.36 83.39L530.557 67.636H560.212V82.304ZM556.13 86.01H536.6C536.156 85.396 535.439 84.992 534.625 84.992C533.278 84.992 532.181 86.089 532.181 87.436C532.181 88.394 532.74 89.218 533.546 89.617V104.978C533.344 105.119 533.174 105.297 533.023 105.49L511.134 88.854C511.257 88.537 511.346 88.204 511.346 87.843C511.346 87.02 510.99 86.284 510.431 85.763L525.744 68.11C526.181 68.529 526.771 68.787 527.422 68.787C528.267 68.787 529.001 68.349 529.44 67.696L556.944 83.862C556.483 84.468 556.186 85.204 556.13 86.01ZM510.509 135C510.322 134.882 510.126 134.774 509.92 134.688V115.789C510.883 115.301 511.552 114.311 511.552 113.159C511.552 112.007 510.883 111.017 509.92 110.529V90.298C510.295 90.079 510.605 89.769 510.847 89.412L532.705 106.024C532.576 106.321 532.49 106.641 532.49 106.986C532.49 107.445 532.628 107.869 532.85 108.236L510.509 135ZM506.331 86.01H483.254V70.752C484.493 70.198 485.387 69.03 485.571 67.636H525.338L509.933 85.395C509.509 85.146 509.022 84.992 508.495 84.992C507.625 84.992 506.855 85.393 506.331 86.01ZM562.734 65.115H529.523C529.098 64.392 528.321 63.9 527.422 63.9C526.525 63.9 525.747 64.392 525.322 65.115H485.065C484.372 63.933 483.103 63.129 481.637 63.129C479.438 63.129 477.65 64.917 477.65 67.115C477.65 69.002 478.97 70.578 480.733 70.99V88.531H505.738C505.957 89.409 506.576 90.13 507.399 90.473V110.458C506.363 110.918 505.636 111.953 505.636 113.159C505.636 114.364 506.363 115.399 507.399 115.86V134.519C505.68 134.962 504.401 136.512 504.401 138.367C504.401 140.565 506.19 142.354 508.388 142.354C510.586 142.354 512.375 140.565 512.375 138.367C512.375 137.171 511.84 136.103 511.004 135.372L533.245 108.726C533.341 108.82 533.436 108.916 533.546 108.992V149.731H523.483C523.104 148.872 522.246 148.27 521.249 148.27C519.902 148.27 518.806 149.366 518.806 150.714C518.806 152.061 519.902 153.157 521.249 153.157C522.011 153.157 522.683 152.8 523.132 152.252H536.067V109.138C536.842 108.727 537.377 107.922 537.377 106.986C537.377 106.049 536.842 105.244 536.067 104.833V89.399C536.375 89.172 536.624 88.875 536.798 88.531H556.805C557.525 89.577 558.728 90.266 560.09 90.266C562.288 90.266 564.077 88.477 564.077 86.279C564.077 85.098 563.551 84.047 562.734 83.317V65.115Z" fill="white"/>
<path fill-rule="evenodd" clip-rule="evenodd" d="M441.709 175.574C441.709 175.352 441.886 175.153 442.13 175.153H450.865C451.11 175.153 451.287 175.352 451.287 175.574V176.218C451.287 176.439 451.11 176.638 450.865 176.638H443.416V182.714H449.78C450.001 182.714 450.2 182.913 450.2 183.135V183.777C450.2 183.999 450.001 184.199 449.78 184.199H443.416V190.252C443.416 190.473 443.217 190.673 442.995 190.673H442.13C441.886 190.673 441.709 190.473 441.709 190.252V175.574Z" fill="white"/>
<path fill-rule="evenodd" clip-rule="evenodd" d="M454.633 175.574C454.633 175.352 454.81 175.153 455.054 175.153H463.789C464.033 175.153 464.211 175.352 464.211 175.574V176.218C464.211 176.439 464.033 176.638 463.789 176.638H456.34V182.048H462.703C462.925 182.048 463.124 182.248 463.124 182.47V183.112C463.124 183.356 462.925 183.534 462.703 183.534H456.34V189.187H463.789C464.033 189.187 464.211 189.387 464.211 189.608V190.252C464.211 190.473 464.033 190.673 463.789 190.673H455.054C454.81 190.673 454.633 190.473 454.633 190.252V175.574Z" fill="white"/>
<path fill-rule="evenodd" clip-rule="evenodd" d="M467.955 175.574C467.955 175.352 468.133 175.153 468.377 175.153H469.241C469.463 175.153 469.662 175.352 469.662 175.574V189.187H476.048C476.292 189.187 476.469 189.387 476.469 189.608V190.252C476.469 190.473 476.292 190.673 476.048 190.673H468.377C468.133 190.673 467.955 190.473 467.955 190.252V175.574Z" fill="white"/>
<path fill-rule="evenodd" clip-rule="evenodd" d="M488.019 185.396C486.932 182.979 485.867 180.541 484.781 178.124H484.604L481.367 185.396H488.019ZM477.488 190.096L484.227 175.176C484.294 175.042 484.405 174.931 484.604 174.931H484.825C485.026 174.931 485.136 175.042 485.202 175.176L491.899 190.096C492.031 190.385 491.854 190.673 491.522 190.673H490.635C490.435 190.673 490.302 190.54 490.258 190.429L488.617 186.77H480.746L479.128 190.429C479.083 190.54 478.95 190.673 478.751 190.673H477.864C477.531 190.673 477.354 190.385 477.488 190.096Z" fill="white"/>
<path fill-rule="evenodd" clip-rule="evenodd" d="M499.922 189.142C503.558 189.142 506.108 186.549 506.108 182.89C506.108 179.255 503.558 176.661 499.922 176.661H496.442V189.142H499.922ZM494.756 175.574C494.756 175.352 494.934 175.153 495.156 175.153H500.121C504.401 175.153 507.904 178.634 507.904 182.89C507.904 187.192 504.401 190.673 500.121 190.673H495.156C494.934 190.673 494.756 190.473 494.756 190.252V175.574Z" fill="white"/>
<path fill-rule="evenodd" clip-rule="evenodd" d="M520.052 185.396C518.966 182.979 517.902 180.541 516.816 178.124H516.638L513.401 185.396H520.052ZM509.521 190.096L516.261 175.176C516.327 175.042 516.439 174.931 516.638 174.931H516.86C517.059 174.931 517.17 175.042 517.237 175.176L523.932 190.096C524.065 190.385 523.888 190.673 523.555 190.673H522.668C522.469 190.673 522.336 190.54 522.291 190.429L520.651 186.77H512.781L511.161 190.429C511.117 190.54 510.985 190.673 510.784 190.673H509.898C509.566 190.673 509.388 190.385 509.521 190.096Z" fill="white"/>
<path fill-rule="evenodd" clip-rule="evenodd" d="M528.652 176.638H524.794C524.55 176.638 524.373 176.439 524.373 176.218V175.574C524.373 175.352 524.55 175.153 524.794 175.153H534.195C534.439 175.153 534.615 175.352 534.615 175.574V176.218C534.615 176.439 534.439 176.638 534.195 176.638H530.337V190.252C530.337 190.473 530.137 190.673 529.915 190.673H529.073C528.852 190.673 528.652 190.473 528.652 190.252V176.638Z" fill="white"/>
<path fill-rule="evenodd" clip-rule="evenodd" d="M537.719 175.574C537.719 175.352 537.918 175.153 538.14 175.153H538.983C539.227 175.153 539.404 175.352 539.404 175.574V184.908C539.404 187.435 540.978 189.32 543.572 189.32C546.188 189.32 547.784 187.48 547.784 184.953V175.574C547.784 175.352 547.962 175.153 548.205 175.153H549.048C549.27 175.153 549.469 175.352 549.469 175.574V185.041C549.469 188.411 547.075 190.894 543.572 190.894C540.091 190.894 537.719 188.411 537.719 185.041V175.574Z" fill="white"/>
<path fill-rule="evenodd" clip-rule="evenodd" d="M554.121 175.33C554.121 175.108 554.321 174.931 554.542 174.931H554.875C555.03 174.931 555.141 174.975 555.23 175.108L565.096 187.391C565.118 187.391 565.118 187.391 565.14 187.391V175.574C565.14 175.352 565.318 175.153 565.562 175.153H566.337C566.559 175.153 566.759 175.352 566.759 175.574V190.495C566.759 190.717 566.559 190.894 566.337 190.894H566.16C566.005 190.894 565.894 190.85 565.806 190.717L555.762 178.19H555.739V190.252C555.739 190.473 555.562 190.673 555.319 190.673H554.542C554.321 190.673 554.121 190.473 554.121 190.252V175.33Z" fill="white"/>
<path fill-rule="evenodd" clip-rule="evenodd" d="M571.568 175.685C571.568 175.397 571.79 175.153 572.1 175.153H572.743C573.031 175.153 573.276 175.397 573.276 175.685V182.093L580.193 175.375C580.281 175.263 580.481 175.153 580.613 175.153H581.7C582.099 175.153 582.321 175.596 581.966 175.929L574.96 182.602L582.299 189.985C582.454 190.14 582.409 190.673 581.922 190.673H580.791C580.636 190.673 580.437 190.584 580.392 190.517L573.276 183.223V190.14C573.276 190.429 573.031 190.673 572.743 190.673H572.1C571.79 190.673 571.568 190.429 571.568 190.14V175.685Z" fill="white"/>
<path fill-rule="evenodd" clip-rule="evenodd" d="M599.878 185.396C598.791 182.979 597.728 180.541 596.641 178.124H596.464L593.227 185.396H599.878ZM589.347 190.096L596.087 175.176C596.154 175.042 596.264 174.931 596.464 174.931H596.686C596.885 174.931 596.995 175.042 597.063 175.176L603.758 190.096C603.891 190.385 603.714 190.673 603.381 190.673H602.494C602.295 190.673 602.161 190.54 602.117 190.429L600.477 186.77H592.606L590.987 190.429C590.944 190.54 590.81 190.673 590.611 190.673H589.724C589.391 190.673 589.214 190.385 589.347 190.096Z" fill="white"/>
<path fill-rule="evenodd" clip-rule="evenodd" d="M610.162 188.699L610.607 188.189C610.916 187.812 611.138 188.013 611.36 188.256C611.737 188.678 612.579 189.409 613.71 189.409C614.885 189.409 616.26 188.655 616.26 186.305V175.574C616.26 175.352 616.437 175.153 616.681 175.153H617.546C617.789 175.153 617.967 175.352 617.967 175.574V186.261C617.967 189.343 616.105 190.894 613.71 190.894C611.581 190.894 610.518 189.72 610.141 189.254C610.03 189.076 610.03 188.854 610.162 188.699Z" fill="white"/>
<path fill-rule="evenodd" clip-rule="evenodd" d="M630.847 172.071C630.847 171.429 631.357 170.919 631.978 170.919C632.62 170.919 633.13 171.429 633.13 172.071C633.13 172.692 632.62 173.202 631.978 173.202C631.357 173.202 630.847 172.692 630.847 172.071ZM626.168 172.071C626.168 171.429 626.678 170.919 627.299 170.919C627.943 170.919 628.452 171.429 628.452 172.071C628.452 172.692 627.943 173.202 627.299 173.202C626.678 173.202 626.168 172.692 626.168 172.071ZM629.627 189.343C633.153 189.343 636.057 186.46 636.057 182.935C636.057 179.41 633.153 176.483 629.627 176.483C626.102 176.483 623.22 179.41 623.22 182.935C623.22 186.46 626.102 189.343 629.627 189.343ZM629.627 174.931C634.062 174.931 637.609 178.501 637.609 182.935C637.609 187.369 634.062 190.894 629.627 190.894C625.193 190.894 621.668 187.369 621.668 182.935C621.668 178.501 625.193 174.931 629.627 174.931Z" fill="white"/>
<path fill-rule="evenodd" clip-rule="evenodd" d="M639.202 175.729C639.07 175.441 639.246 175.153 639.579 175.153H640.466C640.665 175.153 640.799 175.286 640.843 175.397L646.363 187.812H646.452L651.973 175.397C652.017 175.286 652.172 175.153 652.35 175.153H653.237C653.57 175.153 653.746 175.441 653.613 175.729L646.873 190.65C646.807 190.784 646.674 190.894 646.496 190.894H646.275C646.119 190.894 645.964 190.784 645.898 190.65L639.202 175.729Z" fill="white"/>
<path fill-rule="evenodd" clip-rule="evenodd" d="M664.875 173.202L665.984 170.076C666.05 169.854 666.184 169.654 666.406 169.654H667.271C667.692 169.654 667.824 169.921 667.669 170.209L665.94 173.291C665.851 173.468 665.696 173.623 665.54 173.623H665.297C665.075 173.623 664.809 173.424 664.875 173.202ZM661.195 173.202L662.303 170.076C662.369 169.854 662.503 169.654 662.725 169.654H663.589C664.01 169.654 664.144 169.921 663.988 170.209L662.259 173.291C662.17 173.468 662.015 173.623 661.86 173.623H661.615C661.394 173.623 661.128 173.424 661.195 173.202ZM663.146 189.343C666.671 189.343 669.576 186.46 669.576 182.935C669.576 179.41 666.671 176.483 663.146 176.483C659.62 176.483 656.738 179.41 656.738 182.935C656.738 186.46 659.62 189.343 663.146 189.343ZM663.146 174.931C667.58 174.931 671.128 178.501 671.128 182.935C671.128 187.369 667.58 190.894 663.146 190.894C658.711 190.894 655.188 187.369 655.188 182.935C655.188 178.501 658.711 174.931 663.146 174.931Z" fill="white"/>
</svg>
