<?xml version="1.0" encoding="UTF-8"?>
<svg width="741px" height="254px" viewBox="0 0 741 254" version="1.1" xmlns="http://www.w3.org/2000/svg" xmlns:xlink="http://www.w3.org/1999/xlink">
    <title>Artboard</title>
    <g id="Artboard" stroke="none" stroke-width="1" fill="none" fill-rule="evenodd">
        <g id="Group" transform="translate(70.000000, 63.000000)">
            <path d="M180.222,122.719 C180.268,123.178 180.36,123.88 180.91,124.064 C181.292,124.186 181.644,124.186 181.781,124.186 C181.842,124.186 181.888,124.217 181.888,124.278 C181.888,124.354 181.766,124.401 181.613,124.401 C181.307,124.401 179.81,124.369 179.321,124.323 C178.999,124.293 178.94,124.247 178.94,124.186 C178.94,124.141 178.969,124.095 179.03,124.078 C179.107,124.064 179.121,123.865 179.092,123.621 L178.45,117.051 L178.419,117.051 L175.179,123.682 C174.905,124.247 174.828,124.369 174.705,124.369 C174.583,124.369 174.507,124.247 174.248,123.774 C173.896,123.132 173.009,121.467 172.674,120.763 C172.276,119.938 171.192,117.753 170.962,117.218 L170.901,117.218 L170.382,123.086 C170.365,123.285 170.365,123.53 170.365,123.743 C170.365,123.941 170.488,124.064 170.686,124.11 C170.916,124.171 171.115,124.186 171.206,124.186 C171.253,124.186 171.314,124.232 171.314,124.278 C171.314,124.369 171.221,124.401 171.069,124.401 C170.564,124.401 169.923,124.354 169.816,124.354 C169.693,124.354 169.052,124.401 168.685,124.401 C168.548,124.401 168.456,124.369 168.456,124.278 C168.456,124.232 168.517,124.186 168.593,124.186 C168.7,124.186 168.793,124.171 168.991,124.141 C169.434,124.064 169.448,123.59 169.51,123.1 L170.488,114.62 C170.504,114.483 170.564,114.391 170.641,114.391 C170.732,114.391 170.84,114.437 170.916,114.589 L174.981,122.658 L178.893,114.605 C178.954,114.483 179.015,114.391 179.107,114.391 C179.199,114.391 179.275,114.498 179.306,114.742 L180.222,122.719 Z M158.488,118.333 C158.488,116.317 158.488,115.95 158.458,115.537 C158.428,115.124 158.351,114.88 157.908,114.819 C157.801,114.804 157.572,114.787 157.45,114.787 C157.404,114.787 157.343,114.728 157.343,114.681 C157.343,114.605 157.404,114.574 157.556,114.574 C158.168,114.574 158.977,114.605 159.099,114.605 C159.221,114.605 160.062,114.574 160.461,114.574 C160.613,114.574 160.689,114.605 160.689,114.681 C160.689,114.728 160.629,114.787 160.567,114.787 C160.475,114.787 160.399,114.787 160.231,114.819 C159.879,114.88 159.803,115.109 159.773,115.537 C159.742,115.95 159.742,116.317 159.742,118.333 L159.742,120.152 C159.742,122.032 160.155,122.811 160.735,123.33 C161.392,123.927 161.974,124.034 162.737,124.034 C163.563,124.034 164.356,123.667 164.815,123.117 C165.442,122.367 165.579,121.298 165.579,119.968 L165.579,118.333 C165.579,116.317 165.564,115.95 165.549,115.537 C165.534,115.124 165.456,114.88 165.013,114.819 C164.908,114.804 164.678,114.787 164.556,114.787 C164.495,114.787 164.448,114.728 164.448,114.681 C164.448,114.605 164.509,114.574 164.663,114.574 C165.258,114.574 166.038,114.605 166.114,114.605 C166.206,114.605 166.847,114.574 167.245,114.574 C167.398,114.574 167.459,114.605 167.459,114.681 C167.459,114.728 167.412,114.787 167.353,114.787 C167.26,114.787 167.184,114.787 167.016,114.819 C166.649,114.895 166.573,115.109 166.542,115.537 C166.512,115.95 166.527,116.317 166.527,118.333 L166.527,119.723 C166.527,121.13 166.343,122.704 165.275,123.621 C164.297,124.462 163.256,124.568 162.463,124.568 C162.018,124.568 160.613,124.538 159.666,123.652 C159.009,123.041 158.488,122.139 158.488,120.244 L158.488,118.333 Z M154.452,120.626 C154.452,121.878 154.452,122.902 154.513,123.437 C154.56,123.819 154.605,124.064 155.003,124.125 C155.201,124.156 155.491,124.186 155.614,124.186 C155.69,124.186 155.72,124.247 155.72,124.293 C155.72,124.354 155.66,124.401 155.507,124.401 C154.758,124.401 153.886,124.354 153.826,124.354 C153.749,124.354 152.908,124.401 152.496,124.401 C152.359,124.401 152.282,124.369 152.282,124.293 C152.282,124.247 152.313,124.186 152.389,124.186 C152.511,124.186 152.68,124.156 152.802,124.125 C153.062,124.064 153.108,123.819 153.153,123.437 C153.215,122.902 153.23,121.878 153.23,120.626 L153.23,118.333 C153.23,116.317 153.23,115.95 153.198,115.537 C153.169,115.095 153.062,114.895 152.771,114.834 C152.619,114.804 152.45,114.787 152.359,114.787 C152.297,114.787 152.252,114.728 152.252,114.681 C152.252,114.605 152.313,114.574 152.465,114.574 C152.908,114.574 153.749,114.605 153.826,114.605 C153.886,114.605 154.758,114.574 155.171,114.574 C155.323,114.574 155.384,114.605 155.384,114.681 C155.384,114.728 155.323,114.787 155.277,114.787 C155.186,114.787 155.093,114.787 154.942,114.819 C154.575,114.895 154.497,115.078 154.468,115.537 C154.452,115.95 154.452,116.317 154.452,118.333 L154.452,120.626 Z M144.119,119.433 C144.119,119.511 144.149,119.555 144.211,119.601 C144.41,119.709 145.097,119.8 145.693,119.8 C146.014,119.8 146.381,119.785 146.702,119.572 C147.159,119.266 147.511,118.577 147.511,117.584 C147.511,115.965 146.626,115.032 145.189,115.032 C144.792,115.032 144.364,115.078 144.225,115.109 C144.166,115.139 144.119,115.185 144.119,115.262 L144.119,119.433 Z M142.958,118.333 C142.958,116.317 142.958,115.95 142.927,115.537 C142.897,115.095 142.821,114.88 142.377,114.819 C142.269,114.804 142.041,114.787 141.919,114.787 C141.873,114.787 141.812,114.728 141.812,114.681 C141.812,114.605 141.873,114.574 142.025,114.574 C142.636,114.574 143.538,114.605 143.614,114.605 C143.753,114.605 144.883,114.574 145.296,114.574 C146.152,114.574 147.1,114.65 147.802,115.139 C148.137,115.384 148.734,116.01 148.734,116.912 C148.734,117.875 148.337,118.807 147.083,119.877 C148.184,121.252 149.115,122.43 149.895,123.239 C150.614,123.972 151.056,124.095 151.393,124.141 C151.653,124.186 151.79,124.186 151.867,124.186 C151.944,124.186 151.99,124.247 151.99,124.293 C151.99,124.369 151.912,124.401 151.668,124.401 L150.827,124.401 C150.064,124.401 149.727,124.323 149.391,124.141 C148.811,123.834 148.322,123.208 147.557,122.23 C146.992,121.528 146.396,120.687 146.105,120.335 C146.044,120.274 146.014,120.259 145.922,120.259 L144.211,120.229 C144.149,120.229 144.119,120.259 144.119,120.335 L144.119,120.64 C144.119,121.894 144.119,122.902 144.18,123.437 C144.225,123.819 144.303,124.064 144.715,124.125 C144.899,124.156 145.189,124.186 145.311,124.186 C145.403,124.186 145.418,124.247 145.418,124.293 C145.418,124.354 145.357,124.401 145.203,124.401 C144.47,124.401 143.614,124.354 143.554,124.354 C143.538,124.354 142.636,124.401 142.224,124.401 C142.088,124.401 142.01,124.369 142.01,124.293 C142.01,124.247 142.041,124.186 142.117,124.186 C142.239,124.186 142.408,124.156 142.53,124.125 C142.79,124.064 142.821,123.819 142.881,123.437 C142.958,122.902 142.958,121.878 142.958,120.626 L142.958,118.333 Z M138.706,112.527 C138.782,112.664 138.706,112.709 138.645,112.709 C138.599,112.709 138.447,112.679 138.186,112.709 C137.438,112.786 136.369,113.138 135.863,113.352 C135.758,113.398 135.665,113.428 135.635,113.428 C135.604,113.428 135.559,113.398 135.559,113.337 C135.559,113.29 135.589,113.261 135.665,113.215 C136.215,112.831 137.637,111.975 137.743,111.916 C138.004,111.763 138.095,111.716 138.171,111.716 C138.218,111.716 138.249,111.747 138.325,111.853 C138.431,112.007 138.538,112.22 138.706,112.527 Z M134.535,118.333 C134.535,116.317 134.535,115.95 134.504,115.537 C134.474,115.095 134.396,114.88 133.953,114.819 C133.847,114.804 133.618,114.787 133.496,114.787 C133.449,114.787 133.388,114.728 133.388,114.681 C133.388,114.605 133.449,114.574 133.603,114.574 C134.215,114.574 135.085,114.605 135.161,114.605 C135.252,114.605 138.064,114.62 138.371,114.605 C138.631,114.589 138.875,114.543 138.982,114.528 C139.042,114.513 139.104,114.467 139.164,114.467 C139.21,114.467 139.227,114.528 139.227,114.589 C139.227,114.681 139.149,114.834 139.119,115.2 C139.104,115.323 139.073,115.904 139.042,116.056 C139.027,116.117 138.982,116.195 138.92,116.195 C138.843,116.195 138.814,116.132 138.814,116.026 C138.814,115.934 138.798,115.721 138.738,115.567 C138.645,115.354 138.508,115.262 137.775,115.17 C137.545,115.139 135.986,115.124 135.834,115.124 C135.772,115.124 135.758,115.17 135.758,115.262 L135.758,118.792 C135.758,118.884 135.758,118.929 135.834,118.929 C136.002,118.929 137.775,118.929 138.08,118.899 C138.401,118.868 138.599,118.853 138.738,118.716 C138.829,118.623 138.89,118.547 138.936,118.547 C138.982,118.547 139.012,118.577 139.012,118.655 C139.012,118.731 138.936,118.944 138.905,119.373 C138.875,119.633 138.843,120.122 138.843,120.213 C138.843,120.32 138.814,120.457 138.721,120.457 C138.66,120.457 138.631,120.411 138.631,120.335 C138.631,120.213 138.631,120.076 138.569,119.907 C138.523,119.723 138.401,119.572 137.882,119.511 C137.515,119.464 136.078,119.449 135.848,119.449 C135.772,119.449 135.758,119.495 135.758,119.54 L135.758,120.626 C135.758,121.069 135.741,122.582 135.758,122.841 C135.787,123.712 136.032,123.88 137.362,123.88 C137.714,123.88 138.355,123.88 138.706,123.743 C139.058,123.59 139.241,123.361 139.318,122.841 C139.349,122.689 139.379,122.643 139.455,122.643 C139.531,122.643 139.547,122.75 139.547,122.841 C139.547,122.933 139.44,123.819 139.364,124.095 C139.272,124.43 139.134,124.43 138.615,124.43 C137.606,124.43 136.826,124.401 136.277,124.386 C135.711,124.354 135.36,124.354 135.161,124.354 C135.13,124.354 134.87,124.354 134.581,124.369 C134.321,124.386 134.015,124.401 133.801,124.401 C133.663,124.401 133.587,124.369 133.587,124.293 C133.587,124.247 133.618,124.186 133.694,124.186 C133.817,124.186 133.985,124.141 134.107,124.125 C134.366,124.078 134.396,123.819 134.459,123.437 C134.535,122.902 134.535,121.878 134.535,120.626 L134.535,118.333 Z M128.145,120.626 C128.145,121.878 128.145,122.902 128.206,123.437 C128.251,123.819 128.314,124.064 128.725,124.125 C128.908,124.156 129.214,124.186 129.337,124.186 C129.429,124.186 129.444,124.247 129.444,124.293 C129.444,124.354 129.383,124.401 129.229,124.401 C128.496,124.401 127.64,124.354 127.564,124.354 C127.503,124.354 126.571,124.401 126.173,124.401 C126.021,124.401 125.96,124.369 125.96,124.293 C125.96,124.247 125.991,124.201 126.067,124.201 C126.189,124.201 126.342,124.171 126.464,124.141 C126.739,124.078 126.816,123.819 126.862,123.437 C126.923,122.902 126.923,121.878 126.923,120.626 L126.923,115.17 L124.982,115.2 C124.141,115.217 123.82,115.307 123.622,115.613 C123.468,115.843 123.453,115.934 123.407,116.026 C123.378,116.132 123.331,116.148 123.27,116.148 C123.239,116.148 123.179,116.117 123.179,116.041 C123.179,115.904 123.453,114.742 123.468,114.635 C123.5,114.559 123.561,114.391 123.606,114.391 C123.698,114.391 123.835,114.498 124.202,114.543 C124.584,114.589 125.104,114.605 125.258,114.605 L130.329,114.605 C130.774,114.605 131.079,114.574 131.293,114.543 C131.492,114.513 131.614,114.483 131.674,114.483 C131.737,114.483 131.737,114.559 131.737,114.635 C131.737,115.032 131.691,115.965 131.691,116.117 C131.691,116.224 131.63,116.285 131.568,116.285 C131.507,116.285 131.476,116.24 131.461,116.056 L131.446,115.919 C131.4,115.521 131.109,115.232 129.825,115.2 L128.145,115.17 L128.145,120.626 Z M119.737,123.789 C121.158,123.789 121.525,123.56 121.83,123.193 C121.968,123.024 122.06,122.674 122.105,122.489 C122.136,122.367 122.182,122.291 122.258,122.291 C122.334,122.291 122.364,122.337 122.364,122.582 C122.364,122.994 122.182,123.758 122.09,124.078 C122.014,124.401 121.997,124.415 121.693,124.415 C119.447,124.415 117.169,124.354 114.816,124.354 C114.663,124.354 114.572,124.339 114.572,124.247 C114.572,124.186 114.586,124.095 114.755,123.85 C116.772,120.931 118.759,118.043 120.608,115.154 L117.765,115.154 C117.077,115.154 116.283,115.139 115.855,115.369 C115.381,115.613 115.136,116.087 115.091,116.393 C115.06,116.591 114.984,116.621 114.907,116.621 C114.846,116.621 114.831,116.561 114.831,116.454 C114.831,116.301 115.03,115.124 115.107,114.728 C115.121,114.543 115.152,114.483 115.229,114.483 C115.351,114.483 115.442,114.559 115.794,114.574 C117.077,114.62 117.719,114.605 118.147,114.605 L121.906,114.605 C122.105,114.605 122.182,114.635 122.182,114.711 C122.182,114.772 122.166,114.865 122.105,114.941 C120.149,117.936 118.193,120.84 116.16,123.789 L119.737,123.789 Z M106.76,124.217 C106.576,124.125 106.561,124.078 106.561,123.728 C106.561,123.086 106.622,122.567 106.637,122.352 C106.637,122.215 106.668,122.139 106.744,122.139 C106.821,122.139 106.867,122.185 106.867,122.291 C106.867,122.398 106.867,122.582 106.913,122.765 C107.126,123.712 108.135,124.049 109.037,124.049 C110.366,124.049 111.054,123.3 111.054,122.322 C111.054,121.389 110.549,120.946 109.358,120.06 L108.747,119.601 C107.295,118.517 106.821,117.721 106.821,116.821 C106.821,115.293 108.028,114.376 109.801,114.376 C110.336,114.376 110.87,114.452 111.192,114.528 C111.451,114.589 111.558,114.589 111.665,114.589 C111.772,114.589 111.803,114.605 111.803,114.681 C111.803,114.742 111.742,115.17 111.742,116.056 C111.742,116.254 111.726,116.347 111.634,116.347 C111.543,116.347 111.527,116.285 111.512,116.179 C111.497,116.026 111.39,115.675 111.314,115.537 C111.221,115.384 110.779,114.895 109.571,114.895 C108.593,114.895 107.783,115.384 107.783,116.301 C107.783,117.126 108.197,117.599 109.526,118.501 L109.908,118.762 C111.543,119.877 112.109,120.778 112.109,121.894 C112.109,122.658 111.818,123.484 110.855,124.11 C110.29,124.476 109.449,124.568 108.716,124.568 C108.089,124.568 107.309,124.476 106.76,124.217 Z M103.167,120.626 C103.167,121.878 103.167,122.902 103.228,123.437 C103.274,123.819 103.32,124.064 103.717,124.125 C103.916,124.156 104.206,124.186 104.328,124.186 C104.405,124.186 104.435,124.247 104.435,124.293 C104.435,124.354 104.374,124.401 104.221,124.401 C103.472,124.401 102.601,124.354 102.54,124.354 C102.464,124.354 101.623,124.401 101.211,124.401 C101.073,124.401 100.997,124.369 100.997,124.293 C100.997,124.247 101.027,124.186 101.104,124.186 C101.226,124.186 101.394,124.156 101.516,124.125 C101.776,124.064 101.822,123.819 101.868,123.437 C101.929,122.902 101.944,121.878 101.944,120.626 L101.944,118.333 C101.944,116.317 101.944,115.95 101.914,115.537 C101.883,115.095 101.776,114.895 101.486,114.834 C101.333,114.804 101.165,114.787 101.073,114.787 C101.012,114.787 100.966,114.728 100.966,114.681 C100.966,114.605 101.027,114.574 101.181,114.574 C101.623,114.574 102.464,114.605 102.54,114.605 C102.601,114.605 103.472,114.574 103.885,114.574 C104.038,114.574 104.099,114.605 104.099,114.681 C104.099,114.728 104.038,114.787 103.992,114.787 C103.9,114.787 103.809,114.787 103.655,114.819 C103.289,114.895 103.213,115.078 103.182,115.537 C103.167,115.95 103.167,116.317 103.167,118.333 L103.167,120.626 Z M90.067,122.628 C90.097,123.697 90.219,124.019 90.586,124.11 C90.831,124.171 91.136,124.186 91.259,124.186 C91.32,124.186 91.365,124.232 91.365,124.293 C91.365,124.369 91.274,124.401 91.121,124.401 C90.357,124.401 89.822,124.354 89.7,124.354 C89.577,124.354 89.012,124.401 88.401,124.401 C88.263,124.401 88.187,124.386 88.187,124.293 C88.187,124.232 88.233,124.186 88.294,124.186 C88.401,124.186 88.646,124.171 88.844,124.11 C89.18,124.019 89.226,123.667 89.226,122.489 L89.226,115.048 C89.226,114.528 89.302,114.391 89.409,114.391 C89.563,114.391 89.792,114.65 89.929,114.787 C90.143,115.002 92.099,117.08 94.177,119.22 C95.507,120.596 96.943,122.139 97.356,122.567 L97.218,116.056 C97.203,115.217 97.127,114.926 96.715,114.85 C96.47,114.804 96.164,114.787 96.057,114.787 C95.965,114.787 95.949,114.711 95.949,114.665 C95.949,114.589 96.057,114.574 96.21,114.574 C96.821,114.574 97.463,114.605 97.615,114.605 C97.768,114.605 98.211,114.574 98.761,114.574 C98.899,114.574 99.006,114.589 99.006,114.665 C99.006,114.711 98.945,114.787 98.854,114.787 C98.793,114.787 98.685,114.787 98.532,114.819 C98.089,114.909 98.059,115.17 98.059,115.95 L98.028,123.56 C98.028,124.415 98.013,124.492 97.921,124.492 C97.783,124.492 97.646,124.386 96.898,123.697 C96.76,123.575 94.82,121.665 93.398,120.183 C91.839,118.547 90.326,116.958 89.914,116.499 L90.067,122.628 Z M85.068,120.626 C85.068,121.878 85.068,122.902 85.129,123.437 C85.175,123.819 85.221,124.064 85.618,124.125 C85.817,124.156 86.107,124.186 86.229,124.186 C86.306,124.186 86.337,124.247 86.337,124.293 C86.337,124.354 86.276,124.401 86.123,124.401 C85.373,124.401 84.503,124.354 84.442,124.354 C84.365,124.354 83.525,124.401 83.112,124.401 C82.975,124.401 82.899,124.369 82.899,124.293 C82.899,124.247 82.928,124.186 83.005,124.186 C83.128,124.186 83.295,124.156 83.418,124.125 C83.677,124.064 83.723,123.819 83.769,123.437 C83.83,122.902 83.845,121.878 83.845,120.626 L83.845,118.333 C83.845,116.317 83.845,115.95 83.816,115.537 C83.784,115.095 83.677,114.895 83.387,114.834 C83.234,114.804 83.066,114.787 82.975,114.787 C82.913,114.787 82.867,114.728 82.867,114.681 C82.867,114.605 82.928,114.574 83.082,114.574 C83.525,114.574 84.365,114.605 84.442,114.605 C84.503,114.605 85.373,114.574 85.786,114.574 C85.939,114.574 86,114.605 86,114.681 C86,114.728 85.939,114.787 85.894,114.787 C85.801,114.787 85.71,114.787 85.557,114.819 C85.19,114.895 85.114,115.078 85.084,115.537 C85.068,115.95 85.068,116.317 85.068,118.333 L85.068,120.626 Z M79.516,122.43 C79.577,122.978 79.683,123.834 80.341,124.049 C80.783,124.186 81.182,124.186 81.334,124.186 C81.41,124.186 81.456,124.201 81.456,124.263 C81.456,124.354 81.319,124.401 81.135,124.401 C80.799,124.401 79.149,124.354 78.583,124.308 C78.232,124.278 78.155,124.232 78.155,124.156 C78.155,124.095 78.186,124.064 78.262,124.049 C78.339,124.034 78.354,123.774 78.323,123.498 L77.59,115.613 L77.544,115.613 L73.8,123.56 C73.48,124.232 73.434,124.369 73.297,124.369 C73.189,124.369 73.113,124.217 72.822,123.667 C72.425,122.918 71.111,120.274 71.035,120.122 C70.897,119.846 69.185,116.179 69.018,115.765 L68.956,115.765 L68.345,122.856 C68.33,123.1 68.33,123.376 68.33,123.636 C68.33,123.865 68.497,124.064 68.727,124.11 C68.987,124.171 69.216,124.186 69.308,124.186 C69.369,124.186 69.43,124.217 69.43,124.263 C69.43,124.369 69.338,124.401 69.155,124.401 C68.59,124.401 67.856,124.354 67.734,124.354 C67.596,124.354 66.862,124.401 66.45,124.401 C66.297,124.401 66.19,124.369 66.19,124.263 C66.19,124.217 66.267,124.186 66.343,124.186 C66.465,124.186 66.572,124.186 66.801,124.141 C67.306,124.049 67.352,123.452 67.413,122.872 L68.513,112.909 C68.529,112.741 68.59,112.633 68.681,112.633 C68.773,112.633 68.834,112.694 68.91,112.863 L73.587,122.474 L78.079,112.878 C78.14,112.741 78.201,112.633 78.309,112.633 C78.415,112.633 78.461,112.755 78.492,113.046 L79.516,122.43 Z M241.632,102.281 C241.632,103.535 241.632,104.557 241.693,105.093 C241.739,105.474 241.783,105.719 242.181,105.78 C242.38,105.811 242.671,105.841 242.793,105.841 C242.869,105.841 242.899,105.903 242.899,105.949 C242.899,106.01 242.839,106.056 242.686,106.056 C241.937,106.056 241.065,106.01 241.005,106.01 C240.928,106.01 240.087,106.056 239.676,106.056 C239.538,106.056 239.461,106.025 239.461,105.949 C239.461,105.903 239.492,105.841 239.568,105.841 C239.69,105.841 239.859,105.811 239.981,105.78 C240.24,105.719 240.287,105.474 240.331,105.093 C240.394,104.557 240.409,103.535 240.409,102.281 L240.409,99.99 C240.409,97.971 240.409,97.604 240.378,97.193 C240.348,96.748 240.24,96.55 239.95,96.489 C239.798,96.459 239.629,96.444 239.538,96.444 C239.476,96.444 239.431,96.382 239.431,96.337 C239.431,96.26 239.492,96.23 239.644,96.23 C240.087,96.23 240.928,96.26 241.005,96.26 C241.065,96.26 241.937,96.23 242.35,96.23 C242.502,96.23 242.563,96.26 242.563,96.337 C242.563,96.382 242.502,96.444 242.456,96.444 C242.365,96.444 242.273,96.444 242.12,96.474 C241.754,96.55 241.677,96.734 241.646,97.193 C241.632,97.604 241.632,97.971 241.632,99.99 L241.632,102.281 Z M234.415,101.899 C234.476,101.899 234.476,101.868 234.461,101.807 L233.131,98.247 C233.053,98.049 232.977,98.049 232.901,98.247 L231.649,101.807 C231.633,101.868 231.649,101.899 231.694,101.899 L234.415,101.899 Z M232.916,96.489 C233.085,96.061 233.146,95.985 233.238,95.985 C233.375,95.985 233.42,96.168 233.559,96.459 C233.803,97.009 235.958,102.372 236.783,104.345 C237.273,105.506 237.639,105.673 237.928,105.765 C238.128,105.826 238.326,105.841 238.464,105.841 C238.54,105.841 238.632,105.872 238.632,105.949 C238.632,106.025 238.479,106.056 238.326,106.056 C238.128,106.056 237.134,106.056 236.202,106.025 C235.943,106.01 235.728,106.01 235.728,105.934 C235.728,105.872 235.76,105.872 235.821,105.841 C235.897,105.811 236.034,105.704 235.943,105.491 L234.735,102.511 C234.705,102.45 234.689,102.434 234.613,102.434 L231.51,102.434 C231.449,102.434 231.405,102.465 231.373,102.54 L230.609,104.619 C230.486,104.939 230.41,105.262 230.41,105.491 C230.41,105.75 230.64,105.841 230.869,105.841 L230.991,105.841 C231.097,105.841 231.129,105.888 231.129,105.949 C231.129,106.025 231.052,106.056 230.93,106.056 C230.609,106.056 229.875,106.01 229.723,106.01 C229.586,106.01 228.913,106.056 228.363,106.056 C228.195,106.056 228.104,106.025 228.104,105.949 C228.104,105.888 228.163,105.841 228.226,105.841 C228.317,105.841 228.515,105.826 228.622,105.811 C229.234,105.735 229.493,105.276 229.753,104.619 L232.916,96.489 Z M226.146,102.281 C226.146,103.535 226.146,104.557 226.207,105.093 C226.254,105.474 226.299,105.719 226.697,105.78 C226.895,105.811 227.185,105.841 227.308,105.841 C227.384,105.841 227.414,105.903 227.414,105.949 C227.414,106.01 227.354,106.056 227.2,106.056 C226.452,106.056 225.58,106.01 225.52,106.01 C225.443,106.01 224.602,106.056 224.19,106.056 C224.053,106.056 223.976,106.025 223.976,105.949 C223.976,105.903 224.007,105.841 224.083,105.841 C224.205,105.841 224.374,105.811 224.496,105.78 C224.755,105.719 224.801,105.474 224.846,105.093 C224.909,104.557 224.924,103.535 224.924,102.281 L224.924,99.99 C224.924,97.971 224.924,97.604 224.892,97.193 C224.863,96.748 224.755,96.55 224.465,96.489 C224.312,96.459 224.144,96.444 224.053,96.444 C223.99,96.444 223.946,96.382 223.946,96.337 C223.946,96.26 224.007,96.23 224.159,96.23 C224.602,96.23 225.443,96.26 225.52,96.26 C225.58,96.26 226.452,96.23 226.865,96.23 C227.017,96.23 227.078,96.26 227.078,96.337 C227.078,96.382 227.017,96.444 226.971,96.444 C226.88,96.444 226.787,96.444 226.635,96.474 C226.268,96.55 226.191,96.734 226.161,97.193 C226.146,97.604 226.146,97.971 226.146,99.99 L226.146,102.281 Z M219.647,102.739 C219.647,101.685 219.616,101.533 219.067,101.425 C218.959,101.41 218.73,101.394 218.607,101.394 C218.563,101.394 218.5,101.334 218.5,101.288 C218.5,101.196 218.563,101.181 218.715,101.181 C219.326,101.181 220.228,101.212 220.304,101.212 C220.365,101.212 221.206,101.181 221.619,101.181 C221.771,101.181 221.832,101.196 221.832,101.288 C221.832,101.334 221.771,101.394 221.725,101.394 C221.634,101.394 221.541,101.394 221.389,101.425 C221.023,101.487 220.915,101.685 220.885,102.144 C220.869,102.557 220.869,102.938 220.869,103.489 L220.869,104.939 C220.869,105.535 220.854,105.551 220.686,105.643 C219.83,106.086 218.607,106.224 217.829,106.224 C216.805,106.224 214.895,106.102 213.397,104.833 C212.572,104.146 211.793,102.755 211.793,101.135 C211.793,99.056 212.846,97.589 214.039,96.871 C215.245,96.137 216.59,96.046 217.614,96.046 C218.47,96.046 219.418,96.2 219.678,96.26 C219.952,96.322 220.426,96.398 220.763,96.398 C220.9,96.398 220.93,96.459 220.93,96.52 C220.93,96.704 220.854,97.055 220.854,98.354 C220.854,98.567 220.793,98.628 220.7,98.628 C220.625,98.628 220.61,98.553 220.61,98.43 C220.594,98.262 220.519,97.88 220.304,97.575 C219.967,97.085 218.944,96.567 217.201,96.567 C216.392,96.567 215.414,96.626 214.39,97.406 C213.61,98.002 213.061,99.164 213.061,100.677 C213.061,102.511 214.008,103.824 214.482,104.268 C215.551,105.262 216.683,105.628 217.92,105.628 C218.394,105.628 219.02,105.582 219.372,105.384 C219.541,105.291 219.647,105.23 219.647,104.986 L219.647,102.739 Z M207.112,94.181 C207.188,94.32 207.112,94.366 207.051,94.366 C207.006,94.366 206.852,94.335 206.593,94.366 C205.843,94.442 204.774,94.792 204.27,95.007 C204.163,95.054 204.072,95.083 204.04,95.083 C204.009,95.083 203.965,95.054 203.965,94.992 C203.965,94.946 203.994,94.915 204.072,94.87 C204.62,94.488 206.043,93.633 206.15,93.57 C206.409,93.418 206.5,93.372 206.576,93.372 C206.623,93.372 206.654,93.403 206.73,93.51 C206.837,93.662 206.943,93.877 207.112,94.181 Z M205.08,105.689 C206.287,105.689 208.717,105.047 208.717,101.288 C208.717,98.171 206.821,96.535 204.698,96.535 C202.451,96.535 200.831,97.941 200.831,100.768 C200.831,103.794 202.65,105.689 205.08,105.689 Z M204.774,96.046 C207.799,96.046 210.092,97.895 210.092,100.921 C210.092,103.824 207.938,106.224 204.698,106.224 C201.015,106.224 199.441,103.457 199.441,101.119 C199.441,99.027 201.06,96.046 204.774,96.046 Z M194.335,102.312 C194.335,104.222 194.365,105.002 194.61,105.23 C194.824,105.445 195.343,105.535 196.397,105.535 C197.101,105.535 197.697,105.521 198.017,105.139 C198.186,104.939 198.293,104.665 198.338,104.406 C198.353,104.313 198.399,104.237 198.475,104.237 C198.538,104.237 198.568,104.298 198.568,104.435 C198.568,104.573 198.475,105.352 198.369,105.735 C198.277,106.04 198.231,106.086 197.513,106.086 C196.551,106.086 195.802,106.071 195.175,106.04 C194.563,106.025 194.106,106.01 193.707,106.01 C193.648,106.01 193.418,106.01 193.159,106.025 C192.883,106.04 192.592,106.056 192.379,106.056 C192.24,106.056 192.164,106.025 192.164,105.949 C192.164,105.903 192.196,105.841 192.272,105.841 C192.394,105.841 192.562,105.811 192.685,105.78 C192.944,105.719 192.974,105.474 193.036,105.093 C193.113,104.557 193.113,103.535 193.113,102.281 L193.113,99.99 C193.113,97.971 193.113,97.604 193.081,97.193 C193.051,96.748 192.974,96.535 192.531,96.474 C192.425,96.459 192.196,96.444 192.073,96.444 C192.027,96.444 191.966,96.382 191.966,96.337 C191.966,96.26 192.027,96.23 192.181,96.23 C192.792,96.23 193.632,96.26 193.707,96.26 C193.77,96.26 194.778,96.23 195.191,96.23 C195.328,96.23 195.404,96.26 195.404,96.337 C195.404,96.382 195.343,96.428 195.297,96.428 C195.206,96.428 195.008,96.444 194.854,96.459 C194.457,96.535 194.381,96.734 194.35,97.193 C194.335,97.604 194.335,97.971 194.335,99.99 L194.335,102.312 Z M185.284,105.689 C186.492,105.689 188.921,105.047 188.921,101.288 C188.921,98.171 187.027,96.535 184.903,96.535 C182.656,96.535 181.037,97.941 181.037,100.768 C181.037,103.794 182.854,105.689 185.284,105.689 Z M184.979,96.046 C188.005,96.046 190.297,97.895 190.297,100.921 C190.297,103.824 188.142,106.224 184.903,106.224 C181.219,106.224 179.646,103.457 179.646,101.119 C179.646,99.027 181.265,96.046 184.979,96.046 Z M169.204,104.284 C169.236,105.352 169.358,105.673 169.724,105.765 C169.969,105.826 170.273,105.841 170.395,105.841 C170.458,105.841 170.503,105.888 170.503,105.949 C170.503,106.025 170.412,106.056 170.258,106.056 C169.495,106.056 168.96,106.01 168.838,106.01 C168.715,106.01 168.15,106.056 167.539,106.056 C167.402,106.056 167.324,106.04 167.324,105.949 C167.324,105.888 167.37,105.841 167.431,105.841 C167.539,105.841 167.783,105.826 167.982,105.765 C168.317,105.673 168.363,105.323 168.363,104.146 L168.363,96.704 C168.363,96.183 168.439,96.046 168.547,96.046 C168.7,96.046 168.928,96.305 169.067,96.444 C169.28,96.658 171.236,98.736 173.315,100.875 C174.644,102.25 176.081,103.794 176.493,104.222 L176.356,97.712 C176.341,96.871 176.263,96.581 175.852,96.504 C175.608,96.459 175.302,96.444 175.195,96.444 C175.103,96.444 175.087,96.367 175.087,96.322 C175.087,96.244 175.195,96.23 175.348,96.23 C175.959,96.23 176.6,96.26 176.753,96.26 C176.906,96.26 177.349,96.23 177.899,96.23 C178.037,96.23 178.143,96.244 178.143,96.322 C178.143,96.367 178.082,96.444 177.991,96.444 C177.93,96.444 177.823,96.444 177.671,96.474 C177.227,96.567 177.197,96.826 177.197,97.604 L177.165,105.215 C177.165,106.071 177.151,106.147 177.059,106.147 C176.921,106.147 176.784,106.04 176.035,105.352 C175.897,105.23 173.957,103.32 172.536,101.838 C170.977,100.203 169.464,98.614 169.051,98.156 L169.204,104.284 Z M164.188,102.281 C164.188,103.535 164.203,104.557 164.264,105.093 C164.31,105.474 164.34,105.719 164.753,105.78 C164.936,105.811 165.242,105.841 165.349,105.841 C165.44,105.841 165.471,105.903 165.471,105.949 C165.471,106.01 165.395,106.056 165.242,106.056 C164.509,106.056 163.653,106.01 163.576,106.01 C163.515,106.01 162.645,106.056 162.247,106.056 C162.094,106.056 162.033,106.025 162.033,105.949 C162.033,105.903 162.063,105.841 162.139,105.841 C162.261,105.841 162.415,105.811 162.537,105.78 C162.813,105.719 162.858,105.46 162.904,105.078 C162.965,104.543 162.965,103.565 162.965,102.312 L162.965,101.013 C162.965,100.951 162.935,100.936 162.889,100.936 L157.28,100.936 C157.235,100.936 157.204,100.951 157.204,101.013 L157.204,102.312 C157.204,103.565 157.204,104.557 157.266,105.093 C157.312,105.474 157.357,105.719 157.755,105.78 C157.953,105.811 158.243,105.841 158.366,105.841 C158.442,105.841 158.472,105.903 158.472,105.949 C158.472,106.01 158.412,106.056 158.259,106.056 C157.51,106.056 156.655,106.01 156.593,106.01 C156.516,106.01 155.66,106.056 155.248,106.056 C155.111,106.056 155.034,106.025 155.034,105.949 C155.034,105.903 155.065,105.841 155.141,105.841 C155.263,105.841 155.432,105.811 155.554,105.78 C155.814,105.719 155.845,105.474 155.905,105.093 C155.982,104.557 155.982,103.535 155.982,102.281 L155.982,99.99 C155.982,97.971 155.982,97.604 155.951,97.193 C155.921,96.748 155.845,96.535 155.401,96.474 C155.293,96.459 155.065,96.444 154.943,96.444 C154.897,96.444 154.836,96.382 154.836,96.337 C154.836,96.26 154.897,96.23 155.049,96.23 C155.66,96.23 156.516,96.26 156.593,96.26 C156.655,96.26 157.51,96.23 157.923,96.23 C158.075,96.23 158.136,96.26 158.136,96.337 C158.136,96.382 158.075,96.444 158.029,96.444 C157.938,96.444 157.845,96.444 157.694,96.474 C157.327,96.55 157.249,96.734 157.219,97.193 C157.204,97.604 157.204,98.002 157.204,100.019 L157.204,100.294 C157.204,100.371 157.235,100.371 157.28,100.371 L162.889,100.371 C162.935,100.371 162.965,100.371 162.965,100.294 L162.965,100.019 C162.965,98.002 162.95,97.604 162.935,97.193 C162.904,96.748 162.843,96.535 162.4,96.474 C162.293,96.459 162.063,96.444 161.941,96.444 C161.88,96.444 161.835,96.382 161.835,96.337 C161.835,96.26 161.895,96.23 162.049,96.23 C162.645,96.23 163.515,96.26 163.576,96.26 C163.653,96.26 164.509,96.23 164.906,96.23 C165.058,96.23 165.136,96.26 165.136,96.337 C165.136,96.382 165.073,96.444 165.013,96.444 C164.921,96.444 164.845,96.444 164.677,96.474 C164.325,96.55 164.249,96.734 164.218,97.193 C164.188,97.604 164.188,97.971 164.188,99.99 L164.188,102.281 Z M145.266,104.833 C143.951,103.702 143.631,102.22 143.631,100.983 C143.631,100.112 143.951,98.598 145.144,97.437 C145.953,96.658 147.176,96.046 149.238,96.046 C149.773,96.046 150.538,96.093 151.194,96.2 C151.699,96.291 152.127,96.382 152.57,96.398 C152.707,96.398 152.738,96.459 152.738,96.535 C152.738,96.642 152.707,96.795 152.677,97.269 C152.661,97.697 152.661,98.415 152.646,98.598 C152.631,98.797 152.57,98.873 152.494,98.873 C152.402,98.873 152.386,98.782 152.386,98.598 C152.386,98.093 152.172,97.575 151.822,97.3 C151.347,96.902 150.369,96.581 149.178,96.581 C147.45,96.581 146.626,97.039 146.152,97.482 C145.158,98.4 144.944,99.56 144.944,100.875 C144.944,103.367 146.915,105.582 149.789,105.582 C150.797,105.582 151.469,105.506 152.005,104.971 C152.294,104.68 152.479,104.13 152.524,103.885 C152.555,103.748 152.57,103.702 152.661,103.702 C152.723,103.702 152.783,103.794 152.783,103.885 C152.783,103.978 152.601,105.108 152.463,105.551 C152.386,105.795 152.357,105.841 152.127,105.934 C151.577,106.147 150.568,106.224 149.697,106.224 C147.68,106.224 146.32,105.75 145.266,104.833 Z M136.737,99.99 C136.737,97.971 136.737,97.604 136.706,97.193 C136.676,96.748 136.6,96.535 136.155,96.474 C136.048,96.459 135.82,96.444 135.697,96.444 C135.652,96.444 135.591,96.382 135.591,96.337 C135.591,96.26 135.652,96.23 135.803,96.23 C136.415,96.23 137.287,96.26 137.363,96.26 C137.455,96.26 140.267,96.276 140.572,96.26 C140.832,96.244 141.077,96.2 141.183,96.183 C141.245,96.168 141.305,96.122 141.367,96.122 C141.412,96.122 141.427,96.183 141.427,96.244 C141.427,96.337 141.351,96.489 141.322,96.856 C141.305,96.978 141.275,97.559 141.245,97.712 C141.229,97.773 141.183,97.849 141.123,97.849 C141.046,97.849 141.016,97.789 141.016,97.681 C141.016,97.589 141.001,97.376 140.938,97.222 C140.847,97.009 140.71,96.917 139.976,96.826 C139.747,96.795 138.189,96.78 138.035,96.78 C137.974,96.78 137.959,96.826 137.959,96.917 L137.959,100.447 C137.959,100.538 137.959,100.584 138.035,100.584 C138.204,100.584 139.976,100.584 140.282,100.554 C140.603,100.523 140.801,100.509 140.938,100.371 C141.03,100.279 141.092,100.203 141.138,100.203 C141.183,100.203 141.214,100.234 141.214,100.31 C141.214,100.386 141.138,100.601 141.107,101.027 C141.077,101.288 141.046,101.777 141.046,101.868 C141.046,101.975 141.016,102.113 140.923,102.113 C140.862,102.113 140.832,102.068 140.832,101.991 C140.832,101.868 140.832,101.731 140.771,101.562 C140.725,101.379 140.603,101.227 140.082,101.166 C139.716,101.119 138.28,101.105 138.051,101.105 C137.974,101.105 137.959,101.15 137.959,101.196 L137.959,102.281 C137.959,102.724 137.945,104.237 137.959,104.496 C137.989,105.368 138.234,105.535 139.564,105.535 C139.915,105.535 140.556,105.535 140.908,105.398 C141.26,105.246 141.444,105.017 141.52,104.496 C141.55,104.345 141.581,104.298 141.657,104.298 C141.734,104.298 141.749,104.406 141.749,104.496 C141.749,104.589 141.642,105.474 141.566,105.75 C141.473,106.086 141.336,106.086 140.816,106.086 C139.808,106.086 139.029,106.056 138.478,106.04 C137.913,106.01 137.561,106.01 137.363,106.01 C137.333,106.01 137.072,106.01 136.781,106.025 C136.522,106.04 136.217,106.056 136.003,106.056 C135.866,106.056 135.789,106.025 135.789,105.949 C135.789,105.903 135.82,105.841 135.896,105.841 C136.018,105.841 136.187,105.795 136.309,105.78 C136.569,105.735 136.6,105.474 136.659,105.093 C136.737,104.557 136.737,103.535 136.737,102.281 L136.737,99.99 Z M130.085,101.624 C130.085,103.091 130.085,104.298 130.161,104.939 C130.207,105.384 130.298,105.719 130.758,105.78 C130.97,105.811 131.307,105.841 131.445,105.841 C131.536,105.841 131.567,105.888 131.567,105.934 C131.567,106.01 131.491,106.056 131.322,106.056 C130.482,106.056 129.52,106.01 129.443,106.01 C129.366,106.01 128.404,106.056 127.946,106.056 C127.777,106.056 127.701,106.025 127.701,105.934 C127.701,105.888 127.731,105.841 127.823,105.841 C127.961,105.841 128.144,105.811 128.281,105.78 C128.587,105.719 128.664,105.384 128.724,104.939 C128.801,104.298 128.801,103.091 128.801,101.624 L128.801,95.159 L126.54,95.19 C125.592,95.205 125.225,95.313 124.98,95.679 C124.812,95.939 124.767,96.046 124.721,96.154 C124.675,96.276 124.63,96.305 124.568,96.305 C124.523,96.305 124.491,96.26 124.491,96.168 C124.491,96.015 124.797,94.701 124.828,94.579 C124.858,94.488 124.919,94.288 124.98,94.288 C125.088,94.288 125.241,94.442 125.653,94.472 C126.097,94.518 126.677,94.548 126.86,94.548 L132.591,94.548 C133.08,94.548 133.432,94.518 133.676,94.472 C133.905,94.442 134.043,94.396 134.103,94.396 C134.18,94.396 134.18,94.488 134.18,94.579 C134.18,95.037 134.134,96.093 134.134,96.26 C134.134,96.398 134.088,96.459 134.027,96.459 C133.951,96.459 133.921,96.413 133.905,96.2 L133.89,96.031 C133.843,95.572 133.477,95.221 132.01,95.19 L130.085,95.159 L130.085,101.624 Z M112.369,105.872 C112.186,105.78 112.171,105.735 112.171,105.384 C112.171,104.741 112.232,104.222 112.247,104.008 C112.247,103.87 112.279,103.794 112.354,103.794 C112.43,103.794 112.477,103.839 112.477,103.947 C112.477,104.054 112.477,104.237 112.523,104.421 C112.736,105.368 113.745,105.704 114.647,105.704 C115.976,105.704 116.664,104.956 116.664,103.978 C116.664,103.046 116.159,102.602 114.968,101.716 L114.357,101.257 C112.905,100.172 112.43,99.378 112.43,98.476 C112.43,96.948 113.638,96.031 115.411,96.031 C115.946,96.031 116.48,96.107 116.801,96.183 C117.061,96.244 117.169,96.244 117.275,96.244 C117.382,96.244 117.413,96.26 117.413,96.337 C117.413,96.398 117.352,96.826 117.352,97.712 C117.352,97.911 117.336,98.002 117.244,98.002 C117.153,98.002 117.137,97.941 117.122,97.834 C117.107,97.681 117,97.33 116.924,97.193 C116.832,97.039 116.389,96.55 115.181,96.55 C114.203,96.55 113.394,97.039 113.394,97.956 C113.394,98.782 113.806,99.256 115.135,100.157 L115.518,100.416 C117.153,101.533 117.718,102.434 117.718,103.55 C117.718,104.313 117.428,105.139 116.465,105.765 C115.9,106.132 115.059,106.224 114.325,106.224 C113.699,106.224 112.92,106.132 112.369,105.872 Z M109.25,94.181 C109.327,94.32 109.25,94.366 109.189,94.366 C109.143,94.366 108.99,94.335 108.73,94.366 C107.982,94.442 106.911,94.792 106.407,95.007 C106.3,95.054 106.209,95.083 106.178,95.083 C106.148,95.083 106.102,95.054 106.102,94.992 C106.102,94.946 106.133,94.915 106.209,94.87 C106.76,94.488 108.18,93.633 108.287,93.57 C108.547,93.418 108.639,93.372 108.716,93.372 C108.761,93.372 108.792,93.403 108.867,93.51 C108.975,93.662 109.082,93.877 109.25,94.181 Z M105.078,99.99 C105.078,97.971 105.078,97.604 105.048,97.193 C105.017,96.748 104.941,96.535 104.498,96.474 C104.39,96.459 104.161,96.444 104.039,96.444 C103.993,96.444 103.932,96.382 103.932,96.337 C103.932,96.26 103.993,96.23 104.146,96.23 C104.757,96.23 105.628,96.26 105.705,96.26 C105.796,96.26 108.608,96.276 108.914,96.26 C109.173,96.244 109.418,96.2 109.525,96.183 C109.586,96.168 109.647,96.122 109.708,96.122 C109.755,96.122 109.769,96.183 109.769,96.244 C109.769,96.337 109.694,96.489 109.662,96.856 C109.647,96.978 109.617,97.559 109.586,97.712 C109.571,97.773 109.525,97.849 109.464,97.849 C109.388,97.849 109.357,97.789 109.357,97.681 C109.357,97.589 109.342,97.376 109.28,97.222 C109.189,97.009 109.051,96.917 108.318,96.826 C108.089,96.795 106.53,96.78 106.377,96.78 C106.316,96.78 106.3,96.826 106.3,96.917 L106.3,100.447 C106.3,100.538 106.3,100.584 106.377,100.584 C106.545,100.584 108.318,100.584 108.623,100.554 C108.944,100.523 109.143,100.509 109.28,100.371 C109.372,100.279 109.433,100.203 109.479,100.203 C109.525,100.203 109.555,100.234 109.555,100.31 C109.555,100.386 109.479,100.601 109.449,101.027 C109.418,101.288 109.388,101.777 109.388,101.868 C109.388,101.975 109.357,102.113 109.265,102.113 C109.204,102.113 109.173,102.068 109.173,101.991 C109.173,101.868 109.173,101.731 109.112,101.562 C109.067,101.379 108.944,101.227 108.425,101.166 C108.058,101.119 106.621,101.105 106.393,101.105 C106.316,101.105 106.3,101.15 106.3,101.196 L106.3,102.281 C106.3,102.724 106.285,104.237 106.3,104.496 C106.331,105.368 106.576,105.535 107.905,105.535 C108.256,105.535 108.899,105.535 109.25,105.398 C109.601,105.246 109.784,105.017 109.861,104.496 C109.892,104.345 109.922,104.298 109.999,104.298 C110.075,104.298 110.09,104.406 110.09,104.496 C110.09,104.589 109.984,105.474 109.906,105.75 C109.816,106.086 109.678,106.086 109.158,106.086 C108.15,106.086 107.371,106.056 106.821,106.04 C106.255,106.01 105.904,106.01 105.705,106.01 C105.674,106.01 105.415,106.01 105.124,106.025 C104.864,106.04 104.559,106.056 104.344,106.056 C104.207,106.056 104.131,106.025 104.131,105.949 C104.131,105.903 104.161,105.841 104.238,105.841 C104.36,105.841 104.528,105.795 104.65,105.78 C104.91,105.735 104.941,105.474 105.002,105.093 C105.078,104.557 105.078,103.535 105.078,102.281 L105.078,99.99 Z M90.968,105.872 C90.785,105.78 90.77,105.735 90.77,105.384 C90.77,104.741 90.831,104.222 90.846,104.008 C90.846,103.87 90.878,103.794 90.954,103.794 C91.03,103.794 91.076,103.839 91.076,103.947 C91.076,104.054 91.076,104.237 91.122,104.421 C91.335,105.368 92.344,105.704 93.246,105.704 C94.575,105.704 95.263,104.956 95.263,103.978 C95.263,103.046 94.759,102.602 93.567,101.716 L92.956,101.257 C91.504,100.172 91.03,99.378 91.03,98.476 C91.03,96.948 92.237,96.031 94.01,96.031 C94.545,96.031 95.08,96.107 95.401,96.183 C95.66,96.244 95.768,96.244 95.874,96.244 C95.981,96.244 96.012,96.26 96.012,96.337 C96.012,96.398 95.951,96.826 95.951,97.712 C95.951,97.911 95.935,98.002 95.843,98.002 C95.752,98.002 95.737,97.941 95.721,97.834 C95.706,97.681 95.599,97.33 95.523,97.193 C95.431,97.039 94.988,96.55 93.78,96.55 C92.802,96.55 91.993,97.039 91.993,97.956 C91.993,98.782 92.405,99.256 93.735,100.157 L94.117,100.416 C95.752,101.533 96.318,102.434 96.318,103.55 C96.318,104.313 96.027,105.139 95.064,105.765 C94.499,106.132 93.658,106.224 92.925,106.224 C92.299,106.224 91.519,106.132 90.968,105.872 Z M85.891,94.181 C85.968,94.32 85.891,94.366 85.83,94.366 C85.784,94.366 85.632,94.335 85.372,94.366 C84.623,94.442 83.553,94.792 83.05,95.007 C82.942,95.054 82.85,95.083 82.82,95.083 C82.789,95.083 82.744,95.054 82.744,94.992 C82.744,94.946 82.774,94.915 82.85,94.87 C83.401,94.488 84.822,93.633 84.928,93.57 C85.189,93.418 85.28,93.372 85.357,93.372 C85.402,93.372 85.433,93.403 85.51,93.51 C85.616,93.662 85.723,93.877 85.891,94.181 Z M83.859,105.689 C85.067,105.689 87.496,105.047 87.496,101.288 C87.496,98.171 85.601,96.535 83.477,96.535 C81.231,96.535 79.611,97.941 79.611,100.768 C79.611,103.794 81.429,105.689 83.859,105.689 Z M83.553,96.046 C86.579,96.046 88.871,97.895 88.871,100.921 C88.871,103.824 86.717,106.224 83.477,106.224 C79.794,106.224 78.22,103.457 78.22,101.119 C78.22,99.027 79.84,96.046 83.553,96.046 Z M75.222,102.281 C75.222,103.535 75.222,104.557 75.284,105.093 C75.33,105.474 75.376,105.719 75.773,105.78 C75.972,105.811 76.261,105.841 76.384,105.841 C76.461,105.841 76.491,105.903 76.491,105.949 C76.491,106.01 76.43,106.056 76.277,106.056 C75.528,106.056 74.657,106.01 74.596,106.01 C74.52,106.01 73.679,106.056 73.266,106.056 C73.129,106.056 73.053,106.025 73.053,105.949 C73.053,105.903 73.083,105.841 73.16,105.841 C73.282,105.841 73.45,105.811 73.572,105.78 C73.832,105.719 73.878,105.474 73.924,105.093 C73.985,104.557 74,103.535 74,102.281 L74,99.99 C74,97.971 74,97.604 73.97,97.193 C73.939,96.748 73.832,96.55 73.542,96.489 C73.389,96.459 73.221,96.444 73.129,96.444 C73.068,96.444 73.022,96.382 73.022,96.337 C73.022,96.26 73.083,96.23 73.237,96.23 C73.679,96.23 74.52,96.26 74.596,96.26 C74.657,96.26 75.528,96.23 75.941,96.23 C76.094,96.23 76.155,96.26 76.155,96.337 C76.155,96.382 76.094,96.444 76.049,96.444 C75.956,96.444 75.865,96.444 75.712,96.474 C75.345,96.55 75.269,96.734 75.238,97.193 C75.222,97.604 75.222,97.971 75.222,99.99 L75.222,102.281 Z M63.285,104.833 C61.97,103.702 61.65,102.22 61.65,100.983 C61.65,100.112 61.97,98.598 63.162,97.437 C63.973,96.658 65.195,96.046 67.258,96.046 C67.792,96.046 68.557,96.093 69.214,96.2 C69.718,96.291 70.146,96.382 70.589,96.398 C70.726,96.398 70.758,96.459 70.758,96.535 C70.758,96.642 70.726,96.795 70.696,97.269 C70.681,97.697 70.681,98.415 70.665,98.598 C70.65,98.797 70.589,98.873 70.513,98.873 C70.421,98.873 70.406,98.782 70.406,98.598 C70.406,98.093 70.192,97.575 69.841,97.3 C69.367,96.902 68.389,96.581 67.197,96.581 C65.47,96.581 64.645,97.039 64.171,97.482 C63.178,98.4 62.964,99.56 62.964,100.875 C62.964,103.367 64.935,105.582 67.808,105.582 C68.817,105.582 69.489,105.506 70.024,104.971 C70.314,104.68 70.497,104.13 70.543,103.885 C70.574,103.748 70.589,103.702 70.681,103.702 C70.742,103.702 70.803,103.794 70.803,103.885 C70.803,103.978 70.62,105.108 70.482,105.551 C70.406,105.795 70.375,105.841 70.146,105.934 C69.596,106.147 68.587,106.224 67.716,106.224 C65.699,106.224 64.34,105.75 63.285,104.833 Z M58.376,94.181 C58.453,94.32 58.376,94.366 58.315,94.366 C58.27,94.366 58.117,94.335 57.857,94.366 C57.108,94.442 56.039,94.792 55.534,95.007 C55.428,95.054 55.336,95.083 55.305,95.083 C55.275,95.083 55.229,95.054 55.229,94.992 C55.229,94.946 55.259,94.915 55.336,94.87 C55.886,94.488 57.307,93.633 57.414,93.57 C57.674,93.418 57.765,93.372 57.841,93.372 C57.887,93.372 57.919,93.403 57.994,93.51 C58.102,93.662 58.209,93.877 58.376,94.181 Z M57.185,101.899 C57.246,101.899 57.246,101.868 57.231,101.807 L55.902,98.247 C55.824,98.049 55.748,98.049 55.672,98.247 L54.419,101.807 C54.403,101.868 54.419,101.899 54.464,101.899 L57.185,101.899 Z M55.687,96.489 C55.855,96.061 55.916,95.985 56.008,95.985 C56.146,95.985 56.191,96.168 56.329,96.459 C56.574,97.009 58.728,102.372 59.553,104.345 C60.042,105.506 60.409,105.673 60.699,105.765 C60.898,105.826 61.097,105.841 61.234,105.841 C61.31,105.841 61.403,105.872 61.403,105.949 C61.403,106.025 61.249,106.056 61.097,106.056 C60.898,106.056 59.905,106.056 58.972,106.025 C58.713,106.01 58.499,106.01 58.499,105.934 C58.499,105.872 58.53,105.872 58.591,105.841 C58.667,105.811 58.804,105.704 58.713,105.491 L57.506,102.511 C57.475,102.45 57.459,102.434 57.383,102.434 L54.281,102.434 C54.22,102.434 54.174,102.465 54.144,102.54 L53.38,104.619 C53.258,104.939 53.18,105.262 53.18,105.491 C53.18,105.75 53.41,105.841 53.64,105.841 L53.762,105.841 C53.868,105.841 53.899,105.888 53.899,105.949 C53.899,106.025 53.823,106.056 53.701,106.056 C53.38,106.056 52.646,106.01 52.493,106.01 C52.356,106.01 51.684,106.056 51.133,106.056 C50.965,106.056 50.873,106.025 50.873,105.949 C50.873,105.888 50.934,105.841 50.996,105.841 C51.087,105.841 51.286,105.826 51.393,105.811 C52.004,105.735 52.264,105.276 52.524,104.619 L55.687,96.489 Z M47.646,104.359 C48.425,102.617 50.183,98.186 50.473,97.254 C50.534,97.055 50.595,96.871 50.595,96.765 C50.595,96.658 50.549,96.535 50.412,96.489 C50.259,96.444 50.107,96.444 49.953,96.444 C49.877,96.444 49.801,96.398 49.801,96.337 C49.801,96.26 49.892,96.23 50.107,96.23 C50.641,96.23 51.252,96.26 51.42,96.26 C51.497,96.26 52.077,96.23 52.475,96.23 C52.613,96.23 52.689,96.26 52.689,96.322 C52.689,96.382 52.643,96.444 52.536,96.444 C52.445,96.444 52.139,96.444 51.894,96.596 C51.711,96.719 51.497,96.902 51.146,97.789 C50.992,98.156 50.336,99.714 49.648,101.303 C48.823,103.198 48.227,104.604 47.921,105.246 C47.554,106.025 47.478,106.224 47.341,106.224 C47.188,106.224 47.096,106.056 46.836,105.429 L43.535,97.467 C43.229,96.734 43.046,96.596 42.603,96.489 C42.389,96.444 42.16,96.444 42.084,96.444 C42.007,96.444 41.977,96.367 41.977,96.322 C41.977,96.244 42.114,96.23 42.328,96.23 C42.97,96.23 43.734,96.26 43.902,96.26 C44.04,96.26 44.635,96.23 45.155,96.23 C45.4,96.23 45.522,96.26 45.522,96.322 C45.522,96.382 45.476,96.444 45.385,96.444 C45.232,96.444 45.018,96.459 44.895,96.504 C44.758,96.567 44.742,96.642 44.742,96.734 C44.742,96.902 44.911,97.3 45.109,97.819 L47.646,104.359 Z M36.593,105.689 C37.8,105.689 40.23,105.047 40.23,101.288 C40.23,98.171 38.335,96.535 36.211,96.535 C33.965,96.535 32.345,97.941 32.345,100.768 C32.345,103.794 34.164,105.689 36.593,105.689 Z M36.287,96.046 C39.313,96.046 41.605,97.895 41.605,100.921 C41.605,103.824 39.45,106.224 36.211,106.224 C32.528,106.224 30.954,103.457 30.954,101.119 C30.954,99.027 32.574,96.046 36.287,96.046 Z M20.513,104.284 C20.544,105.352 20.666,105.673 21.032,105.765 C21.277,105.826 21.583,105.841 21.705,105.841 C21.766,105.841 21.812,105.888 21.812,105.949 C21.812,106.025 21.72,106.056 21.568,106.056 C20.803,106.056 20.268,106.01 20.146,106.01 C20.024,106.01 19.458,106.056 18.847,106.056 C18.71,106.056 18.634,106.04 18.634,105.949 C18.634,105.888 18.679,105.841 18.74,105.841 C18.847,105.841 19.092,105.826 19.29,105.765 C19.627,105.673 19.673,105.323 19.673,104.146 L19.673,96.704 C19.673,96.183 19.749,96.046 19.856,96.046 C20.009,96.046 20.238,96.305 20.375,96.444 C20.59,96.658 22.546,98.736 24.624,100.875 C25.953,102.25 27.389,103.794 27.802,104.222 L27.665,97.712 C27.649,96.871 27.573,96.581 27.16,96.504 C26.915,96.459 26.61,96.444 26.503,96.444 C26.411,96.444 26.397,96.367 26.397,96.322 C26.397,96.244 26.503,96.23 26.656,96.23 C27.267,96.23 27.909,96.26 28.062,96.26 C28.215,96.26 28.658,96.23 29.208,96.23 C29.345,96.23 29.453,96.244 29.453,96.322 C29.453,96.367 29.392,96.444 29.299,96.444 C29.239,96.444 29.132,96.444 28.979,96.474 C28.536,96.567 28.505,96.826 28.505,97.604 L28.475,105.215 C28.475,106.071 28.459,106.147 28.367,106.147 C28.23,106.147 28.092,106.04 27.343,105.352 C27.206,105.23 25.265,103.32 23.844,101.838 C22.285,100.203 20.773,98.614 20.36,98.156 L20.513,104.284 Z M8.085,104.284 C8.116,105.352 8.238,105.673 8.605,105.765 C8.849,105.826 9.155,105.841 9.277,105.841 C9.339,105.841 9.385,105.888 9.385,105.949 C9.385,106.025 9.292,106.056 9.14,106.056 C8.375,106.056 7.841,106.01 7.718,106.01 C7.596,106.01 7.031,106.056 6.419,106.056 C6.282,106.056 6.206,106.04 6.206,105.949 C6.206,105.888 6.252,105.841 6.313,105.841 C6.419,105.841 6.664,105.826 6.863,105.765 C7.199,105.673 7.245,105.323 7.245,104.146 L7.245,96.704 C7.245,96.183 7.322,96.046 7.428,96.046 C7.581,96.046 7.81,96.305 7.947,96.444 C8.162,96.658 10.118,98.736 12.197,100.875 C13.526,102.25 14.962,103.794 15.375,104.222 L15.237,97.712 C15.221,96.871 15.145,96.581 14.733,96.504 C14.488,96.459 14.182,96.444 14.076,96.444 C13.984,96.444 13.969,96.367 13.969,96.322 C13.969,96.244 14.076,96.23 14.229,96.23 C14.84,96.23 15.482,96.26 15.635,96.26 C15.787,96.26 16.231,96.23 16.781,96.23 C16.918,96.23 17.025,96.244 17.025,96.322 C17.025,96.367 16.964,96.444 16.872,96.444 C16.811,96.444 16.704,96.444 16.552,96.474 C16.109,96.567 16.077,96.826 16.077,97.604 L16.047,105.215 C16.047,106.071 16.032,106.147 15.94,106.147 C15.803,106.147 15.665,106.04 14.916,105.352 C14.778,105.23 12.838,103.32 11.417,101.838 C9.858,100.203 8.345,98.614 7.932,98.156 L8.085,104.284 Z M2.429,101.624 C2.429,103.091 2.429,104.298 2.506,104.939 C2.552,105.384 2.643,105.719 3.102,105.78 C3.316,105.811 3.652,105.841 3.79,105.841 C3.881,105.841 3.912,105.888 3.912,105.934 C3.912,106.01 3.835,106.056 3.667,106.056 C2.826,106.056 1.864,106.01 1.787,106.01 C1.711,106.01 0.748,106.056 0.29,106.056 C0.122,106.056 0.045,106.025 0.045,105.934 C0.045,105.888 0.076,105.841 0.168,105.841 C0.305,105.841 0.489,105.811 0.626,105.78 C0.931,105.719 1.007,105.384 1.069,104.939 C1.146,104.298 1.146,103.091 1.146,101.624 L1.146,98.934 C1.146,96.55 1.146,96.122 1.115,95.633 C1.084,95.115 0.931,94.855 0.595,94.778 C0.427,94.733 0.229,94.717 0.122,94.717 C0.061,94.717 0,94.686 0,94.625 C0,94.533 0.076,94.503 0.244,94.503 C0.748,94.503 1.711,94.548 1.787,94.548 C1.864,94.548 2.826,94.503 3.285,94.503 C3.453,94.503 3.529,94.533 3.529,94.625 C3.529,94.686 3.468,94.717 3.407,94.717 C3.3,94.717 3.208,94.733 3.025,94.763 C2.613,94.839 2.49,95.099 2.46,95.633 C2.429,96.122 2.429,96.55 2.429,98.934 L2.429,101.624 L2.429,101.624 Z" id="Fill-36" fill="#1A1919"></path>
            <path d="M111.748,17.054 C111.982,17.054 112.168,17.244 112.168,17.473 C112.168,17.708 111.982,17.898 111.748,17.898 C111.514,17.898 111.322,17.708 111.322,17.473 C111.322,17.244 111.514,17.054 111.748,17.054 L111.748,17.054 Z M111.748,18.439 C112.282,18.439 112.715,18.01 112.715,17.473 C112.715,16.943 112.282,16.508 111.748,16.508 C111.218,16.508 110.784,16.943 110.784,17.473 C110.784,18.01 111.218,18.439 111.748,18.439 L111.748,18.439 Z M115.95,16.369 L116.409,16.179 C116.765,16.179 117.059,16.47 117.059,16.829 C117.059,17.189 116.765,17.481 116.409,17.481 L115.95,17.289 L115.758,16.829 L115.95,16.369 Z M116.409,18.022 C117.069,18.022 117.601,17.488 117.601,16.829 C117.601,16.172 117.069,15.636 116.409,15.636 C116.091,15.636 115.791,15.762 115.566,15.987 C115.34,16.211 115.216,16.513 115.216,16.829 C115.216,17.147 115.342,17.456 115.566,17.675 C115.791,17.9 116.091,18.022 116.409,18.022 L116.409,18.022 Z M134.921,17.054 C135.152,17.054 135.343,17.244 135.343,17.473 C135.343,17.708 135.152,17.898 134.921,17.898 C134.683,17.898 134.496,17.708 134.496,17.473 C134.496,17.244 134.683,17.054 134.921,17.054 L134.921,17.054 Z M134.921,18.439 C135.454,18.439 135.884,18.01 135.884,17.473 C135.884,16.943 135.454,16.508 134.921,16.508 C134.388,16.508 133.954,16.943 133.954,17.473 C133.954,18.01 134.388,18.439 134.921,18.439 L134.921,18.439 Z M130.263,16.179 C130.617,16.179 130.908,16.47 130.908,16.829 C130.908,17.189 130.617,17.481 130.263,17.481 C129.903,17.481 129.612,17.189 129.612,16.829 C129.612,16.47 129.903,16.179 130.263,16.179 L130.263,16.179 Z M130.263,18.022 C130.92,18.022 131.452,17.488 131.452,16.829 C131.452,16.172 130.92,15.636 130.263,15.636 C129.605,15.636 129.065,16.172 129.065,16.829 C129.065,17.488 129.605,18.022 130.263,18.022 L130.263,18.022 Z M122.368,14.3 C122.368,14.091 122.467,13.895 122.642,13.742 C122.825,13.581 123.071,13.494 123.335,13.494 C123.602,13.494 123.848,13.581 124.03,13.742 C124.202,13.895 124.3,14.091 124.3,14.3 C124.3,14.506 124.202,14.705 124.03,14.859 C123.845,15.018 123.6,15.105 123.335,15.105 C123.072,15.105 122.825,15.018 122.64,14.859 C122.467,14.705 122.368,14.505 122.368,14.3 L122.368,14.3 Z M124.385,15.263 C124.677,15.008 124.84,14.666 124.84,14.3 C124.84,13.932 124.677,13.589 124.385,13.335 C124.102,13.083 123.73,12.95 123.335,12.95 C122.938,12.95 122.564,13.083 122.283,13.335 C121.989,13.591 121.83,13.934 121.83,14.3 C121.83,14.663 121.992,15.008 122.283,15.263 C122.565,15.512 122.938,15.646 123.335,15.646 C123.728,15.646 124.102,15.512 124.385,15.263 L124.385,15.263 Z M112.234,29.302 L112.134,29.543 L111.898,29.641 L110.822,29.641 L110.587,29.543 L110.49,29.302 L110.49,27.329 L110.587,27.09 L110.822,26.99 L111.898,26.99 L112.134,27.09 L112.234,27.329 L112.234,29.302 Z M111.898,26.445 L110.822,26.445 C110.591,26.445 110.363,26.539 110.203,26.702 C110.038,26.869 109.946,27.091 109.946,27.329 L109.946,29.302 C109.946,29.538 110.038,29.758 110.203,29.926 C110.368,30.089 110.592,30.182 110.822,30.182 L111.898,30.182 C112.128,30.182 112.354,30.089 112.519,29.926 L112.569,29.882 L112.569,29.851 C112.697,29.698 112.779,29.509 112.779,29.302 L112.779,27.329 C112.779,27.096 112.685,26.871 112.519,26.704 C112.356,26.539 112.131,26.445 111.898,26.445 L111.898,26.445 Z M114.25,29.641 L117.242,29.641 L117.242,26.991 L114.25,26.991 L114.25,29.641 Z M113.982,26.445 L113.708,26.717 L113.708,29.909 L113.982,30.182 L117.52,30.182 L117.79,29.909 L117.79,26.717 L117.52,26.445 L113.982,26.445 Z M123.335,26.731 C124.217,26.731 125.715,27.961 125.715,28.899 C125.715,29.079 125.5,29.275 125.121,29.436 C124.656,29.623 124.019,29.733 123.335,29.733 C122.65,29.733 122.014,29.623 121.547,29.432 C121.173,29.276 120.956,29.079 120.956,28.899 C120.956,27.961 122.453,26.731 123.335,26.731 L123.335,26.731 Z M121.342,29.934 C121.87,30.153 122.582,30.269 123.335,30.269 C124.091,30.269 124.795,30.153 125.328,29.934 C125.926,29.685 126.257,29.315 126.257,28.899 C126.257,27.643 124.487,26.186 123.335,26.186 C122.181,26.186 120.414,27.643 120.414,28.899 C120.414,29.315 120.742,29.685 121.342,29.934 L121.342,29.934 Z M129.424,29.641 L132.416,29.641 L132.416,26.991 L129.424,26.991 L129.424,29.641 Z M129.15,26.445 L128.879,26.717 L128.879,29.909 L129.15,30.182 L132.687,30.182 L132.96,29.909 L132.96,26.717 L132.687,26.445 L129.15,26.445 Z M136.184,29.302 L136.083,29.543 L135.847,29.641 L134.775,29.641 L134.533,29.543 L134.433,29.302 L134.433,27.329 L134.533,27.091 L134.775,26.99 L135.847,26.99 L136.083,27.09 L136.184,27.329 L136.184,29.302 Z M135.847,26.445 L134.775,26.445 C134.537,26.445 134.316,26.536 134.152,26.702 C133.984,26.869 133.889,27.091 133.889,27.329 L133.889,29.302 C133.889,29.538 133.984,29.758 134.152,29.926 C134.319,30.092 134.54,30.182 134.775,30.182 L135.847,30.182 C136.076,30.182 136.298,30.092 136.465,29.926 L136.515,29.882 L136.515,29.851 C136.646,29.692 136.722,29.507 136.722,29.302 L136.722,27.329 C136.722,27.096 136.635,26.871 136.468,26.704 C136.301,26.536 136.081,26.445 135.847,26.445 L135.847,26.445 Z M142.58,63.991 C142.58,64.986 142.489,65.975 142.329,66.943 C141.982,66.665 141.621,66.48 141.254,66.384 L141.254,32.67 L142.58,32.67 L142.58,63.991 Z M141.932,68.806 L140.072,66.952 C140.24,66.897 140.407,66.857 140.567,66.854 C141.271,66.813 141.848,67.206 142.228,67.567 C142.147,67.973 142.044,68.383 141.932,68.806 L141.932,68.806 Z M141.226,70.878 L136.318,65.971 L137.372,65.971 C137.722,66.464 137.988,67.07 138.165,67.777 L138.35,67.973 L138.613,67.911 C138.837,67.695 139.171,67.409 139.546,67.191 L141.759,69.411 C141.609,69.908 141.421,70.398 141.226,70.878 L141.226,70.878 Z M140.333,72.755 L133.547,65.971 L135.55,65.971 L141.003,71.421 C140.801,71.869 140.578,72.317 140.333,72.755 L140.333,72.755 Z M139.758,73.744 C139.596,73.997 139.428,74.231 139.268,74.459 L130.778,65.971 L132.78,65.971 L140.057,73.248 C139.958,73.417 139.858,73.584 139.758,73.744 L139.758,73.744 Z M138.043,75.998 L128.574,66.535 C128.678,66.331 128.79,66.141 128.909,65.971 L130.009,65.971 L138.948,74.904 C138.657,75.284 138.354,75.645 138.043,75.998 L138.043,75.998 Z M136.665,77.398 L126.226,66.956 C126.797,67.148 127.307,67.552 127.667,67.908 L127.932,67.973 L128.119,67.777 C128.182,67.526 128.265,67.302 128.345,67.078 L137.679,76.405 C137.363,76.739 137.024,77.073 136.665,77.398 L136.665,77.398 Z M135.127,78.634 L124.062,67.564 C124.487,67.166 124.925,66.93 125.371,66.871 L136.25,77.758 C135.88,78.073 135.501,78.366 135.127,78.634 L135.127,78.634 Z M133.419,79.697 L123.606,69.883 L123.606,68.056 L123.688,67.96 L134.668,78.942 C134.259,79.212 133.842,79.468 133.419,79.697 L133.419,79.697 Z M132.161,80.319 C131.951,80.404 131.74,80.491 131.531,80.576 L123.606,72.655 L123.606,70.649 L132.917,79.957 C132.662,80.084 132.408,80.209 132.161,80.319 L132.161,80.319 Z M129.501,81.312 L123.606,75.423 L123.606,73.424 L130.976,80.789 C130.543,80.96 130.071,81.123 129.501,81.312 L129.501,81.312 Z M127.391,81.974 L123.606,78.193 L123.606,76.196 L128.918,81.502 C128.388,81.671 127.875,81.828 127.391,81.974 L127.391,81.974 Z M126.752,82.166 C126.264,82.312 125.76,82.464 125.265,82.626 L123.606,80.967 L123.606,78.958 L126.797,82.154 L126.752,82.166 Z M123.606,83.245 L123.606,81.735 L124.691,82.82 C124.259,82.97 123.907,83.109 123.606,83.245 L123.606,83.245 Z M125.023,32.67 L125.023,66.388 C124.533,66.512 124.059,66.799 123.606,67.246 L123.606,32.67 L125.023,32.67 Z M106.683,32.128 L139.984,32.128 L139.984,31.395 L106.683,31.395 L106.683,32.128 Z M121.707,38.486 L123.061,38.486 L123.061,32.672 L121.707,32.672 L121.707,38.486 Z M119.752,38.485 L121.16,38.485 L121.16,32.67 L119.752,32.67 L119.752,38.485 Z M117.79,38.485 L119.205,38.485 L119.205,32.67 L117.79,32.67 L117.79,38.485 Z M115.832,38.485 L117.251,38.485 L117.251,32.67 L115.832,32.67 L115.832,38.485 Z M113.878,38.485 L115.292,38.485 L115.292,32.67 L113.878,32.67 L113.878,38.485 Z M111.921,38.485 L113.334,38.485 L113.334,32.67 L111.921,32.67 L111.921,38.485 Z M109.961,38.485 L111.377,38.485 L111.377,32.67 L109.961,32.67 L109.961,38.485 Z M108.004,38.485 L109.42,38.485 L109.42,32.67 L108.004,32.67 L108.004,38.485 Z M104.091,44.846 L123.061,44.846 L123.061,39.034 L104.091,39.034 L104.091,44.846 Z M121.707,51.202 L123.061,51.202 L123.061,45.389 L121.707,45.389 L121.707,51.202 Z M119.752,51.202 L121.16,51.202 L121.16,45.389 L119.752,45.389 L119.752,51.202 Z M117.79,51.202 L119.205,51.202 L119.205,45.389 L117.79,45.389 L117.79,51.202 Z M115.832,51.202 L117.251,51.202 L117.251,45.389 L115.832,45.389 L115.832,51.202 Z M113.878,51.202 L115.292,51.202 L115.292,45.389 L113.878,45.389 L113.878,51.202 Z M111.921,51.202 L113.334,51.202 L113.334,45.389 L111.921,45.389 L111.921,51.202 Z M109.961,51.202 L111.377,51.202 L111.377,45.389 L109.961,45.389 L109.961,51.202 Z M108.004,51.202 L109.42,51.202 L109.42,45.389 L108.004,45.389 L108.004,51.202 Z M106.048,51.202 L107.461,51.202 L107.461,45.389 L106.048,45.389 L106.048,51.202 Z M104.091,57.567 L123.061,57.567 L123.061,51.75 L104.091,51.75 L104.091,57.567 Z M121.707,63.926 L123.061,63.926 L123.061,58.105 L121.707,58.105 L121.707,63.926 Z M119.752,63.928 L121.16,63.928 L121.16,58.107 L119.752,58.107 L119.752,63.928 Z M117.79,63.928 L119.205,63.928 L119.205,58.107 L117.79,58.107 L117.79,63.928 Z M115.832,63.928 L117.251,63.928 L117.251,58.107 L115.832,58.107 L115.832,63.928 Z M113.878,63.928 L115.292,63.928 L115.292,58.107 L113.878,58.107 L113.878,63.928 Z M111.921,63.928 L113.334,63.928 L113.334,58.107 L111.921,58.107 L111.921,63.928 Z M109.961,63.928 L111.377,63.928 L111.377,58.107 L109.961,58.107 L109.961,63.928 Z M108.004,63.928 L109.42,63.928 L109.42,58.107 L108.004,58.107 L108.004,63.928 Z M106.048,63.928 L107.461,63.928 L107.461,58.107 L106.048,58.107 L106.048,63.928 Z M123.061,70.285 L105.203,70.285 C104.859,69.352 104.589,68.379 104.405,67.397 C104.227,66.44 104.135,65.452 104.109,64.465 L123.061,64.465 L123.061,70.285 Z M121.707,76.644 L123.061,76.644 L123.061,70.831 L121.707,70.831 L121.707,76.644 Z M119.752,76.644 L121.16,76.644 L121.16,70.831 L119.752,70.831 L119.752,76.644 Z M117.79,76.644 L119.205,76.644 L119.205,70.831 L117.79,70.831 L117.79,76.644 Z M115.832,76.644 L117.251,76.644 L117.251,70.831 L115.832,70.831 L115.832,76.644 Z M113.878,76.644 L115.292,76.644 L115.292,70.831 L113.878,70.831 L113.878,76.644 Z M111.921,76.644 L113.334,76.644 L113.334,70.831 L111.921,70.831 L111.921,76.644 Z M109.961,76.644 L111.377,76.644 L111.377,70.831 L109.961,70.831 L109.961,76.644 Z M123.061,83.255 C122.24,82.871 121.138,82.539 119.867,82.155 L119.764,82.123 L119.762,82.123 C118.163,81.644 116.349,81.1 114.512,80.313 C113.574,79.914 112.655,79.406 111.776,78.801 C111.079,78.317 110.417,77.77 109.794,77.188 L123.061,77.188 L123.061,83.255 Z M109.42,76.644 L109.222,76.644 C108.788,76.202 108.382,75.737 108.004,75.267 L108.004,70.831 L109.42,70.831 L109.42,76.644 Z M107.46,74.528 C107.287,74.285 107.108,74.043 106.952,73.802 C106.637,73.314 106.33,72.783 106.048,72.227 L106.048,70.831 L107.46,70.831 L107.46,74.528 Z M104.092,63.928 L105.506,63.928 L105.506,58.107 L104.092,58.107 L104.092,63.928 Z M104.092,51.202 L105.506,51.202 L105.506,45.389 L104.092,45.389 L104.092,51.202 Z M104.092,38.485 L105.506,38.485 L105.506,32.67 L104.092,32.67 L104.092,38.485 Z M106.048,38.485 L107.461,38.485 L107.461,32.67 L106.048,32.67 L106.048,38.485 Z M106.119,19.231 L106.409,18.942 L106.613,19.024 L106.619,19.031 L106.706,19.231 L106.619,19.438 L106.614,19.444 L106.409,19.526 L106.119,19.231 Z M106.683,30.182 L108.758,30.182 L109.025,29.909 L109.025,26.717 L108.758,26.445 L106.683,26.445 L106.683,25.72 L118.975,25.72 L118.975,30.852 L106.683,30.852 L106.683,30.182 Z M106.683,29.64 L108.479,29.64 L108.479,26.99 L106.683,26.99 L106.683,29.64 Z M119.518,30.853 L127.147,30.853 L127.147,25.723 L119.518,25.723 L119.518,30.853 Z M106.683,25.177 L139.984,25.177 L139.984,24.283 L106.683,24.283 L106.683,25.177 Z M108.166,20.615 L109.125,23.739 L107.205,23.739 L108.166,20.615 Z M107.777,18.492 C107.777,18.277 107.949,18.101 108.166,18.101 C108.381,18.101 108.557,18.281 108.557,18.492 C108.557,18.709 108.382,18.883 108.166,18.883 C107.949,18.883 107.777,18.709 107.777,18.492 L107.777,18.492 Z M113.416,20.781 L113.416,23.739 L110.083,23.739 L110.083,20.781 C110.083,20.334 110.257,19.917 110.572,19.605 C110.885,19.291 111.307,19.115 111.748,19.115 C112.666,19.115 113.416,19.864 113.416,20.781 L113.416,20.781 Z M118.355,23.739 L114.465,23.739 L116.409,19.107 L118.355,23.739 Z M109.083,18.434 C110.038,16.527 111.472,14.854 113.24,13.586 C114.929,12.373 116.91,11.549 118.975,11.18 L118.971,23.739 L118.942,23.739 L116.658,18.303 L116.409,18.139 L116.163,18.303 L113.958,23.544 L113.958,20.781 C113.958,19.563 112.967,18.572 111.748,18.572 C111.164,18.572 110.609,18.804 110.187,19.219 C109.77,19.636 109.538,20.189 109.538,20.781 L109.538,23.233 L108.43,19.596 L108.183,19.426 C108.453,19.417 108.7,19.302 108.877,19.099 C109.033,18.912 109.1,18.675 109.083,18.434 L109.083,18.434 Z M109.546,15.25 L117.447,9.864 L118.975,9.864 L118.975,10.626 C116.792,10.999 114.704,11.866 112.919,13.147 C111.29,14.322 109.94,15.846 108.953,17.563 L109.546,15.25 Z M119.519,19.864 C119.56,18.922 119.956,18.022 120.639,17.344 C121.361,16.623 122.321,16.221 123.335,16.221 C124.348,16.221 125.305,16.623 126.031,17.344 C126.713,18.022 127.108,18.924 127.147,19.875 L127.147,23.739 L119.519,23.739 L119.519,19.864 Z M119.519,9.864 L120.7,9.864 L120.7,16.58 L120.252,16.962 C119.956,17.259 119.722,17.608 119.519,17.973 L119.519,9.864 Z M121.241,9.864 L125.428,9.864 L125.428,16.231 C124.781,15.874 124.066,15.681 123.335,15.681 C122.6,15.681 121.885,15.874 121.241,16.231 L121.241,9.864 Z M121.273,5.617 L120.898,5.543 L119.518,6.466 L119.398,6.687 L119.22,7.063 L118.828,7.225 L118.411,7.067 L118.237,6.658 L118.395,6.242 L118.803,6.06 L118.907,6.066 L119.006,6.094 L119.244,6.063 L120.625,5.135 L120.701,4.766 L119.607,3.135 L119.4,3.014 L119.011,2.84 L118.849,2.445 L119.011,2.031 L119.418,1.848 L119.835,2.01 L120.013,2.42 L120.01,2.527 L119.984,2.62 L120.013,2.858 L121.102,4.488 L121.273,4.599 L121.479,4.565 L122.814,3.666 L122.938,3.448 L123.116,3.071 L123.51,2.905 L123.927,3.071 L124.107,3.478 L123.944,3.893 L123.538,4.071 L123.429,4.064 L123.332,4.04 L123.09,4.071 L121.753,4.969 L121.674,5.345 L122.934,7.221 L123.205,7.335 L123.258,7.331 L123.319,7.325 C123.572,7.323 123.815,7.413 123.994,7.587 C124.177,7.76 124.28,7.995 124.289,8.251 C124.294,8.5 124.201,8.739 124.026,8.924 C123.852,9.105 123.614,9.206 123.363,9.21606894 C123.113,9.219 122.874,9.124 122.689,8.949 C122.51,8.775 122.404,8.541 122.4,8.292 L122.432,8.027 L122.535,7.785 L122.528,7.492 L121.273,5.617 Z M125.97,9.864 L127.147,9.864 L127.147,17.975 C126.948,17.608 126.716,17.26 126.418,16.962 L125.97,16.578 L125.97,9.864 Z M132.207,23.739 L128.313,23.739 L130.26,19.107 L132.207,23.739 Z M136.585,20.781 L136.585,23.739 L133.256,23.739 L133.256,20.781 C133.256,19.864 134.002,19.115 134.921,19.115 C135.362,19.115 135.781,19.291 136.095,19.605 C136.414,19.917 136.585,20.335 136.585,20.781 L136.585,20.781 Z M133.433,13.586 C135.188,14.849 136.618,16.513 137.572,18.406 L137.567,18.492 C137.567,19.001 137.98,19.416 138.486,19.426 L138.24,19.594 L137.132,23.216 L137.132,20.781 C137.132,20.192 136.896,19.64 136.479,19.219 C136.062,18.804 135.511,18.572 134.921,18.572 C133.703,18.572 132.713,19.563 132.713,20.781 L132.713,23.544 L130.507,18.303 L130.258,18.139 L130.01,18.303 L127.727,23.739 L127.697,23.739 L127.691,11.18 C129.759,11.549 131.746,12.373 133.433,13.586 L133.433,13.586 Z M127.691,9.864 L129.224,9.864 L137.125,15.251 L137.731,17.591 C136.752,15.864 135.393,14.329 133.747,13.147 C131.968,11.866 129.873,10.999 127.691,10.626 L127.691,9.864 Z M138.499,18.101 C138.717,18.101 138.894,18.277 138.894,18.492 C138.894,18.709 138.717,18.883 138.499,18.883 C138.286,18.883 138.112,18.709 138.112,18.492 C138.112,18.286 138.296,18.101 138.499,18.101 L138.499,18.101 Z M139.464,23.739 L137.543,23.739 L138.499,20.609 L139.464,23.739 Z M138.193,29.641 L139.986,29.641 L139.986,26.991 L138.193,26.991 L138.193,29.641 Z M137.915,26.445 L137.64,26.717 L137.64,29.909 L137.915,30.182 L139.986,30.182 L139.986,30.852 L127.691,30.852 L127.691,25.72 L139.986,25.72 L139.986,26.445 L137.915,26.445 Z M139.292,54.098 C139.709,54.116 140.24,54.212 140.713,54.507 L140.713,66.315 L140.536,66.308 C140.132,66.33 139.712,66.466 139.292,66.705 L139.292,54.098 Z M135.245,50.011 L136.788,50.011 L136.788,45.318 L135.245,45.318 L135.245,50.011 Z M138.749,45.727 L138.749,50.012 L137.335,50.012 L137.335,45.324 L137.348,45.324 C137.915,45.324 138.317,45.442 138.749,45.727 L138.749,45.727 Z M137.335,41.243 L137.335,32.67 L138.749,32.67 L138.749,40.839 C138.32,41.12 137.901,41.243 137.348,41.243 L137.335,41.243 Z M135.506,35.067 L135.369,35.067 L135.369,32.67 L136.788,32.67 L136.788,41.243 L135.247,41.243 L135.247,37.209 C135.247,36.541 135.419,35.933 135.728,35.49 L135.749,35.213 L135.506,35.067 Z M133.413,35.066 L134.829,35.066 L134.829,32.67 L133.413,32.67 L133.413,35.066 Z M131.452,35.066 L132.868,35.066 L132.868,32.67 L131.452,32.67 L131.452,35.066 Z M130.595,35.49 C130.904,35.93 131.078,36.538 131.078,37.209 L131.078,41.243 L129.491,41.243 L129.491,32.67 L130.904,32.67 L130.904,35.067 L130.817,35.067 L130.58,35.213 L130.595,35.49 Z M127.53,40.829 L127.53,32.67 L128.948,32.67 L128.948,41.233 C128.409,41.208 127.911,41.066 127.53,40.829 L127.53,40.829 Z M129.491,50.011 L131.079,50.011 L131.079,45.318 L129.491,45.318 L129.491,50.011 Z M127.53,50.012 L127.53,45.74 C128.004,45.445 128.532,45.351 128.948,45.332 L128.948,50.012 L127.53,50.012 Z M125.571,49.594 L125.571,32.67 L126.99,32.67 L126.99,49.997 C126.442,49.978 125.965,49.843 125.571,49.594 L125.571,49.594 Z M126.99,54.102 L126.99,66.715 C126.513,66.44 126.036,66.306 125.571,66.316 L125.571,54.507 C125.965,54.251 126.442,54.12 126.99,54.102 L126.99,54.102 Z M134.981,53.547 L134.707,53.817 L134.707,60.517 L134.59,60.495 L134.557,60.496 L134.557,60.484 C134.59,60.193 134.483,59.919 134.263,59.682 C134.074,59.475 133.816,59.363 133.613,59.271 L133.6,59.264 L133.282,59.105 L133,59.102 L132.686,59.261 L132.662,59.271 C132.447,59.367 132.2,59.475 132.01,59.684 C131.794,59.926 131.692,60.202 131.718,60.478 L131.72,60.496 L131.686,60.495 L131.62,60.505 L131.62,53.817 L131.351,53.547 L127.107,53.547 C126.532,53.547 126.022,53.664 125.571,53.881 L125.571,50.195 C126.026,50.419 126.532,50.551 127.107,50.551 L131.351,50.551 L131.62,50.283 L131.62,45.05 L131.351,44.783 L129.135,44.783 C128.542,44.783 128,44.901 127.53,45.119 L127.53,41.443 C127.994,41.668 128.542,41.791 129.135,41.791 L131.351,41.791 L131.62,41.515 L131.62,37.209 C131.62,36.619 131.501,36.076 131.279,35.611 L135.049,35.611 C134.829,36.076 134.707,36.619 134.707,37.209 L134.707,41.515 L134.981,41.791 L137.348,41.791 C137.897,41.791 138.336,41.684 138.756,41.463 L138.756,45.103 C138.336,44.883 137.897,44.783 137.348,44.783 L134.981,44.783 L134.707,45.05 L134.707,50.283 L134.981,50.551 L139.107,50.551 C139.698,50.551 140.24,50.43 140.706,50.209 L140.706,53.887 C140.24,53.668 139.698,53.547 139.107,53.547 L134.981,53.547 Z M138.578,60.406 L138.296,60.453 L138.061,60.406 L137.951,60.374 L137.435,60.506 L137.335,60.658 L137.335,54.085 L138.749,54.085 L138.749,60.506 L138.578,60.406 Z M137.869,64.758 C137.999,63.53 138.236,61.259 138.749,60.927 L138.749,67.073 L138.556,67.234 C138.366,66.61 138.111,66.057 137.777,65.604 C137.806,65.386 137.837,65.116 137.869,64.758 L137.869,64.758 Z M136.214,63.893 C136.333,63.893 136.451,63.872 136.56,63.827 C136.771,63.747 136.963,63.584 137.119,63.344 C137.219,63.196 137.309,63.008 137.391,62.779 L137.258,62.463 L136.916,62.527 L136.671,62.742 L136.494,62.696 L136.384,62.236 L136.334,61.964 L136.599,61.542 L136.763,61.277 L136.788,61.263 L136.913,61.246 L136.927,61.246 L136.922,61.246 L136.94,61.252 L136.962,61.252 L137.013,61.277 L136.953,61.259 L137.048,61.352 L137.077,61.409 L137.355,61.545 L137.584,61.332 L137.635,61.149 L137.766,60.936 L137.849,60.91 L137.881,60.915 L138.071,60.951 C137.725,61.633 137.54,62.843 137.421,63.893 L136.214,63.893 Z M137.361,64.438 L137.34,64.62 L137.335,64.701 L137.329,64.735 C137.299,65.009 137.276,65.235 137.251,65.433 L129.029,65.433 C129.004,65.245 128.978,65.02 128.942,64.701 L128.924,64.517 L128.918,64.438 L137.361,64.438 Z M131.078,60.752 L130.956,60.879 L130.766,61.277 L130.555,61.716 L130.508,62.052 L130.725,62.459 L131.018,62.947 L131.078,63.007 L131.078,63.234 L130.922,63.152 L130.611,63.152 L130.306,63.307 L129.917,63.324 L129.839,63.255 C129.928,63.227 130.021,63.195 130.104,63.129 C130.338,62.958 130.384,62.634 130.428,62.319 L130.492,61.968 L130.389,61.68 L130.188,61.348 C130.121,61.172 130.043,60.979 129.819,60.831 L129.751,60.787 L129.745,60.785 L129.736,60.781 L129.491,60.734 L129.491,54.085 L131.078,54.085 L131.078,60.752 Z M131.289,63.893 L130.106,63.893 C130.228,63.89 130.352,63.871 130.487,63.822 L130.759,63.687 C130.943,63.793 131.118,63.871 131.289,63.893 L131.289,63.893 Z M135.512,63.688 L135.791,63.822 C135.926,63.871 136.055,63.89 136.176,63.893 L134.995,63.893 C135.16,63.871 135.334,63.793 135.512,63.688 L135.512,63.688 Z M135.719,61.712 L135.512,61.292 L135.316,60.879 L135.247,60.802 L135.247,54.085 L136.788,54.085 L136.788,60.74 L136.54,60.781 L136.458,60.831 C136.236,60.979 136.158,61.172 136.095,61.346 L135.88,61.691 L135.785,61.968 L135.85,62.311 C135.886,62.615 135.938,62.958 136.176,63.129 C136.259,63.196 136.347,63.228 136.44,63.256 L136.361,63.324 L135.974,63.309 L135.661,63.15 L135.362,63.146 L135.247,63.203 L135.247,62.958 L135.248,62.954 L135.55,62.467 L135.761,62.052 L135.719,61.712 Z M132.2,61.232 L132.518,61.182 L132.501,60.822 L132.255,60.43 L132.409,60.047 L132.878,59.769 L132.895,59.762 L133.145,59.641 L133.395,59.764 L133.868,60.049 L134.024,60.43 L133.774,60.824 L133.762,61.182 L134.12,61.236 L134.024,61.265 L134.085,61.265 L134.128,61.235 L134.572,61.034 L134.902,61.223 L134.992,61.435 L134.998,61.456 L135.219,61.916 L135.066,62.217 L135.057,62.231 L135.047,62.26 L134.857,62.578 L134.562,62.732 L134.066,62.494 L133.74,62.494 L133.641,62.808 C133.856,63.334 134.109,63.663 134.433,63.815 C134.519,63.857 134.61,63.879 134.696,63.893 L131.58,63.893 C131.666,63.879 131.757,63.857 131.84,63.815 C132.164,63.663 132.419,63.334 132.633,62.808 L132.536,62.494 L132.21,62.491 L131.714,62.732 L131.419,62.578 L131.218,62.234 L131.061,61.916 L131.276,61.467 L131.295,61.418 L131.374,61.225 L131.698,61.034 L132.149,61.235 L132.151,61.236 L132.191,61.265 L132.251,61.265 L132.2,61.232 Z M128.206,60.951 L128.402,60.915 L128.42,60.91 L128.513,60.936 L128.644,61.152 L128.694,61.332 L128.918,61.545 L129.2,61.409 L129.22,61.369 L129.235,61.348 L129.322,61.259 L129.261,61.277 L129.328,61.25 L129.342,61.25 L129.363,61.246 L129.488,61.263 L129.517,61.277 L129.681,61.542 L129.936,61.958 L129.901,62.186 L129.894,62.236 L129.779,62.696 L129.608,62.742 L129.362,62.527 L129.018,62.463 L128.89,62.785 C128.964,63.001 129.055,63.192 129.157,63.348 C129.312,63.58 129.502,63.747 129.72,63.83 C129.832,63.872 129.945,63.893 130.061,63.893 L128.861,63.893 C128.737,62.843 128.556,61.633 128.206,60.951 L128.206,60.951 Z M127.53,60.505 L127.53,54.085 L128.948,54.085 L128.948,60.659 L128.844,60.508 L128.334,60.374 L128.217,60.406 L127.978,60.453 L127.699,60.406 L127.53,60.505 Z M128.407,64.758 C128.435,65.061 128.47,65.366 128.499,65.604 C128.174,66.06 127.915,66.61 127.722,67.234 L127.53,67.071 L127.53,60.925 C128.043,61.253 128.277,63.53 128.407,64.758 L128.407,64.758 Z M140.713,32.67 L140.713,49.593 C140.24,49.89 139.709,49.984 139.292,50.004 L139.292,45.617 L139.3,45.582 L139.3,40.983 L139.292,40.942 L139.292,32.67 L140.713,32.67 Z M139.961,19.231 L140.259,18.942 L140.549,19.231 L140.259,19.526 L139.961,19.231 Z M142.847,32.128 L140.524,32.128 L140.524,20.159 C140.524,20.102 140.514,20.057 140.502,20.024 C140.838,19.917 141.095,19.611 141.095,19.231 C141.095,18.769 140.721,18.398 140.259,18.398 C139.792,18.398 139.418,18.769 139.418,19.231 C139.418,19.608 139.67,19.917 140.012,20.021 C139.994,20.057 139.986,20.102 139.986,20.159 L139.986,23.586 L138.763,19.596 L138.521,19.426 C139.025,19.414 139.436,19.001 139.436,18.492 C139.436,18.175 139.276,17.88 139.007,17.708 C138.785,17.57 138.535,17.534 138.293,17.587 L137.625,15.019 L137.527,14.872 L129.46,9.372 L129.309,9.322 L124.385,9.322 L124.415,9.298 C124.694,9.01 124.84,8.636 124.831,8.237 C124.826,7.843 124.657,7.471 124.372,7.194 C124.084,6.92 123.709,6.772 123.311,6.784 L123.297,6.784 L122.28,5.268 L123.289,4.591 L123.346,4.604 L123.543,4.617 C123.848,4.611 124.125,4.487 124.336,4.271 C124.545,4.047 124.656,3.762 124.649,3.463 C124.643,3.165 124.52,2.885 124.302,2.676 C124.084,2.473 123.799,2.359 123.502,2.362 C123.218,2.369 122.948,2.48 122.745,2.677 C122.575,2.841 122.472,3.05 122.432,3.275 L121.405,3.964 L120.534,2.66 L120.544,2.605 L120.56,2.405 C120.555,2.107 120.426,1.826 120.209,1.617 C119.987,1.409 119.706,1.297 119.408,1.30277082 C119.108,1.31 118.825,1.431 118.618,1.652 C118.411,1.872 118.297,2.154 118.306,2.455 C118.313,2.741 118.422,3.01 118.622,3.214 C118.783,3.383 118.993,3.483 119.216,3.526 L120.096,4.836 L119.046,5.541 L118.988,5.53 L118.792,5.519 C118.493,5.523 118.21,5.647 118,5.863 C117.79,6.084 117.68,6.37 117.689,6.666 C117.694,6.966 117.818,7.248 118.036,7.456 C118.256,7.666 118.541,7.779 118.841,7.771 C119.123,7.763 119.393,7.65 119.597,7.455 C119.762,7.291 119.867,7.079 119.909,6.857 L120.975,6.143 L121.992,7.671 L121.909,7.884 L121.853,8.303 C121.866,8.692 122.024,9.049 122.297,9.322 L117.363,9.322 L117.209,9.372 L109.154,14.865 L109.045,15.022 L108.393,17.591 C108.151,17.534 107.889,17.569 107.668,17.708 C107.394,17.88 107.23,18.17 107.23,18.492 C107.23,19.001 107.646,19.416 108.151,19.426 L107.904,19.594 L106.683,23.586 L106.683,20.159 C106.683,20.102 106.675,20.057 106.657,20.024 C106.785,19.981 106.906,19.922 107.002,19.825 C107.163,19.665 107.248,19.458 107.248,19.231 C107.248,19.009 107.163,18.804 107.002,18.641 C106.845,18.483 106.632,18.398 106.409,18.398 C105.953,18.398 105.576,18.769 105.576,19.231 C105.576,19.611 105.832,19.917 106.172,20.024 C106.155,20.057 106.144,20.102 106.144,20.159 L106.144,32.128 L103.828,32.128 L103.548,32.398 L103.548,64.196 L103.561,64.266 L103.55,64.22 C103.562,65.32 103.671,66.419 103.871,67.497 C104.069,68.558 104.366,69.608 104.744,70.624 L104.757,70.655 C105.221,71.877 105.791,73.005 106.494,74.097 C107.205,75.196 107.992,76.183 108.913,77.107 C109.702,77.908 110.566,78.626 111.468,79.248 C112.38,79.874 113.331,80.402 114.298,80.815 C116.171,81.621 118.08,82.184 119.607,82.643 L119.688,82.665 C121.155,83.103 122.417,83.483 123.204,83.923 L123.468,83.921 C124.256,83.483 125.516,83.103 126.979,82.665 L127.06,82.643 C128.67,82.164 130.497,81.621 132.37,80.815 C135.494,79.476 138.276,77.068 140.214,74.036 C142.114,71.059 143.119,67.585 143.119,63.991 L143.119,32.398 L142.847,32.128 L142.847,32.128 Z" id="Fill-37" fill="#777776"></path>
            <path d="M596.936,83.799 C596.716,83.815 596.501,83.85 596.293,83.9 L578.049,27.298 C578.224,27.164 578.389,27.017 578.533,26.844 C579.038,26.238 579.278,25.47 579.206,24.682 C579.15,24.059 578.901,23.501 578.526,23.054 L594.837,6.937 C595.412,7.451 596.132,7.807 596.936,7.919 L596.936,83.799 Z M593.388,86.731 L578.042,86.731 L578.042,29.29 L595.705,84.091 C594.575,84.558 593.709,85.53 593.388,86.731 Z M573.315,25.219 C573.394,26.086 573.849,26.824 574.497,27.309 L564.007,68.335 C562.463,68.558 561.339,69.948 561.482,71.519 C561.561,72.385 562.015,73.12 562.659,73.606 L559.304,86.731 L544.964,86.731 C544.434,85.153 542.956,84.005 541.201,84.005 C541.195,84.005 541.19,84.007 541.184,84.007 L525.652,23.15 L525.601,22.952 L523.17,23.257 L523.17,65.433 C522.672,65.64 522.247,65.983 521.93,66.409 L505.131,49.817 C505.762,49.277 506.166,48.481 506.166,47.587 C506.166,46.401 505.459,45.389 504.449,44.918 L520.945,7.646 C521.49,7.928 522.102,8.102 522.758,8.102 C523.409,8.102 524.016,7.932 524.557,7.652 L548.103,53.159 C547.783,53.627 547.58,54.18 547.58,54.789 C547.58,56.42 548.906,57.747 550.538,57.747 C552.169,57.747 553.496,56.42 553.496,54.789 C553.496,53.93 553.123,53.163 552.537,52.623 L564.396,6.253 C565.352,6.095 566.149,5.479 566.562,4.636 L593.56,4.636 C593.676,5.336 593.981,5.967 594.41,6.491 L578.079,22.628 C577.507,22.18 576.775,21.934 575.992,22.005 C574.368,22.153 573.167,23.595 573.315,25.219 Z M523.17,86.731 L507.085,86.731 C506.902,85.939 506.476,85.247 505.899,84.717 L522.172,70.208 C522.452,70.5 522.79,70.738 523.17,70.896 L523.17,86.731 Z M505.405,84.329 C505.061,84.101 504.685,83.919 504.278,83.805 L504.278,50.337 C504.395,50.292 504.506,50.235 504.615,50.176 L521.607,66.957 C521.441,67.327 521.343,67.734 521.343,68.164 C521.343,68.736 521.511,69.266 521.793,69.718 L505.405,84.329 Z M526.692,4.636 L536.426,4.636 L548.742,52.454 C548.667,52.513 548.606,52.588 548.536,52.653 L525.083,7.326 C525.941,6.697 526.546,5.742 526.692,4.636 Z M599.456,84.455 L599.456,7.43 C600.653,6.74 601.469,5.464 601.469,3.987 C601.469,1.788 599.68,0 597.482,0 C595.963,0 594.656,0.863 593.983,2.115 L566.596,2.115 C566.128,1.097 565.106,0.386 563.913,0.386 C562.282,0.386 560.955,1.713 560.955,3.344 C560.955,4.229 561.354,5.014 561.971,5.557 L550.659,49.791 L538.424,2.288 L538.379,2.115 L526.187,2.115 C525.493,0.933 524.224,0.129 522.758,0.129 C520.559,0.129 518.771,1.917 518.771,4.115 C518.771,5.434 519.422,6.597 520.412,7.323 L504.278,43.783 L504.278,25.644 C505.38,25.214 506.166,24.146 506.166,22.893 C506.166,21.261 504.84,19.935 503.208,19.935 C501.577,19.935 500.25,21.261 500.25,22.893 C500.25,23.994 500.862,24.945 501.756,25.454 L501.756,45.025 C500.862,45.534 500.25,46.486 500.25,47.587 C500.25,48.687 500.862,49.638 501.756,50.148 L501.756,83.924 C500.276,84.507 499.222,85.943 499.222,87.628 C499.222,89.826 501.01,91.615 503.208,91.615 C504.827,91.615 506.217,90.641 506.841,89.252 L525.692,89.252 L525.692,70.76 C526.619,70.26 527.259,69.291 527.259,68.164 C527.259,67.038 526.619,66.069 525.692,65.57 L525.692,33.497 L538.793,84.835 C537.84,85.564 537.214,86.702 537.214,87.992 C537.214,90.19 539.002,91.979 541.201,91.979 C542.956,91.979 544.434,90.831 544.964,89.252 L561.261,89.252 L565.132,74.115 C565.742,73.966 566.291,73.637 566.701,73.145 C567.206,72.538 567.446,71.77 567.374,70.983 C567.305,70.22 566.944,69.558 566.419,69.078 L575.522,33.479 L575.522,89.252 L593.534,89.252 C594.127,90.711 595.556,91.744 597.224,91.744 C599.423,91.744 601.211,89.955 601.211,87.756 C601.211,86.385 600.515,85.173 599.456,84.455 Z M397.919,52.196 C397.217,52.626 396.743,53.393 396.743,54.274 C396.743,55.156 397.217,55.923 397.919,56.353 L397.919,83.079 L384.078,54.189 L397.782,29.646 C397.829,29.666 397.872,29.691 397.919,29.709 L397.919,52.196 Z M396.217,84.937 L375.432,72.327 C375.327,71.807 375.069,71.348 374.689,71.005 L383.709,54.849 L397.739,84.134 C397.169,84.288 396.653,84.565 396.217,84.937 Z M395.005,86.731 L374.236,86.731 L374.236,74.92 C374.906,74.544 375.366,73.863 375.458,73.066 L395.763,85.384 C395.43,85.775 395.17,86.232 395.005,86.731 Z M374.236,36.85 C374.468,36.72 374.667,36.544 374.846,36.349 L383.383,54.168 L374.236,70.551 L374.236,36.85 Z M374.236,8.035 C375.946,7.744 377.273,6.366 377.501,4.636 L387.449,4.636 C387.715,5.059 388.114,5.379 388.576,5.577 L374.414,32.733 C374.353,32.691 374.301,32.637 374.236,32.6 L374.236,8.035 Z M403.277,25.98 C403.277,23.781 401.489,21.992 399.289,21.992 C397.091,21.992 395.303,23.781 395.303,25.98 C395.303,27.421 396.081,28.67 397.232,29.367 L383.752,53.508 L375.244,35.751 C375.395,35.438 375.496,35.096 375.496,34.725 C375.496,34.12 375.258,33.581 374.89,33.156 L389.186,5.744 C389.296,5.76 389.402,5.787 389.515,5.787 C390.863,5.787 391.959,4.691 391.959,3.344 C391.959,1.996 390.863,0.9 389.515,0.9 C388.617,0.9 387.84,1.392 387.415,2.115 L376.996,2.115 C376.303,0.933 375.033,0.129 373.568,0.129 C371.368,0.129 369.58,1.917 369.58,4.115 C369.58,5.642 370.451,6.954 371.714,7.624 L371.714,32.685 C371.05,33.122 370.61,33.872 370.61,34.725 C370.61,35.578 371.05,36.328 371.714,36.765 L371.714,70.754 C371.05,71.192 370.61,71.942 370.61,72.795 C370.61,73.648 371.05,74.398 371.714,74.835 L371.714,89.252 L395.019,89.252 C395.556,90.821 397.028,91.958 398.776,91.958 C400.974,91.958 402.762,90.169 402.762,87.971 C402.762,86.369 401.807,84.993 400.441,84.36 L400.441,56.361 C401.151,55.933 401.631,55.162 401.631,54.274 C401.631,53.387 401.151,52.616 400.441,52.188 L400.441,29.777 C402.075,29.28 403.277,27.776 403.277,25.98 Z M490.212,19.304 C490.171,19.303 490.132,19.292 490.09,19.292 C489.03,19.292 488.07,19.711 487.36,20.39 L460.557,4.636 L490.212,4.636 L490.212,19.304 Z M486.13,23.01 L466.6,23.01 C466.156,22.396 465.439,21.992 464.625,21.992 C463.278,21.992 462.181,23.089 462.181,24.436 C462.181,25.394 462.74,26.218 463.546,26.617 L463.546,41.978 C463.344,42.119 463.174,42.297 463.023,42.49 L441.134,25.854 C441.257,25.537 441.346,25.204 441.346,24.843 C441.346,24.02 440.99,23.284 440.431,22.763 L455.744,5.11 C456.181,5.529 456.771,5.787 457.422,5.787 C458.267,5.787 459.001,5.349 459.44,4.696 L486.944,20.862 C486.483,21.468 486.186,22.204 486.13,23.01 Z M440.509,72 C440.322,71.882 440.126,71.774 439.92,71.688 L439.92,52.789 C440.883,52.301 441.552,51.311 441.552,50.159 C441.552,49.007 440.883,48.017 439.92,47.529 L439.92,27.298 C440.295,27.079 440.605,26.769 440.847,26.412 L462.705,43.024 C462.576,43.321 462.49,43.641 462.49,43.986 C462.49,44.445 462.628,44.869 462.85,45.236 L440.509,72 Z M436.331,23.01 L413.254,23.01 L413.254,7.752 C414.493,7.198 415.387,6.03 415.571,4.636 L455.338,4.636 L439.933,22.395 C439.509,22.146 439.022,21.992 438.495,21.992 C437.625,21.992 436.855,22.393 436.331,23.01 Z M492.734,2.115 L459.523,2.115 C459.098,1.392 458.321,0.9 457.422,0.9 C456.525,0.9 455.747,1.392 455.322,2.115 L415.065,2.115 C414.372,0.933 413.103,0.129 411.637,0.129 C409.438,0.129 407.65,1.917 407.65,4.115 C407.65,6.002 408.97,7.578 410.733,7.99 L410.733,25.531 L435.738,25.531 C435.957,26.409 436.576,27.13 437.399,27.473 L437.399,47.458 C436.363,47.918 435.636,48.953 435.636,50.159 C435.636,51.364 436.363,52.399 437.399,52.86 L437.399,71.519 C435.68,71.962 434.401,73.512 434.401,75.367 C434.401,77.565 436.19,79.354 438.388,79.354 C440.586,79.354 442.375,77.565 442.375,75.367 C442.375,74.171 441.84,73.103 441.004,72.372 L463.245,45.726 C463.341,45.82 463.436,45.916 463.546,45.992 L463.546,86.731 L453.483,86.731 C453.104,85.872 452.246,85.27 451.249,85.27 C449.902,85.27 448.806,86.366 448.806,87.714 C448.806,89.061 449.902,90.157 451.249,90.157 C452.011,90.157 452.683,89.8 453.132,89.252 L466.067,89.252 L466.067,46.138 C466.842,45.727 467.377,44.922 467.377,43.986 C467.377,43.049 466.842,42.244 466.067,41.833 L466.067,26.399 C466.375,26.172 466.624,25.875 466.798,25.531 L486.805,25.531 C487.525,26.577 488.728,27.266 490.09,27.266 C492.288,27.266 494.077,25.477 494.077,23.279 C494.077,22.098 493.551,21.047 492.734,20.317 L492.734,2.115 L492.734,2.115 Z" id="Fill-55" fill="#1A193B"></path>
            <path d="M371.709,112.574 C371.709,112.352 371.886,112.153 372.13,112.153 L380.865,112.153 C381.11,112.153 381.287,112.352 381.287,112.574 L381.287,113.218 C381.287,113.439 381.11,113.638 380.865,113.638 L373.416,113.638 L373.416,119.714 L379.78,119.714 C380.001,119.714 380.2,119.913 380.2,120.135 L380.2,120.777 C380.2,120.999 380.001,121.199 379.78,121.199 L373.416,121.199 L373.416,127.252 C373.416,127.473 373.217,127.673 372.995,127.673 L372.13,127.673 C371.886,127.673 371.709,127.473 371.709,127.252 L371.709,112.574" id="Fill-56" fill="#777776"></path>
            <path d="M384.633,112.574 C384.633,112.352 384.81,112.153 385.054,112.153 L393.789,112.153 C394.033,112.153 394.211,112.352 394.211,112.574 L394.211,113.218 C394.211,113.439 394.033,113.638 393.789,113.638 L386.34,113.638 L386.34,119.048 L392.703,119.048 C392.925,119.048 393.124,119.248 393.124,119.47 L393.124,120.112 C393.124,120.356 392.925,120.534 392.703,120.534 L386.34,120.534 L386.34,126.187 L393.789,126.187 C394.033,126.187 394.211,126.387 394.211,126.608 L394.211,127.252 C394.211,127.473 394.033,127.673 393.789,127.673 L385.054,127.673 C384.81,127.673 384.633,127.473 384.633,127.252 L384.633,112.574" id="Fill-57" fill="#777776"></path>
            <path d="M397.955,112.574 C397.955,112.352 398.133,112.153 398.377,112.153 L399.241,112.153 C399.463,112.153 399.662,112.352 399.662,112.574 L399.662,126.187 L406.048,126.187 C406.292,126.187 406.469,126.387 406.469,126.608 L406.469,127.252 C406.469,127.473 406.292,127.673 406.048,127.673 L398.377,127.673 C398.133,127.673 397.955,127.473 397.955,127.252 L397.955,112.574" id="Fill-58" fill="#777776"></path>
            <path d="M418.019,122.396 C416.932,119.979 415.867,117.541 414.781,115.124 L414.604,115.124 L411.367,122.396 L418.019,122.396 Z M407.488,127.096 L414.227,112.176 C414.294,112.042 414.405,111.931 414.604,111.931 L414.825,111.931 C415.026,111.931 415.136,112.042 415.202,112.176 L421.899,127.096 C422.031,127.385 421.854,127.673 421.522,127.673 L420.635,127.673 C420.435,127.673 420.302,127.54 420.258,127.429 L418.617,123.77 L410.746,123.77 L409.128,127.429 C409.083,127.54 408.95,127.673 408.751,127.673 L407.864,127.673 C407.531,127.673 407.354,127.385 407.488,127.096 L407.488,127.096 Z" id="Fill-59" fill="#777776"></path>
            <path d="M429.922,126.142 C433.558,126.142 436.108,123.549 436.108,119.89 C436.108,116.255 433.558,113.661 429.922,113.661 L426.442,113.661 L426.442,126.142 L429.922,126.142 Z M424.756,112.574 C424.756,112.352 424.934,112.153 425.156,112.153 L430.121,112.153 C434.401,112.153 437.904,115.634 437.904,119.89 C437.904,124.192 434.401,127.673 430.121,127.673 L425.156,127.673 C424.934,127.673 424.756,127.473 424.756,127.252 L424.756,112.574 L424.756,112.574 Z" id="Fill-60" fill="#777776"></path>
            <path d="M450.051,122.396 C448.965,119.979 447.901,117.541 446.815,115.124 L446.637,115.124 L443.4,122.396 L450.051,122.396 Z M439.52,127.096 L446.26,112.176 C446.326,112.042 446.438,111.931 446.637,111.931 L446.859,111.931 C447.058,111.931 447.169,112.042 447.236,112.176 L453.931,127.096 C454.064,127.385 453.887,127.673 453.554,127.673 L452.667,127.673 C452.468,127.673 452.335,127.54 452.29,127.429 L450.65,123.77 L442.78,123.77 L441.16,127.429 C441.116,127.54 440.984,127.673 440.783,127.673 L439.897,127.673 C439.565,127.673 439.387,127.385 439.52,127.096 L439.52,127.096 Z" id="Fill-61" fill="#777776"></path>
            <path d="M458.652,113.638 L454.794,113.638 C454.55,113.638 454.373,113.439 454.373,113.218 L454.373,112.574 C454.373,112.352 454.55,112.153 454.794,112.153 L464.195,112.153 C464.439,112.153 464.615,112.352 464.615,112.574 L464.615,113.218 C464.615,113.439 464.439,113.638 464.195,113.638 L460.337,113.638 L460.337,127.252 C460.337,127.473 460.137,127.673 459.915,127.673 L459.073,127.673 C458.852,127.673 458.652,127.473 458.652,127.252 L458.652,113.638" id="Fill-62" fill="#777776"></path>
            <path d="M467.718,112.574 C467.718,112.352 467.917,112.153 468.139,112.153 L468.982,112.153 C469.226,112.153 469.403,112.352 469.403,112.574 L469.403,121.908 C469.403,124.435 470.977,126.32 473.571,126.32 C476.187,126.32 477.783,124.48 477.783,121.953 L477.783,112.574 C477.783,112.352 477.961,112.153 478.204,112.153 L479.047,112.153 C479.269,112.153 479.468,112.352 479.468,112.574 L479.468,122.041 C479.468,125.411 477.074,127.894 473.571,127.894 C470.09,127.894 467.718,125.411 467.718,122.041 L467.718,112.574" id="Fill-63" fill="#777776"></path>
            <path d="M484.122,112.33 C484.122,112.108 484.322,111.931 484.543,111.931 L484.876,111.931 C485.031,111.931 485.142,111.975 485.231,112.108 L495.097,124.391 C495.119,124.391 495.119,124.391 495.141,124.391 L495.141,112.574 C495.141,112.352 495.319,112.153 495.563,112.153 L496.338,112.153 C496.56,112.153 496.76,112.352 496.76,112.574 L496.76,127.495 C496.76,127.717 496.56,127.894 496.338,127.894 L496.161,127.894 C496.006,127.894 495.895,127.85 495.807,127.717 L485.763,115.19 L485.74,115.19 L485.74,127.252 C485.74,127.473 485.563,127.673 485.32,127.673 L484.543,127.673 C484.322,127.673 484.122,127.473 484.122,127.252 L484.122,112.33" id="Fill-64" fill="#777776"></path>
            <path d="M501.569,112.685 C501.569,112.397 501.791,112.153 502.101,112.153 L502.744,112.153 C503.032,112.153 503.277,112.397 503.277,112.685 L503.277,119.093 L510.194,112.375 C510.282,112.263 510.482,112.153 510.614,112.153 L511.701,112.153 C512.1,112.153 512.322,112.596 511.967,112.929 L504.961,119.602 L512.3,126.985 C512.455,127.14 512.41,127.673 511.923,127.673 L510.792,127.673 C510.637,127.673 510.438,127.584 510.393,127.517 L503.277,120.223 L503.277,127.14 C503.277,127.429 503.032,127.673 502.744,127.673 L502.101,127.673 C501.791,127.673 501.569,127.429 501.569,127.14 L501.569,112.685" id="Fill-65" fill="#777776"></path>
            <path d="M529.879,122.396 C528.792,119.979 527.729,117.541 526.642,115.124 L526.465,115.124 L523.228,122.396 L529.879,122.396 Z M519.348,127.096 L526.088,112.176 C526.155,112.042 526.265,111.931 526.465,111.931 L526.687,111.931 C526.886,111.931 526.996,112.042 527.064,112.176 L533.759,127.096 C533.892,127.385 533.715,127.673 533.382,127.673 L532.495,127.673 C532.296,127.673 532.162,127.54 532.118,127.429 L530.478,123.77 L522.607,123.77 L520.988,127.429 C520.945,127.54 520.811,127.673 520.612,127.673 L519.725,127.673 C519.392,127.673 519.215,127.385 519.348,127.096 L519.348,127.096 Z" id="Fill-66" fill="#777776"></path>
            <path d="M540.162,125.699 L540.607,125.189 C540.916,124.812 541.138,125.013 541.36,125.256 C541.737,125.678 542.579,126.409 543.71,126.409 C544.885,126.409 546.26,125.655 546.26,123.305 L546.26,112.574 C546.26,112.352 546.437,112.153 546.681,112.153 L547.546,112.153 C547.789,112.153 547.967,112.352 547.967,112.574 L547.967,123.261 C547.967,126.343 546.105,127.894 543.71,127.894 C541.581,127.894 540.518,126.72 540.141,126.254 C540.03,126.076 540.03,125.854 540.162,125.699" id="Fill-67" fill="#777776"></path>
            <path d="M560.847,109.071 C560.847,108.429 561.357,107.919 561.978,107.919 C562.62,107.919 563.13,108.429 563.13,109.071 C563.13,109.692 562.62,110.202 561.978,110.202 C561.357,110.202 560.847,109.692 560.847,109.071 Z M556.168,109.071 C556.168,108.429 556.678,107.919 557.299,107.919 C557.943,107.919 558.452,108.429 558.452,109.071 C558.452,109.692 557.943,110.202 557.299,110.202 C556.678,110.202 556.168,109.692 556.168,109.071 Z M559.627,126.343 C563.153,126.343 566.057,123.46 566.057,119.935 C566.057,116.41 563.153,113.483 559.627,113.483 C556.102,113.483 553.22,116.41 553.22,119.935 C553.22,123.46 556.102,126.343 559.627,126.343 Z M559.627,111.931 C564.062,111.931 567.609,115.501 567.609,119.935 C567.609,124.369 564.062,127.894 559.627,127.894 C555.193,127.894 551.668,124.369 551.668,119.935 C551.668,115.501 555.193,111.931 559.627,111.931 L559.627,111.931 Z" id="Fill-68" fill="#777776"></path>
            <path d="M569.203,112.729 C569.071,112.441 569.247,112.153 569.58,112.153 L570.467,112.153 C570.666,112.153 570.8,112.286 570.844,112.397 L576.364,124.812 L576.453,124.812 L581.974,112.397 C582.018,112.286 582.173,112.153 582.351,112.153 L583.238,112.153 C583.571,112.153 583.747,112.441 583.614,112.729 L576.874,127.65 C576.808,127.784 576.675,127.894 576.497,127.894 L576.276,127.894 C576.12,127.894 575.965,127.784 575.899,127.65 L569.203,112.729" id="Fill-69" fill="#777776"></path>
            <path d="M594.875,110.202 L595.984,107.076 C596.05,106.854 596.183,106.654 596.405,106.654 L597.27,106.654 C597.691,106.654 597.823,106.921 597.668,107.209 L595.94,110.291 C595.851,110.468 595.696,110.623 595.54,110.623 L595.296,110.623 C595.074,110.623 594.809,110.424 594.875,110.202 Z M591.195,110.202 L592.303,107.076 C592.369,106.854 592.503,106.654 592.725,106.654 L593.589,106.654 C594.01,106.654 594.144,106.921 593.988,107.209 L592.259,110.291 C592.17,110.468 592.015,110.623 591.86,110.623 L591.615,110.623 C591.394,110.623 591.128,110.424 591.195,110.202 Z M593.146,126.343 C596.671,126.343 599.575,123.46 599.575,119.935 C599.575,116.41 596.671,113.483 593.146,113.483 C589.62,113.483 586.738,116.41 586.738,119.935 C586.738,123.46 589.62,126.343 593.146,126.343 Z M593.146,111.931 C597.58,111.931 601.127,115.501 601.127,119.935 C601.127,124.369 597.58,127.894 593.146,127.894 C588.711,127.894 585.187,124.369 585.187,119.935 C585.187,115.501 588.711,111.931 593.146,111.931 L593.146,111.931 Z" id="Fill-70" fill="#777776"></path>
        </g>
    </g>
</svg>